<?xml version="1.0" encoding="utf-8"?>
<!-- Generator: Adobe Illustrator 12.0.0, SVG Export Plug-In  -->
<!DOCTYPE svg PUBLIC "-//W3C//DTD SVG 1.1//EN" "http://www.w3.org/Graphics/SVG/1.1/DTD/svg11.dtd" [
	<!ENTITY ns_flows "http://ns.adobe.com/Flows/1.0/">
	<!ENTITY ns_svg "http://www.w3.org/2000/svg">
	<!ENTITY ns_xlink "http://www.w3.org/1999/xlink">
]>
<svg  version="1.1" xmlns="&ns_svg;" xmlns:xlink="&ns_xlink;" xmlns:a="http://ns.adobe.com/AdobeSVGViewerExtensions/3.0/"
	 width="400" height="249" viewBox="0 -0.21 400 249" enable-background="new 0 -0.21 400 249" xml:space="preserve">
<defs>
</defs>
<g>
	<g>
		<path fill-rule="evenodd" clip-rule="evenodd" fill="#D3D3D3" d="M400,242.652c0,0.188,0,0.512,0,0.828
			c-15.25,2.059-30.785-3.801-42.66,0c-3.531,1.148-4.336,3.973-7.836,4.34c-5.078,0.477-9.293-1.441-13.129-4.34
			c-14.004-0.324-25.371,1.977-39.176,1.684c-0.609-21.457,4.273-42.188,5.191-59.152c2.719,0.895,2.305,0.398,4.324-0.977
			c0.73-4.801-1.938-7.617,0-11.336c1.863,2.527,4.93,1.758,6.988,0c0.863-4.047-8.25-5.461-6.988,0
			c-7.445,1.594-19.164,6.445-19.164,18.324c-6.27-0.758-8.336,2.672-10.484,6.145c-2.832-6.582-13.688-0.055-19.164-4.328
			c1.758-5.883,5.02-10.133,6.16-16.645c-4.746-0.137-5.809,7.27-8.676,12.313c-2.742,4.688-6.996,9.027-8.82,13.844
			c-7.52,21.371,10.098,29.332,13.141,44.469c-10.961,2.031-26.008,1.121-31.469-5.168c0.164-9.352,3.094-18.719-5.168-20.98
			c2.621-0.879,5.137-1.863,6.152-4.328c-5.363-2.754-1.164-6.219-1.805-10.5c-1.254-9.434-8.227-19.629-7.836-27.832
			c0.293-5.129,4.141-8.031,4.336-12.313c-9.578,1.324-6.289,15.609-7.836,22.809c-27.984-4.891-42.607-23.027-77.557-20.984
			c-0.627-3.387,3.625-6.242,0.916-8.668c-12.041,16.121-31.869,24.379-48.816,35.66c-6.029,20.328,5.131,36.766,23.502,38.32
			c1.51,3.477,3.875,6.105,3.496,11.328c-17.232,2.996-37.574,1.766-38.326-14.816c-4.053-0.027-8.609,0.594-10.49-1.676
			c1.9-2.258,6.547-1.621,6.152-6.156c-1.668-2.414-6.461-1.625-10.49-1.676c0.404-4.598,6.43-3.488,6.088-8.828
			c-2.201-3.141-6.266,0.34-8.676-1.676c3.789-3.453,3.406-11.027,3.504-18.313c20.605-9.813,25.684-35.227,32.234-59.164
			c11.012-8.16,28.582-9.746,47.904-9.648c12.676,13.742,34.701,22.77,56.723,24.332c-1.473-7.449-3.367-4.723-9.66-3.5
			c-5.904-2.109-7.986-8.254-8.666-15.656c-5.217-0.809-0.754,8.055-3.496,9.648c-12.02,1.621-10.119-13.254-7.914-20.988
			c-6.836-0.086-3.926,9.395-6.918,13.152c-11.674,1.105-6.188-13.551-6.99-19.164c-4.879-0.602-2.311,6.379-6.078,7
			c-4.273-1.074-5.047-5.48-5.258-8.816c-0.557-7.811,7.748-15.42,6.092-18.316c-5.07-0.586-5.131,11.189-12.18,11.328
			c-4.625-7.447-0.789-17.18,1.758-20.842c-8.365-0.277-7.23,9.025-9.578,14.826c-6.998-0.635-3.715-10.969-6.156-13.988
			c-4.736,0.248-3.324,6.592-7.836,6.998c-5.547-19.1-16.086-0.334-28.74-2.66c0.225-3.279,7.568-2.865,4.338-6.971
			C75.199,83.3,57.242,77.953,47.059,69.16c5.248-0.064,9.24,4.965,14.822,1.738c-6.424-6.414-24.242-5.875-26.146-13.916
			c4.525,2.73,9.643,4.861,16.572,5.252c-3.104-8.59-21.586-9.285-27.066-18.326c6.393,2.604,12.439,5.623,22.656,4.338
			c-11.34-7.238-28.549-8.613-33.984-21.754c28.211,7.426,54.594,10.797,85.457,8.676c43.926-2.971,92.721-30.449,123.701-5.244
			c9.02-15.695,19.613-27.418,39.152-29.586c45.492-5.047,75.729,47.65,47.145,81.051c-0.27,7.893-3.914,12.256-6.152,18.326
			c3.484,1.285,5.379-3.377,7-0.984c5.109,12.754,1.953,32.762-3.5,42.797c0.301-1.969-0.133-3.359-1.668-3.492
			c-5.105,5.184-0.848,14.879-1.832,23.496c-1.711-2.375-5.234-2.066-4.32,2.652c5.469,5.957,8.453-3.914,8.805-8.66
			c15.691-5.379,36.801-2.625,53.996,0c3.457,4.836-3.762,8-1.84,11.176c5.793,2.691,16.039,0.945,22.664,2.668
			c2.93,1.035,0.367,7.285,3.5,7.828c0.578-0.355,1.383-4.262,1.805-1.684c0.367,3.922-3.457,7.047-1.805,9.523
			c0.234,3.824,4.199-0.961,3.5,2.652C394.555,204.972,394.637,227.898,400,242.652z M319.229,51.806
			c-1.578-44.063-51.62-66.154-81.761-39.171c-4.199,3.705-12.492,14.07-13.551,20.783c-0.18,1.945,1.742,5.57,1.805,8.74
			c1.125,25.6-7.777,15.406,0.848,29.643c4.598-15.209,9.676-29.869,19.996-39.225c2.32-2.08,6.063-0.162,8.82,0
			c2.305-2.363,5.445-3.877,8.676-5.244c10.133,4.691,28.418,1.289,35.652,8.744c-0.887,2.217-7.145-0.889-6.023,3.494
			c2.355,3.154,9.75,1.258,13.023,3.426c-0.879,4.785,1.82,5.82,1.82,9.656c-1.203,2.234-3.172,3.752-6.988,3.422
			c3.426,6.223,7.168,11.918,7.82,20.977C315.551,70.06,319.425,60.274,319.229,51.806z M195.24,47.4
			c2.334-5.07,0.74-10.17,4.354-14.824c-1.082-0.748-2.352-1.156-4.354-0.908C195.297,36.88,189.311,44.363,195.24,47.4z
			 M198.738,42.996c-0.422,7.203-6.242,12.432,2.523,14.824c1.75-4.316,1.105-7.445,0.984-12.166
			c2.133-1.287,4.844-2.08,5.168-5.246c-0.105-0.971-1.043-1.357-1.668-1.744C203.883,40.617,200.668,41.173,198.738,42.996z
			 M204.762,50.902c-0.512,19.832-17.66,38.379-8.676,56.641c-1.57-24.242,13.371-36.531,12.996-56.641
			C207.73,50.902,206.242,50.902,204.762,50.902z M250.066,58.736c4.516,2.916,12.492,5.053,15.664,0
			C264.527,50.519,252.793,54.064,250.066,58.736z M276.23,59.574c4.125,4.32,12.785,2.176,14.809-2.592
			C287.832,52.757,276.113,51.355,276.23,59.574z M235.246,56.074c0.707,4.484,9.594,4.709,13.145,3.5
			C248.762,52.542,238.988,56.644,235.246,56.074z M246.566,74.398c1.969-1.164,3.758-10.756-0.832-10.418
			C244.613,65.847,243.684,73.753,246.566,74.398z M215.25,138.867c4.59-6.266-1.848-14.453,0-23.488
			c4.605-1.527,8.863-3.457,9.637-8.672c-1.832-2.752-5.754,1.609-6.984-0.979c7.031-8.586,12.926-30.615,2.516-39.16
			C213.191,85.212,202.441,118.539,215.25,138.867z M264.91,70.898c2.984,2.596,4.516,6.625,3.473,13.139
			c-6.32,2.363-12.148,5.205-13.98,12.178c1.816,0.018,1.141,2.377,3.5,1.686c3.035-11.402,25.375-10.945,30.484-1.686
			c3.141-2.352,2.727-8.422,2.652-13.988c1.637,0.375,0.727,3.426,3.5,2.652c0.871-3.76,6.129-10.645,1.84-13.98
			c-0.789,3.035-3.824,3.824-3.508,7.836c-2.164-0.285-1.758-3.014-4.484-2.619c-2.383,3.1,0.758,11.848-1.668,14.787
			c-6.199-3.117-12.426-6.088-13.988-13.852c-0.352-3.707,5.836-4.064,3.5-6.982C272.582,70.425,267.238,69.177,264.91,70.898z
			 M253.566,85.726c1.09-5.461-0.148-10.133-5.176-12.176C246.883,77.58,249.676,84.187,253.566,85.726z M240.551,111.882
			c-0.227-1.922,0.758-2.762,2.531-2.664c-0.234,10.086-0.031,23.781,6.984,23.641c-2.785-15.207-3.859-32.266-12.168-41.957
			C236.77,96.605,235.133,109.921,240.551,111.882z M263.207,104.052c-0.316-2.328-2.285-3.012-4.32-3.5
			C258.211,103.742,260.18,104.41,263.207,104.052z M269.23,118.863c-5.535-1.969-4.305-10.832-10.344-12.156
			C256.691,112.175,264.512,125.66,269.23,118.863z M322.371,170.199c5.43,2.902,8.066-3.98,14.828-2.516
			C335.238,161.003,322.723,164.738,322.371,170.199z M384.328,231.324c-0.734,2.344-2.582,9.074,3.496,8.664
			c2.809-2.031,3.957-5.891,6.023-8.664C392.129,229.89,386.035,229.89,384.328,231.324z M311.051,240.828
			c9.141,1.578,22.266-1.668,29.648,0C339.852,231.128,315.625,232.902,311.051,240.828z M353.84,240.828
			c6.773-3.059,22.258,2.586,26.164-3.492C373.91,233.675,354.672,230.265,353.84,240.828z"/>
		<path fill-rule="evenodd" clip-rule="evenodd" fill="#D3D3D3" d="M291.887,80.525C293.667,74.956,292.584,85.79,291.887,80.525
			L291.887,80.525z"/>
		<path fill-rule="evenodd" clip-rule="evenodd" fill="#D3D3D3" d="M49.65,132.859c3.463,19.238,31.828,8.816,41.813,2.523
			c4.406,20.703-42.273,24.098-46.996,6.984c-3.777-13.34,14.318-29.762,13.012-42.652c-2.213-22.965-38.281,0.342-39.16,14.82
			c-4.32-2.207-8.936,0.168-13.984,0c-0.221-4.52-3.199-6.129-4.334-9.652c16.162-3.102,23.246-22.713,44.467-20.846
			C70.688,86.214,59.311,117.269,49.65,132.859z"/>
		<path fill-rule="evenodd" clip-rule="evenodd" fill="#D3D3D3" d="M159.439,174.675c-0.816,13.359-8.047,20.359-14.758,27.84
			c-1.51,18,6.092,26.984,20.91,28.809c1.051,3.539,2.227,7.031,3.484,10.344c-9.539,6.281-23.344-0.125-33.135-1.68
			c-0.207-8.535-7.572-9.828-13.082-13.141c1.814-1.945,5.201-2.379,6.088-5.176c-0.57-2.855-4.146-2.777-7.824-2.652
			c1.334-2.086,5.436-1.563,5.236-5.184c0.395-2.727-1.893-2.762-4.334-2.656c5.266-5.852-4.98-8.184-5.244-13.84
			c3.299-1.109,5.326-3.418,7.836-5.316c1.742-7.184,4.289-13.703,8.74-18.324C142.004,174.054,152.145,172.898,159.439,174.675z"/>
	</g>
	<g>
		<path fill="#534B3D" d="M400,242.652c0,0.188,0,0.512,0,0.828c-15.25,2.059-30.785-3.801-42.66,0
			c-3.531,1.148-4.336,3.973-7.836,4.34c-5.078,0.477-9.293-1.441-13.129-4.34c-14.004-0.324-25.371,1.977-39.176,1.684
			c-0.609-21.457,4.273-42.188,5.191-59.152c2.719,0.895,2.305,0.398,4.324-0.977c0.73-4.801-1.938-7.617,0-11.336
			c1.863,2.527,4.93,1.758,6.988,0c0.863-4.047-8.25-5.461-6.988,0c-7.445,1.594-19.164,6.445-19.164,18.324
			c-6.27-0.758-8.336,2.672-10.484,6.145c-2.832-6.582-13.688-0.055-19.164-4.328c1.758-5.883,5.02-10.133,6.16-16.645
			c-4.746-0.137-5.809,7.27-8.676,12.313c-2.742,4.688-6.996,9.027-8.82,13.844c-7.52,21.371,10.098,29.332,13.141,44.469
			c-10.961,2.031-26.008,1.121-31.469-5.168c0.164-9.352,3.094-18.719-5.168-20.98c2.621-0.879,5.137-1.863,6.152-4.328
			c-5.363-2.754-1.164-6.219-1.805-10.5c-1.254-9.434-8.227-19.629-7.836-27.832c0.293-5.129,4.141-8.031,4.336-12.313
			c-9.578,1.324-6.289,15.609-7.836,22.809c-27.984-4.891-42.607-23.027-77.557-20.984c-0.627-3.387,3.625-6.242,0.916-8.668
			c-12.041,16.121-31.869,24.379-48.816,35.66c-6.029,20.328,5.131,36.766,23.502,38.32c1.51,3.477,3.875,6.105,3.496,11.328
			c-17.232,2.996-37.574,1.766-38.326-14.816c-4.053-0.027-8.609,0.594-10.49-1.676c1.9-2.258,6.547-1.621,6.152-6.156
			c-1.668-2.414-6.461-1.625-10.49-1.676c0.404-4.598,6.43-3.488,6.088-8.828c-2.201-3.141-6.266,0.34-8.676-1.676
			c3.789-3.453,3.406-11.027,3.504-18.313c20.605-9.813,25.684-35.227,32.234-59.164c11.012-8.16,28.582-9.746,47.904-9.648
			c12.676,13.742,34.701,22.77,56.723,24.332c-1.473-7.449-3.367-4.723-9.66-3.5c-5.904-2.109-7.986-8.254-8.666-15.656
			c-5.217-0.809-0.754,8.055-3.496,9.648c-12.02,1.621-10.119-13.254-7.914-20.988c-6.836-0.086-3.926,9.395-6.918,13.152
			c-11.674,1.105-6.188-13.551-6.99-19.164c-4.879-0.602-2.311,6.379-6.078,7c-4.273-1.074-5.047-5.48-5.258-8.816
			c-0.557-7.811,7.748-15.42,6.092-18.316c-5.07-0.586-5.131,11.189-12.18,11.328c-4.625-7.447-0.789-17.18,1.758-20.842
			c-8.365-0.277-7.23,9.025-9.578,14.826c-6.998-0.635-3.715-10.969-6.156-13.988c-4.736,0.248-3.324,6.592-7.836,6.998
			c-5.547-19.1-16.086-0.334-28.74-2.66c0.225-3.279,7.568-2.865,4.338-6.971C75.199,83.3,57.242,77.953,47.059,69.16
			c5.248-0.064,9.24,4.965,14.822,1.738c-6.424-6.414-24.242-5.875-26.146-13.916c4.525,2.73,9.643,4.861,16.572,5.252
			c-3.104-8.59-21.586-9.285-27.066-18.326c6.393,2.604,12.439,5.623,22.656,4.338c-11.34-7.238-28.549-8.613-33.984-21.754
			c28.211,7.426,54.594,10.797,85.457,8.676c43.926-2.971,92.721-30.449,123.701-5.244c9.02-15.695,19.613-27.418,39.152-29.586
			c45.492-5.047,75.729,47.65,47.145,81.051c-0.27,7.893-3.914,12.256-6.152,18.326c3.484,1.285,5.379-3.377,7-0.984
			c5.109,12.754,1.953,32.762-3.5,42.797c0.301-1.969-0.133-3.359-1.668-3.492c-5.105,5.184-0.848,14.879-1.832,23.496
			c-1.711-2.375-5.234-2.066-4.32,2.652c5.469,5.957,8.453-3.914,8.805-8.66c15.691-5.379,36.801-2.625,53.996,0
			c3.457,4.836-3.762,8-1.84,11.176c5.793,2.691,16.039,0.945,22.664,2.668c2.93,1.035,0.367,7.285,3.5,7.828
			c0.578-0.355,1.383-4.262,1.805-1.684c0.367,3.922-3.457,7.047-1.805,9.523c0.234,3.824,4.199-0.961,3.5,2.652
			C394.555,204.972,394.637,227.898,400,242.652z M319.229,51.806c-1.578-44.063-51.62-66.154-81.761-39.171
			c-4.199,3.705-12.492,14.07-13.551,20.783c-0.18,1.945,1.742,5.57,1.805,8.74c1.125,25.6-7.777,15.406,0.848,29.643
			c4.598-15.209,9.676-29.869,19.996-39.225c2.32-2.08,6.063-0.162,8.82,0c2.305-2.363,5.445-3.877,8.676-5.244
			c10.133,4.691,28.418,1.289,35.652,8.744c-0.887,2.217-7.145-0.889-6.023,3.494c2.355,3.154,9.75,1.258,13.023,3.426
			c-0.879,4.785,1.82,5.82,1.82,9.656c-1.203,2.234-3.172,3.752-6.988,3.422c3.426,6.223,7.168,11.918,7.82,20.977
			C315.551,70.06,319.425,60.274,319.229,51.806z M195.24,47.4c2.334-5.07,0.74-10.17,4.354-14.824
			c-1.082-0.748-2.352-1.156-4.354-0.908C195.297,36.88,189.311,44.363,195.24,47.4z M198.738,42.996
			c-0.422,7.203-6.242,12.432,2.523,14.824c1.75-4.316,1.105-7.445,0.984-12.166c2.133-1.287,4.844-2.08,5.168-5.246
			c-0.105-0.971-1.043-1.357-1.668-1.744C203.883,40.617,200.668,41.173,198.738,42.996z M204.762,50.902
			c-0.512,19.832-17.66,38.379-8.676,56.641c-1.57-24.242,13.371-36.531,12.996-56.641C207.73,50.902,206.242,50.902,204.762,50.902
			z M250.066,58.736c4.516,2.916,12.492,5.053,15.664,0C264.527,50.519,252.793,54.064,250.066,58.736z M276.23,59.574
			c4.125,4.32,12.785,2.176,14.809-2.592C287.832,52.757,276.113,51.355,276.23,59.574z M235.246,56.074
			c0.707,4.484,9.594,4.709,13.145,3.5C248.762,52.542,238.988,56.644,235.246,56.074z M246.566,74.398
			c1.969-1.164,3.758-10.756-0.832-10.418C244.613,65.847,243.684,73.753,246.566,74.398z M215.25,138.867
			c4.59-6.266-1.848-14.453,0-23.488c4.605-1.527,8.863-3.457,9.637-8.672c-1.832-2.752-5.754,1.609-6.984-0.979
			c7.031-8.586,12.926-30.615,2.516-39.16C213.191,85.212,202.441,118.539,215.25,138.867z M264.91,70.898
			c2.984,2.596,4.516,6.625,3.473,13.139c-6.32,2.363-12.148,5.205-13.98,12.178c1.816,0.018,1.141,2.377,3.5,1.686
			c3.035-11.402,25.375-10.945,30.484-1.686c3.141-2.352,2.727-8.422,2.652-13.988c1.637,0.375,0.727,3.426,3.5,2.652
			c0.871-3.76,6.129-10.645,1.84-13.98c-0.789,3.035-3.824,3.824-3.508,7.836c-2.164-0.285-1.758-3.014-4.484-2.619
			c-2.383,3.1,0.758,11.848-1.668,14.787c-6.199-3.117-12.426-6.088-13.988-13.852c-0.352-3.707,5.836-4.064,3.5-6.982
			C272.582,70.425,267.238,69.177,264.91,70.898z M253.566,85.726c1.09-5.461-0.148-10.133-5.176-12.176
			C246.883,77.58,249.676,84.187,253.566,85.726z M240.551,111.882c-0.227-1.922,0.758-2.762,2.531-2.664
			c-0.234,10.086-0.031,23.781,6.984,23.641c-2.785-15.207-3.859-32.266-12.168-41.957
			C236.77,96.605,235.133,109.921,240.551,111.882z M263.207,104.052c-0.316-2.328-2.285-3.012-4.32-3.5
			C258.211,103.742,260.18,104.41,263.207,104.052z M269.23,118.863c-5.535-1.969-4.305-10.832-10.344-12.156
			C256.691,112.175,264.512,125.66,269.23,118.863z M322.371,170.199c5.43,2.902,8.066-3.98,14.828-2.516
			C335.238,161.003,322.723,164.738,322.371,170.199z M384.328,231.324c-0.734,2.344-2.582,9.074,3.496,8.664
			c2.809-2.031,3.957-5.891,6.023-8.664C392.129,229.89,386.035,229.89,384.328,231.324z M311.051,240.828
			c9.141,1.578,22.266-1.668,29.648,0C339.852,231.128,315.625,232.902,311.051,240.828z M353.84,240.828
			c6.773-3.059,22.258,2.586,26.164-3.492C373.91,233.675,354.672,230.265,353.84,240.828z"/>
		<path fill="#534B3D" d="M291.887,80.525C293.667,74.956,292.584,85.79,291.887,80.525L291.887,80.525z"/>
		<path fill="#534B3D" d="M49.65,132.859c3.463,19.238,31.828,8.816,41.813,2.523c4.406,20.703-42.273,24.098-46.996,6.984
			c-3.777-13.34,14.318-29.762,13.012-42.652c-2.213-22.965-38.281,0.342-39.16,14.82c-4.32-2.207-8.936,0.168-13.984,0
			c-0.221-4.52-3.199-6.129-4.334-9.652c16.162-3.102,23.246-22.713,44.467-20.846C70.688,86.214,59.311,117.269,49.65,132.859z"/>
		<path fill="#534B3D" d="M159.439,174.675c-0.816,13.359-8.047,20.359-14.758,27.84c-1.51,18,6.092,26.984,20.91,28.809
			c1.051,3.539,2.227,7.031,3.484,10.344c-9.539,6.281-23.344-0.125-33.135-1.68c-0.207-8.535-7.572-9.828-13.082-13.141
			c1.814-1.945,5.201-2.379,6.088-5.176c-0.57-2.855-4.146-2.777-7.824-2.652c1.334-2.086,5.436-1.563,5.236-5.184
			c0.395-2.727-1.893-2.762-4.334-2.656c5.266-5.852-4.98-8.184-5.244-13.84c3.299-1.109,5.326-3.418,7.836-5.316
			c1.742-7.184,4.289-13.703,8.74-18.324C142.004,174.054,152.145,172.898,159.439,174.675z"/>
	</g>
</g>
</svg>
