<?xml version="1.0" encoding="utf-8"?>
<!-- Generator: Adobe Illustrator 12.0.0, SVG Export Plug-In  -->
<!DOCTYPE svg PUBLIC "-//W3C//DTD SVG 1.1//EN" "http://www.w3.org/Graphics/SVG/1.1/DTD/svg11.dtd" [
	<!ENTITY ns_flows "http://ns.adobe.com/Flows/1.0/">
	<!ENTITY ns_svg "http://www.w3.org/2000/svg">
	<!ENTITY ns_xlink "http://www.w3.org/1999/xlink">
]>
<svg  version="1.1" xmlns="&ns_svg;" xmlns:xlink="&ns_xlink;" xmlns:a="http://ns.adobe.com/AdobeSVGViewerExtensions/3.0/"
	 width="310" height="106" viewBox="-0.803 -0.44 310 106" enable-background="new -0.803 -0.44 310 106" xml:space="preserve">
<defs>
</defs>
<path fill="#F7F5EF" d="M305.221,70.302c-2.727,1.448-8.211,1.258-10.086-0.305c-1.318-1.099-4.237-3.538-7.338-6.038
	c0,1.801-0.199,6.601-0.399,8.5c-0.3,3-2.5,12.9-10.2,21.601c-7,7.9-17,10.9-24,10.9c-15.8,0-22.1-9.7-22.1-20
	c0-5,1.6-13.301,9.6-21.501c6.5-6.8,12.7-7.8,14.9-7.8c4.4,0,5.4,2.601,6.3,3.9c4.399-3.601,11.3-10.601,14.101-14.3
	c1.399-1.801,3.6-5.801,3.6-8.4c0-1.4-0.5-2.3-1.2-3c-0.8-0.8-1.101-1.1-1.101-2.2c0-2.7,2.101-4.1,4-4.1
	c2.301,0,4.601,1.399,4.601,5.3c0,5.2-3.3,11.4-12.601,20.5c-8.299,8.2-25.1,20.9-35.5,28v0.8c0,12.801,10,17.101,17.701,17.101
	c8.299,0,18.5-5.601,24.299-16.3c3.801-7.001,5.101-12.001,5.4-20.2c-1.1-1-3.199-1.7-5.199-1.7c-3.101,0-7.301,3-7.301,6.399
	c0,0.9,0.5,2.2,0.801,3.301c0.299,1.1,0.699,2.199,0.699,2.8c0,0.7-0.5,2.8-3.3,2.8c-2.101,0-4.3-1.3-4.3-4c0-2.6,1.8-7.1,6.8-11.2
	c4-3.3,8.5-4.1,9.899-4.1c5.5,0,8.4,3.399,13.301,7.8c2.3,2.1,2.6,2.6,4.4,2.6c1,0,2-1.399,2-3.1c0-1.1-0.201-1.9-0.4-2.5
	c-0.2-0.7-0.4-1.2-0.4-1.5c0-1.2,1.4-2.5,3.2-2.5c2.7,0,3.7,3,3.7,5.6C309.098,65.76,306.721,69.505,305.221,70.302z
	 M254.297,65.359c0.101-0.9,0.101-2.2,0.101-2.4c0-1.899-1.399-3.1-3.3-3.1c-1.4,0-4.7,1.5-7.7,5.4c-3.101,4.1-4.7,8.1-5.4,12.3
	C245.098,72.659,250.998,68.26,254.297,65.359z"/>
<path fill="#5A423E" d="M48.704,24.552c0-2.904-3.08-5.764-6.688-8.184c-3.08-2.068-5.588-4.356-5.588-7.876
	c0-3.828,3.564-7.348,8.844-7.348c2.816,0,4.796,0.88,5.236,0.88c0.396,0,0.66,0.572,0.748,1.012
	c0.044,0.132,0.396,2.332,0.396,3.696c0,0.66-0.088,1.1-0.308,1.1c-0.836,0-1.408-0.572-1.54-1.232
	c-0.44-2.552-2.464-4.004-4.928-4.004c-2.728,0-5.06,1.804-5.06,4.752c0,2.816,3.608,5.06,5.852,6.512
	c2.508,1.628,6.732,4.972,6.732,9.46c0,3.521-2.552,7.744-9.152,7.744c-3.212,0-5.148-0.704-5.896-1.056
	c-0.572-0.265-0.836-0.528-0.924-0.748c-0.484-1.013-0.792-3.477-0.792-5.061c0-0.396,0.44-1.276,0.924-1.276
	c0.396,0,0.88,1.496,1.32,2.904c0.836,2.685,3.212,3.784,5.764,3.784C46.943,29.612,48.704,27.632,48.704,24.552z"/>
<path fill="#5A423E" d="M66.699,13.992c0-1.408-0.132-1.408-1.584-1.408h-3.168c-0.924,0-2.112,0.792-2.552,1.54
	c-0.176,0.352-0.616,0.924-1.056,0.924c-0.22,0-0.308-0.132-0.308-0.352c0-0.484,0.308-1.012,0.616-4.312
	c0.044-0.66,0.44-0.66,0.572-0.66c0.264,0,1.012,0.924,3.74,0.924h10.692c3.916,0,4.62-0.88,4.928-0.88
	c0.22,0,0.396,0.264,0.396,0.484c0,2.244,0.176,3.168,0.176,4.092c0,0.176-0.176,0.88-0.528,0.836
	c-0.352-0.044-0.616-0.748-0.704-1.012c-0.176-0.748-0.924-1.584-2.86-1.584c-1.54,0-4.048,0.044-4.576,0.088
	c-0.396,0.044-0.484,0.748-0.484,1.32v12.892c0,1.584,1.364,2.067,2.904,2.376c0.484,0.088,1.056,0.264,1.056,0.703
	c0,0.353-0.572,0.528-0.88,0.528c-1.716,0-2.86-0.264-4.708-0.264s-3.036,0.264-4.752,0.264c-0.308,0-0.88-0.176-0.88-0.528
	c0-0.439,0.572-0.615,1.056-0.703c1.54-0.309,2.904-0.792,2.904-2.376V13.992z"/>
<path fill="#5A423E" d="M85.091,28.556c0,1.319-1.1,2.42-2.42,2.42c-1.32,0-2.42-1.101-2.42-2.42c0-1.32,1.1-2.42,2.42-2.42
	C83.991,26.136,85.091,27.236,85.091,28.556z"/>
<path fill="#5A423E" d="M134.238,26.18c0.088,1.804,1.1,2.728,3.3,3.124c1.012,0.176,1.452,0.396,1.452,0.792
	c0,0.352-0.528,0.483-1.276,0.483c-2.376,0-3.124-0.22-5.148-0.22c-1.804,0-2.244,0.22-4.62,0.22c-0.748,0-1.276-0.132-1.276-0.483
	c0-0.396,0.44-0.66,1.452-0.792c1.716-0.221,2.244-1.101,2.244-3.168c0-6.336-0.264-10.252-0.528-16.192
	c0-0.484-0.088-0.704-0.22-0.704c-0.088,0-0.264,0.264-0.484,0.704l-9.768,19.8c-0.352,0.748-0.572,1.057-0.748,1.057
	c-0.22,0-0.396-0.484-0.616-1.145c-2.288-6.864-4.576-12.32-7.876-20.02c-0.264-0.616-0.484-0.66-0.572,0
	c-0.836,6.204-1.408,10.252-1.408,16.235c0,1.145,0.704,3.036,2.86,3.433c1.012,0.176,1.452,0.396,1.452,0.792
	c0,0.352-0.528,0.483-1.276,0.483c-2.376,0-2.508-0.22-4.136-0.22c-1.584,0-1.628,0.22-4.004,0.22c-0.748,0-1.276-0.132-1.276-0.483
	c0-0.396,0.44-0.616,1.452-0.792c2.2-0.396,2.64-2.86,2.728-3.433c1.056-7.919,1.804-15.488,1.804-19.184
	c0-0.44-0.044-0.748-0.044-1.012c0-0.484-0.176-0.836-0.66-1.408c-0.88-1.012-2.596-1.232-3.652-1.496
	c-0.264-0.088-0.616-0.352-0.616-0.748c0-0.44,0.748-0.484,1.012-0.484c1.628,0,6.16,0.352,7.304,0.352
	c0.792,0,1.144,2.904,1.584,4.092l6.952,17.644c0.176,0.44,0.352,0.66,0.528,0.66c0.132,0,0.308-0.176,0.484-0.528l8.668-18.04
	c0.66-1.408,0.572-3.872,1.232-3.872h1.584c1.892,0,4.004-0.352,4.884-0.352h0.132c0.264,0,0.924,0.044,0.924,0.44
	c0,0.484-0.88,0.924-1.144,1.012c-1.496,0.44-3.652,1.012-3.652,2.42C133.271,13.552,133.886,19.536,134.238,26.18z"/>
<path fill="#5A423E" d="M166.138,29.963c0,0.353-0.571,0.528-0.88,0.528c-1.716,0-2.332-0.22-3.872-0.22s-2.464,0.22-4.18,0.22
	c-0.308,0-0.88-0.176-0.88-0.528c0-0.439,0.527-0.659,1.012-0.792c1.232-0.308,1.716-0.396,1.716-1.363
	c0-0.572-0.528-2.112-0.968-3.256c-0.088-0.264-0.221-0.308-0.836-0.308h-6.424c-0.353,0-0.528,0.132-0.704,0.528
	c-0.616,1.584-0.88,2.023-0.88,2.728c0,1.145,0.748,1.408,1.627,1.672c0.484,0.177,1.013,0.353,1.013,0.792
	c0,0.353-0.571,0.528-0.88,0.528c-1.717,0-2.023-0.22-3.564-0.22c-1.54,0-1.627,0.22-3.344,0.22c-0.308,0-0.88-0.176-0.88-0.528
	c0-0.439,0.528-0.615,1.012-0.747c1.364-0.309,2.508-0.44,3.564-2.904l5.104-11.792c0.615-1.452,0.396-2.068,0.527-2.2
	c0.396-0.396,1.452-1.496,1.716-1.804c0.353-0.396,0.572-0.528,0.704-0.528c0.176,0,0.221,0.132,0.309,0.396l5.939,15.268
	c0.572,1.496,1.275,3.168,3.036,3.52C165.609,29.26,166.138,29.524,166.138,29.963z M151.178,22.22
	c-0.176,0.396,0.044,0.44,0.572,0.44h5.104c0.44,0,0.484,0,0.353-0.44c-0.308-1.188-2.024-5.324-2.509-6.688
	c-0.264-0.66-0.352-0.66-0.615,0C153.334,17.38,152.146,20.108,151.178,22.22z"/>
<path fill="#5A423E" d="M179.91,29.171c0.483,0.089,1.056,0.265,1.056,0.704c0,0.353-0.572,0.528-0.88,0.528
	c-1.717,0-2.42-0.176-4.004-0.176c-1.848,0-3.036,0.264-4.752,0.264c-0.309,0-0.881-0.176-0.881-0.528
	c0-0.439,0.572-0.615,1.057-0.703c1.54-0.309,2.904-0.792,2.904-2.376V14.872c0-1.804-0.704-2.772-2.553-3.08
	c-0.527-0.088-1.056-0.396-1.056-0.836c0-0.352,0.572-0.528,0.88-0.528c1.717,0,2.553,0.22,4.092,0.22
	c1.232,0,3.256-0.22,5.061-0.22c3.828,0,7.436,1.1,7.436,4.972c0.045,2.596-1.98,4.224-3.607,4.752
	c-0.264,0.088-0.396,0.264-0.309,0.44c0.881,2.244,2.596,5.148,3.961,6.732c0.967,1.101,3.256,2.068,3.959,2.156
	c0.309,0.044,0.793,0.132,0.793,0.616c0,0.527-1.893,0.88-3.257,0.88c-1.76,0-3.256-0.836-4.399-2.2
	c-0.881-1.056-2.904-4.18-3.873-6.072c-0.352-0.66-1.627-1.276-2.947-1.276c-0.309,0-0.88,0.308-0.88,0.704v4.752
	C177.71,28.468,178.369,28.864,179.91,29.171z M177.71,19.008c0,1.056,0.396,1.1,1.1,1.1c3.345,0,5.984-1.056,5.94-4.268
	c0-2.772-2.86-4.136-5.545-4.136c-1.143,0-1.495,0.22-1.495,1.232V19.008z"/>
<path fill="#5A423E" d="M219.861,29.963c0,0.353-0.572,0.528-0.88,0.528c-1.716,0-3.739-0.176-6.116-0.22
	c-0.879,0-0.483,0.088-2.199,0.088c-0.309,0-0.881-0.176-0.881-0.528c0-0.439,0.396-0.527,0.925-0.792
	c0.571-0.264,0.571-0.792,0.22-1.188l-6.027-6.82c-0.221-0.264-0.705-0.572-0.925-0.572c-0.264,0-0.308,0.616-0.308,0.836v5.544
	c0,1.628,0.396,2.111,1.936,2.42c0.484,0.088,1.057,0.264,1.057,0.703c0,0.353-0.572,0.528-0.881,0.528
	c-1.715,0-2.287-0.264-3.739-0.264c-1.849,0-3.036,0.264-4.752,0.264c-0.308,0-0.88-0.176-0.88-0.528
	c0-0.439,0.572-0.615,1.056-0.703c1.54-0.309,2.903-0.792,2.903-2.376V14.872c0-1.76-0.703-2.772-2.551-3.08
	c-0.528-0.088-1.057-0.396-1.057-0.836c0-0.352,0.572-0.528,0.88-0.528c1.716,0,2.816,0.22,4.4,0.22c1.54,0,2.2-0.176,3.915-0.176
	c0.309,0,0.881,0.176,0.881,0.528c0,0.44-0.528,0.748-1.057,0.836c-1.275,0.176-2.111,1.364-2.111,3.08v3.96
	c0,0.396,0.088,0.616,0.308,0.616c0.396,0,1.452-0.88,2.464-1.672c2.024-1.584,3.432-2.86,5.016-4.62
	c0.484-0.572-0.176-0.968-0.879-1.32c-0.528-0.264-0.881-0.308-0.881-0.748c0-0.352,0.572-0.528,0.881-0.528
	c1.716,0,2.463,0.044,4.047,0.044c1.541,0,2.861-0.308,3.345-0.308c0.308,0,0.88,0.132,0.88,0.484c0,0.44-0.527,0.792-1.057,0.88
	c-1.848,0.308-2.463,0.748-3.959,1.76c-1.584,1.056-4.708,3.388-6.381,5.06c-0.219,0.22-0.088,0.528,0.133,0.792l5.808,6.38
	c1.276,1.452,3.257,3.212,5.412,3.564C219.289,29.348,219.861,29.524,219.861,29.963z"/>
<path fill="#5A423E" d="M225.098,2.024c0-1.188,1.144-2.024,2.42-2.024c2.111,0,3.651,1.804,3.651,4.268
	c0,4.444-4.004,7.26-6.247,7.348h-0.089c-0.528,0-0.792-0.22-0.792-0.484c0-0.22,0.221-0.44,0.616-0.528
	c1.892-0.396,4.224-1.716,4.224-4.796c0-0.704-0.748-1.848-1.716-1.936C225.889,3.74,225.098,2.992,225.098,2.024z"/>
<path fill="#5A423E" d="M244.722,26.4c0-1.276-0.572-2.376-2.024-3.3l-3.432-2.2c-2.2-1.408-3.652-3.08-3.652-5.5
	c0-3.388,3.564-5.192,6.952-5.192c2.112,0,3.52,0.396,4.18,0.484c0.309,0.044,0.528,0.352,0.572,0.616
	c0.22,1.056,0.264,2.464,0.308,3.564c0,0.264-0.22,0.88-0.571,0.88c-0.353,0-0.748-0.44-0.836-0.88
	c-0.792-2.772-2.948-3.564-4.049-3.564c-2.067,0-3.476,1.364-3.476,3.036c0,1.936,1.012,2.596,2.684,3.608l3.74,2.288
	c1.893,1.188,3.124,2.904,3.124,5.06c0,2.42-2.815,5.676-7.788,5.676c-2.376,0-3.52-0.704-4.62-0.924
	c-0.483-0.089-0.396-0.221-0.483-0.353c-0.352-0.704-0.704-3.08-0.748-4.18c0-0.264-0.088-1.012,0.439-1.012
	c0.528,0,0.66,0.748,0.836,1.1c0.704,1.276,2.156,4.355,4.885,4.355C243.489,29.963,244.722,28.248,244.722,26.4z"/>
<path fill="#5A423E" d="M0,55.46C0,45.3,7.88,38.54,17.32,38.54c3.24,0,5.32,1.359,5.72,1.359c0.48,0,1.12-0.64,1.72-0.64
	c0.48,0,0.44,0.439,0.28,0.64c-0.88,1.2-2.32,3.88-2.68,5.68c-0.08,0.4-0.44,0.801-0.72,0.801c-0.48,0-0.68-0.561-0.6-1.04
	c0.24-1.2,0.48-2.88-0.36-4c-0.68-0.92-2.2-1.4-3.76-1.4c-7.72,0-13.56,7.84-13.56,16c0,4.72,4.56,8.2,8.88,8.2
	c2.52,0,4.44-2.12,6-4.64c0.24-0.4,0.48-0.721,0.68-0.721c0.24,0,0.28,0.32,0.28,0.761c0,0.92-2.12,5.8-2.56,5.88
	c-0.4,0.08-0.8-0.801-1.6-0.801c-0.8,0-1.48,1-3.52,1C5.52,65.619,0,61.46,0,55.46z"/>
<path fill="#5A423E" d="M31.839,60.26c0.2,0,0.2,0.2,0.2,0.52c0,2.4-5.16,4.84-6.56,4.84c-1.28,0-1.76-0.64-1.76-1.399
	c0-0.68,0.16-1.24,0.44-2.2l5.8-19.32c0.24-0.76,0.56-1.92,0.56-2.6c0-0.88-2-0.96-2-1.44c0-0.199,0.08-0.359,0.24-0.439
	c1.2-0.601,3.92-1.44,4.56-1.44c0.24,0,0.68,0,0.68,0.4c0,0.439-0.04,0.56-0.16,0.92l-6.88,23.52c-0.12,0.44-0.2,0.841-0.2,1.16
	c0,0.4,0.12,0.641,0.4,0.641c1.28,0,3.48-1.92,3.88-2.32C31.359,60.779,31.639,60.26,31.839,60.26z"/>
<path fill="#5A423E" d="M42.559,63.859c0-1.399,1.08-3.68,1.68-4.92c0.36-0.72,0.16-0.88-0.08-0.6
	c-4.92,5.479-7.36,7.279-10.08,7.279c-0.68,0-1.72-0.72-1.72-1.399c0-4.36,5.44-10.561,9.68-13.641c1.12-0.8,3-1.76,3.56-1.76
	c0.4,0,1.04,0.32,1.32,0.76c0.2,0.32,0.36,0.2,0.48-0.039c0.44-1.04,0.68-1.521,1.08-1.521c0.68,0,1.36,0.4,1.36,0.8
	c0,0.2-0.12,0.561-0.28,1l-4.12,11.36c-0.36,1.04,0.08,1.92,0.76,1.92c0.4,0,2.08-1,2.56-1.56c0.12-0.16,0.96-0.921,0.96-0.08
	c0,0.119-0.28,0.64-0.4,0.8c-0.84,1.28-3.24,3.359-5.52,3.359C43.039,65.619,42.559,64.739,42.559,63.859z M35.52,61.979
	c0,1.08,0.16,1.24,0.92,1.24c2.84,0,10.12-9.4,10.12-11c0-0.72-0.92-1.28-1.6-1.28C42.399,50.939,35.52,58.819,35.52,61.979z"/>
<path fill="#5A423E" d="M61.599,49.979c0,0.48-0.64,1.68-1.12,1.68c-0.6,0-0.92-1.319-2.36-1.319c-0.88,0-1.6,0.8-1.6,1.96
	c0,0.68,0.68,2.6,1.32,3.68s1.2,2.96,1.2,4.16c0,3.16-4.24,5.479-7.44,5.479c-1.36,0-2.16-0.96-2.16-1.76c0-0.6,0.72-1.84,1.12-1.84
	c0.64,0,1.36,1.68,3.64,1.68c1.36,0,2.24-1.12,2.28-2.399c0.04-1.521-0.4-2.8-0.96-3.84c-0.76-1.4-1.28-2.601-1.28-3.4
	c0-3.2,3.84-5.56,5.32-5.56C60.799,48.5,61.599,49.54,61.599,49.979z"/>
<path fill="#5A423E" d="M72.638,49.979c0,0.48-0.64,1.68-1.12,1.68c-0.6,0-0.92-1.319-2.36-1.319c-0.88,0-1.6,0.8-1.6,1.96
	c0,0.68,0.68,2.6,1.32,3.68s1.2,2.96,1.2,4.16c0,3.16-4.24,5.479-7.44,5.479c-1.36,0-2.16-0.96-2.16-1.76c0-0.6,0.72-1.84,1.12-1.84
	c0.64,0,1.36,1.68,3.64,1.68c1.36,0,2.24-1.12,2.28-2.399c0.04-1.521-0.4-2.8-0.96-3.84c-0.76-1.4-1.28-2.601-1.28-3.4
	c0-3.2,3.84-5.56,5.32-5.56C71.838,48.5,72.638,49.54,72.638,49.979z"/>
<path fill="#5A423E" d="M77.237,54.26c0.32-0.92,0.52-1.92,0-1.92c-0.44,0-1.48,0.359-2.68,0.92c-0.16,0.08-0.6-0.04-0.6-0.2
	c0-0.2,0.04-0.36,0.36-0.6c2.64-1.881,4.08-2.761,6.52-4.12c0.24-0.12,0.76-0.28,0.76,0.16c0,0.56-0.16,1.079-0.4,1.76l-4.12,11.359
	c-0.16,0.44-0.28,0.841-0.28,1.16c0,0.4,0.2,0.641,0.48,0.641c1.28,0,4.08-2.681,4.48-3.08c0.04-0.04,0.08-0.08,0.16-0.08
	c0.12,0,0.24,0.08,0.24,0.2c0,3.08-5.16,5.159-6.56,5.159c-1.28,0-1.72-0.64-1.72-1.399c0-0.92,0.12-1.28,0.48-2.2L77.237,54.26z
	 M83.677,42.26c0,1.2-1,2.28-2.2,2.28c-0.8,0-1.4-0.761-1.4-1.561c0-1.28,0.96-2.439,2.24-2.439
	C83.157,40.54,83.677,41.42,83.677,42.26z"/>
<path fill="#5A423E" d="M95.557,51.739c-0.92,0-0.68-1.88-2.6-1.88c-2.56,0-5.52,6.88-5.52,11.28c0,1.28,0.36,2.88,1.64,2.88
	c1.92,0,2.96-1.2,4.08-2.52c0.24-0.32,0.48-0.36,0.68-0.36c0.24,0,0.16,0.32,0.16,0.56c0,0.48-2.4,3.96-6.24,3.96
	c-1.56,0-3.24-0.92-3.2-3.96c0-4.8,3.2-13.199,10-13.199c1.52,0,2.2,1.159,2.2,1.56C96.757,50.579,96.117,51.739,95.557,51.739z"/>
<path fill="#5A423E" d="M106.356,63.859c0-1.399,1.08-3.68,1.68-4.92c0.36-0.72,0.16-0.88-0.08-0.6
	c-4.92,5.479-7.36,7.279-10.08,7.279c-0.68,0-1.72-0.72-1.72-1.399c0-4.36,5.44-10.561,9.68-13.641c1.12-0.8,3-1.76,3.56-1.76
	c0.4,0,1.04,0.32,1.32,0.76c0.2,0.32,0.36,0.2,0.48-0.039c0.44-1.04,0.68-1.521,1.08-1.521c0.68,0,1.36,0.4,1.36,0.8
	c0,0.2-0.12,0.561-0.28,1l-4.12,11.36c-0.36,1.04,0.08,1.92,0.76,1.92c0.4,0,2.08-1,2.56-1.56c0.12-0.16,0.96-0.921,0.96-0.08
	c0,0.119-0.28,0.64-0.4,0.8c-0.84,1.28-3.24,3.359-5.52,3.359C106.836,65.619,106.356,64.739,106.356,63.859z M99.317,61.979
	c0,1.08,0.16,1.24,0.92,1.24c2.84,0,10.12-9.4,10.12-11c0-0.72-0.92-1.28-1.6-1.28C106.197,50.939,99.317,58.819,99.317,61.979z"/>
<path fill="#5A423E" d="M123.756,60.26c0.2,0,0.2,0.2,0.2,0.52c0,2.4-5.16,4.84-6.56,4.84c-1.28,0-1.76-0.64-1.76-1.399
	c0-0.68,0.16-1.24,0.44-2.2l5.8-19.32c0.24-0.76,0.56-1.92,0.56-2.6c0-0.88-2-0.96-2-1.44c0-0.199,0.08-0.359,0.24-0.439
	c1.2-0.601,3.92-1.44,4.56-1.44c0.24,0,0.68,0,0.68,0.4c0,0.439-0.04,0.56-0.16,0.92l-6.88,23.52c-0.12,0.44-0.2,0.841-0.2,1.16
	c0,0.4,0.12,0.641,0.4,0.641c1.28,0,3.48-1.92,3.88-2.32C123.276,60.779,123.556,60.26,123.756,60.26z"/>
<path fill="#5A423E" d="M156.477,56.579l13.8-14.079c2.08-2.16,4.159-4.48,5.521-4.48c0.719,0,0.6,0.8,0.359,1.56l-6.2,20.36
	c-0.72,2.44,0,4.08,2.28,4.24c0.8,0.04,1.561,0.32,1.439,0.68c-0.08,0.32-1.039,0.4-1.68,0.4c-1.04,0-4.359-0.24-6.04-0.24
	c-1.44,0-4.36,0.04-5.239,0.04c-0.641,0-1.48-0.12-1.4-0.44c0.12-0.359,1.16-0.64,1.92-0.68c3.12-0.24,4.16-1.08,4.88-3.36
	l2.319-5.92c0.16-0.439-0.359-0.76-1.119-0.72l-4.88,0.32c-0.2,0-0.921,0.28-1.4,0.72l-6.56,6.24c-3.6,3.399-6.68,5.12-11.64,5.12
	c-4.72,0-9.12-3.16-9.12-7.88c0-1.24,1.12-2.801,2.48-2.801c1.04,0,1.72,1,1.72,1.96c0,1.921-1.76,1.841-1.08,3.16
	c1.04,2,3.96,3.32,6.96,3.32C148.596,64.1,150.477,62.699,156.477,56.579z M163.396,51.619c-0.48,0.48-0.801,0.96,0.64,0.881
	l4.24-0.32c0.56-0.04,0.88-0.28,1.2-1.12l2.16-5.84c0.359-1.08,0.16-1.72-0.08-1.72c-0.2,0-0.801,0.279-1.76,1.319L163.396,51.619z"
	/>
<path fill="#5A423E" d="M189.036,51.739c-0.921,0-0.681-1.88-2.601-1.88c-2.56,0-5.52,6.88-5.52,11.28c0,1.28,0.359,2.88,1.641,2.88
	c1.92,0,2.959-1.2,4.079-2.52c0.24-0.32,0.479-0.36,0.681-0.36c0.24,0,0.16,0.32,0.16,0.56c0,0.48-2.4,3.96-6.24,3.96
	c-1.561,0-3.24-0.92-3.2-3.96c0-4.8,3.2-13.199,10-13.199c1.521,0,2.2,1.159,2.2,1.56C190.236,50.579,189.596,51.739,189.036,51.739
	z"/>
<path fill="#5A423E" d="M199.836,63.859c0-1.399,1.08-3.68,1.68-4.92c0.359-0.72,0.16-0.88-0.08-0.6
	c-4.92,5.479-7.359,7.279-10.08,7.279c-0.68,0-1.72-0.72-1.72-1.399c0-4.36,5.44-10.561,9.68-13.641c1.12-0.8,3-1.76,3.56-1.76
	c0.4,0,1.041,0.32,1.32,0.76c0.2,0.32,0.36,0.2,0.48-0.039c0.439-1.04,0.68-1.521,1.08-1.521c0.68,0,1.359,0.4,1.359,0.8
	c0,0.2-0.119,0.561-0.279,1l-4.12,11.36c-0.36,1.04,0.08,1.92,0.76,1.92c0.399,0,2.08-1,2.56-1.56
	c0.121-0.16,0.961-0.921,0.961-0.08c0,0.119-0.28,0.64-0.4,0.8c-0.84,1.28-3.24,3.359-5.52,3.359
	C200.315,65.619,199.836,64.739,199.836,63.859z M192.796,61.979c0,1.08,0.159,1.24,0.92,1.24c2.84,0,10.12-9.4,10.12-11
	c0-0.72-0.92-1.28-1.6-1.28C199.676,50.939,192.796,58.819,192.796,61.979z"/>
<path fill="#5A423E" d="M222.915,63.06c1.28,0,3.841-2.32,4.24-2.72c0.04-0.04,0.08-0.04,0.12-0.04c0.16,0,0.359,0.16,0.359,0.359
	c0,0.2-0.119,0.44-0.199,0.561c-2.08,2.52-4,4.399-6.521,4.399c-0.8,0-1.04-1.119-1.04-2c0-1.64,0.24-2.88,0.561-4
	c0.119-0.439-0.08-0.6-0.24-0.399c-2.721,3.52-6.08,6.399-9.641,6.399c-1.239,0-2.399-1.04-2.399-2.439
	c0-3.36,2.521-8.12,5.88-11.36c2.16-2.12,4.84-3.56,6.801-3.56c0.52,0,1.319,0.439,1.639,1.04c0.24,0.479,0.44,0.399,0.561,0.08
	l2.84-8.761c0.721-2.239-1.8-2-1.8-2.56c0-0.6,0.76-0.64,1.36-0.72c0.72-0.12,3.16-0.48,3.56-0.48c0.28,0,0.24,0.681,0.12,1.12
	l-6.6,22.8C222.195,61.859,222.436,63.06,222.915,63.06z M211.955,64.34c2.12,0,5.881-3.561,7.96-6.28
	c1.44-1.88,2.28-4.24,2.28-6.48c0-1.039-0.721-2.079-1.76-2.079c-2.48,0-9.521,8.52-9.48,13.119
	C210.955,63.699,211.195,64.34,211.955,64.34z"/>
<path fill="#5A423E" d="M229.314,61.14c0-4.8,4.08-12.64,10.36-12.64c2.16,0,2.96,0.88,2.96,2.52c0,3.2-6.359,5.36-9.16,5.36
	c-0.32,0-0.439,0.08-0.6,0.399c-0.561,1.2-0.68,2.12-0.68,3.8c0,2,0.64,3.08,2,3.08c1.92,0,3.52-1.479,4.319-2.52
	c0.24-0.32,0.521-0.44,0.72-0.44c0.24,0,0.4,0.16,0.4,0.4c0,0.08,0,0.2-0.08,0.32c-1.6,2.6-4.04,4.239-6.84,4.239
	C231.154,65.659,229.314,64.18,229.314,61.14z M233.595,54.979c0,0.24,0.08,0.24,0.28,0.24c1.199,0,6.32-1.08,6.32-4.28
	c0-0.72-0.32-1.28-1.121-1.28C236.875,49.659,233.595,53.779,233.595,54.979z"/>
<path fill="#5A423E" d="M257.595,50.18c-0.88-0.04-2.36,0.84-4.12,3c-1.24,1.52-4.12,5.84-5.721,8.76c-1.399,2.561-2,3.8-2.64,3.8
	c-0.399,0-0.68-0.88-0.68-1.359c0-0.24,0.319-1.16,0.88-2.681l3.48-9.12c0.439-1.159,0.6-1.76,0.08-1.76
	c-0.801,0-1.601,0.16-2.881,1.84c-0.199,0.24-0.52,0.24-0.6-0.159c-0.04-0.48,0.32-1.561,0.68-2c0.881-1.12,1.92-1.96,3.721-2
	c1.08,0,2.16,0.479,1.52,2.159l-2.16,5.92c-0.16,0.4,0.2,0.44,0.359,0.16c3.24-5.6,6.641-8.239,9.24-8.239
	c1.561,0,2.761,1.359,1.32,5.279l-1.04,2.8c-0.16,0.4,0.2,0.44,0.36,0.16c3.24-5.6,6.64-8.239,9.24-8.239
	c1.56,0,2.84,1.399,1.319,5.279l-3,7.84c-0.439,1.04-0.279,1.44,0.2,1.44c1.28,0,3.84-2.32,4.24-2.72c0.04-0.04,0.08-0.04,0.12-0.04
	c0.16,0,0.319,0.16,0.319,0.359c0,0.2-0.08,0.44-0.159,0.561c-2.08,2.52-4.36,4.399-6.881,4.399c-0.8,0-1.399-1.04-1.04-2l4.2-10.92
	c0.88-2.319,0.16-2.479-0.479-2.52c-0.88-0.04-2.36,0.84-4.12,3c-1.24,1.52-4.12,5.84-5.72,8.76c-1.4,2.561-2.521,3.8-3.16,3.8
	c-0.4,0-0.68-0.88-0.68-1.359c0-0.24,0.319-1.16,0.879-2.681l3.4-9C258.954,50.38,258.234,50.22,257.595,50.18z"/>
<path fill="#5A423E" d="M275.354,53.46c-0.079,0.279-0.439,1.159-0.76,1.159c-0.2,0-0.359-0.52-0.359-1.119c0-2.44,2.319-5,4.119-5
	c0.801,0,2.08,0.68,2.681,2.64c0.72,2.32,1.319,5.439,1.08,10.76c-0.04,0.96,0.239,0.8,0.6,0.12c1.76-3.36,3.44-7.8,3.44-13
	c0-0.52,0.319-0.88,0.76-0.88c0.399,0,1.479,0.88,1.479,1.96c0,4.96-4,12.84-9.92,20.16c-2.8,3.479-5.88,6.28-8.08,6.28
	c-0.8,0-1.8-0.561-1.8-1.681c0-0.88,1-2,1.681-2c0.68,0,0.88,1.28,2.319,1.28c0.84,0,2.4-1.08,3.36-2.44
	c2.08-2.92,3.92-7.12,3.92-11.279c0-7.4-1.48-9.561-2.28-9.561S275.634,52.5,275.354,53.46z"/>
</svg>
