<?xml version="1.0" encoding="utf-8"?>
<!-- Generator: Adobe Illustrator 12.0.0, SVG Export Plug-In  -->
<!DOCTYPE svg PUBLIC "-//W3C//DTD SVG 1.1//EN" "http://www.w3.org/Graphics/SVG/1.1/DTD/svg11.dtd" [
	<!ENTITY ns_flows "http://ns.adobe.com/Flows/1.0/">
	<!ENTITY ns_svg "http://www.w3.org/2000/svg">
	<!ENTITY ns_xlink "http://www.w3.org/1999/xlink">
]>
<svg  version="1.1" xmlns="&ns_svg;" xmlns:xlink="&ns_xlink;" xmlns:a="http://ns.adobe.com/AdobeSVGViewerExtensions/3.0/"
	 width="14" height="9" viewBox="-0.543 -0.972 14 9" enable-background="new -0.543 -0.972 14 9" xml:space="preserve">
<defs>
</defs>
<path fill="#7A605B" d="M1.89,7.112c-0.518,0-0.826-0.364-1.106-0.798C0.686,6.16,0.504,6.258,0.308,6.216
	C0.112,6.174,0,6.006,0,5.796C0,4.9,0.714,4.018,1.204,3.836C1.4,3.766,1.54,3.71,1.47,3.626c-0.126-0.14-0.126-0.224-0.126-0.42
	c0-0.532,1.218-1.008,1.904-1.008c0.224,0,0.462,0.014,0.686,0.042V2.184c0-0.588-0.504-1.232-0.882-1.232
	c-0.462,0-0.392,0.56-1.036,0.56c-0.574,0-1.036-0.49-1.036-1.064C0.98,0.196,1.176,0,1.428,0s0.238,0.462,0.448,0.462
	S2.114,0.028,2.38,0.028c1.162,0,2.072,0.98,2.072,2.072c0,0.07-0.014,0.154-0.014,0.224c0.574,0.126,1.008,0.434,1.302,0.7
	c0.07,0.07,0.21,0.014,0.14-0.028c-0.196-0.14-0.462-0.504-0.462-0.854c0-0.728,0.574-1.274,1.302-1.274
	c2.044,0,2.394,2.772,4.004,2.772c0.672,0,1.4-0.308,1.4-0.98c0-0.336-0.084-0.546-0.308-0.784c-0.112-0.126-0.266,0-0.434,0
	c-0.252,0-0.392-0.252-0.392-0.504c0-0.392,0.378-0.616,0.77-0.616c0.686,0,0.98,0.924,0.98,1.652c0,2.408-3.22,3.92-5.46,3.92
	c-1.134,0-2.492-0.658-2.492-1.876c0-0.49,0.322-0.77,0.756-0.98c0.14-0.07,0.14-0.084,0-0.168c-0.35-0.196-0.728-0.35-1.176-0.42
	C4.158,3.78,3.626,4.606,2.912,4.606c-0.448,0-0.714-0.238-1.05-0.238c-0.476,0-0.77,0.476-0.77,0.952
	c0,0.518,0.294,1.092,0.728,1.092c0.294,0,0.378-0.308,0.672-0.308c0.168,0,0.252,0.196,0.252,0.364
	C2.744,6.888,2.338,7.112,1.89,7.112z M3.556,2.828c-0.56,0-1.428,0.196-1.428,0.588c0,0.308,0.224,0.588,0.532,0.588
	c0.462,0,0.924-0.574,1.148-1.176H3.556z"/>
</svg>
