<?xml version="1.0" encoding="utf-8"?>
<!-- Generator: Adobe Illustrator 12.0.0, SVG Export Plug-In  -->
<!DOCTYPE svg PUBLIC "-//W3C//DTD SVG 1.1//EN" "http://www.w3.org/Graphics/SVG/1.1/DTD/svg11.dtd" [
	<!ENTITY ns_flows "http://ns.adobe.com/Flows/1.0/">
	<!ENTITY ns_svg "http://www.w3.org/2000/svg">
	<!ENTITY ns_xlink "http://www.w3.org/1999/xlink">
]>
<svg  version="1.1" xmlns="&ns_svg;" xmlns:xlink="&ns_xlink;" xmlns:a="http://ns.adobe.com/AdobeSVGViewerExtensions/3.0/"
	 width="48" height="70" viewBox="-0.325 -0.603 48 70" enable-background="new -0.325 -0.603 48 70" xml:space="preserve">
<defs>
</defs>
<path fill="#D9BBBB" d="M27.406,19.667c-6.887,0-13.987-2.272-16.259-9.301c-0.142-0.426-0.71-2.84-0.852-2.84
	c-1.065,0-4.26,4.899-5.183,7.029c-0.639,1.491,0,3.763-2.059,3.763C2.13,18.318,0,17.75,0,15.691c0-4.118,7.881-12.78,16.045-12.78
	c12.639,0,14.769,11.999,14.981,13.206c0,0,0.284,1.349,0.354,1.349c0.994,0,13.562-2.556,13.562-8.591
	c0-1.562-0.994-2.769-1.775-2.769c-0.497,0-2.059,1.704-2.414,2.059c-0.497,0.213-1.064,0.497-1.846,0.497
	c-2.485,0-2.84-2.982-2.84-3.905C36.068,3.337,36.991,0,41.25,0c3.692,0,6.035,3.621,6.035,7.526c0,6.106-5.964,9.372-13.064,11.289
	c-0.426,0.142-2.697,0.355-2.697,0.568c0,0.355,0.213,2.769,0.567,2.84c8.875,0.781,13.632,5.396,13.632,11.005
	c-0.07,4.402-2.271,7.171-7.028,8.094c-0.143,0-0.213,0.071-0.213,0.142c0,0.071,0,0.071,0.07,0.142
	c1.207,2.414,1.491,5.822,1.491,8.236c0,13.632-4.757,14.697-8.52,15.478c-0.071,0.071-0.143,0.071-0.143,0.142
	c0,0.071,0.284,0.994,0.284,1.136c0,1.207-0.354,1.917-1.064,1.917c-0.64,0-0.994-0.781-0.994-1.917
	c0-0.142,0.284-1.136,0.284-1.207c0,0,0-0.071-0.071-0.071c-5.112-0.497-8.591-2.982-8.591-15.478c0-2.414,0.213-5.68,1.42-8.094
	c0.071-0.071,0.071-0.142,0.071-0.213c0-0.071,0-0.213-0.143-0.213c-4.828-0.852-7.029-3.621-7.029-8.022
	c0-4.97,3.905-10.437,13.562-11.005c0.426,0,0.426-0.923,0.426-2.627c0-0.071-0.071-0.142-0.071-0.142L27.406,19.667z M17.821,4.828
	c-1.42,0-5.538,1.065-5.538,1.775c0,1.917,1.136,11.218,14.626,11.218c0.354,0,2.556,0,2.556-0.355
	C28.4,10.153,23.785,4.828,17.821,4.828z M23.998,39.476c1.563-2.343,3.621-3.976,6.674-3.976c2.13,0,3.479,0.994,4.544,1.704
	c0.426,0.355,1.917,2.485,2.485,2.485c1.774,0,3.976-2.343,3.976-3.905c0-3.337-6.461-4.97-11.075-4.97
	c-4.402,0-11.005,1.562-11.005,4.97c0,1.349,2.059,3.621,3.834,3.905C23.643,39.759,23.856,39.688,23.998,39.476z"/>
</svg>
