<?xml version="1.0" encoding="utf-8"?>
<!-- Generator: Adobe Illustrator 12.0.0, SVG Export Plug-In  -->
<!DOCTYPE svg PUBLIC "-//W3C//DTD SVG 1.1//EN" "http://www.w3.org/Graphics/SVG/1.1/DTD/svg11.dtd" [
	<!ENTITY ns_flows "http://ns.adobe.com/Flows/1.0/">
	<!ENTITY ns_svg "http://www.w3.org/2000/svg">
	<!ENTITY ns_xlink "http://www.w3.org/1999/xlink">
]>
<svg  version="1.1" xmlns="&ns_svg;" xmlns:xlink="&ns_xlink;" xmlns:a="http://ns.adobe.com/AdobeSVGViewerExtensions/3.0/"
	 width="121" height="108" viewBox="-0.725 -0.456 121 108" enable-background="new -0.725 -0.456 121 108" xml:space="preserve" style="fill:#f7f2e2;">
<defs>
</defs>
<path d="M30.08,44.341c-0.16-12.96-5.12-23.36-12.64-23.36c-2.08,0-4,1.44-4.64,4.96c-0.16,0.64-0.48,0.96-0.8,1.28
	c-0.64,0.32-1.92,0.8-3.04,0.8c-4,0-6.88-2.72-6.88-6.72c0-3.84,3.52-8.16,9.6-8.16c14.88,0,24.48,16.64,25.12,30.56h0.32
	c7.04,0,14.4,2.08,19.68,5.76l0.32-0.32c-5.76-4.8-9.92-11.68-9.92-18.08c0-6.88,6.4-12.16,15.04-12.16c2.08,0,7.36,0.48,9.6,0.48
	c4.48,0,11.68-2.72,11.68-10.24c0-2.4-1.12-4.96-4.16-7.36c-1.44-1.12-0.32-1.92,0.8-1.76c7.68,1.12,14.88,8,14.88,17.76
	c0,12.64-9.92,16.48-23.68,23.2c-4.96,2.4-5.92,5.76-5.92,8.16c0,1.28,0.32,1.92,0.64,2.56c4.64-5.44,10.72-7.36,15.68-7.36
	c7.04,0,13.28,5.12,16.16,7.68c5.44,4.96,8.48,5.6,10.4,5.6c5.6,0,7.84-3.04,9.44-5.92c0.64-1.12,1.6-1.12,1.92-0.16
	c0.16,0.48,0.32,1.28,0.32,3.04c0,9.28-8.64,21.44-21.28,21.44c-6.72,0-12.32-1.76-21.92-11.2c-5.44-5.12-8.48-8.16-12.16-8.16
	c-0.96,0.64-1.6,2.08-1.6,3.68c0,4.16,3.36,8.48,7.68,14.88c5.76,8.32,8,11.68,8,17.12c0,7.04-6.88,14.72-14.08,14.72
	c-0.48,0-1.12,0-2.72-0.32c-1.44-0.32-1.44-1.12-0.32-1.92c1.76-1.12,4.48-3.36,4.48-6.56c0-4.16-1.92-5.6-11.04-11.2
	c-4.96-3.04-12-8.48-12-17.28c0-6.72,5.92-13.12,13.12-16.64c-4-2.08-10.24-3.84-17.44-3.84c-0.8,0-1.6,0-2.08,0.16
	c-1.44,18.08-13.28,28.8-27.84,31.52c0.48,7.52,4.16,12.16,6.4,13.44c1.76,0.96,4,0.8,5.44,0.8c0.48,0.32,0.48,1.28,0.32,1.76
	c-2.88,2.72-7.04,5.44-10.88,5.44c-1.44,0-2.88-0.96-4-2.4C4.32,97.781,0,90.261,0,79.061C0,64.021,9.6,47.541,30.08,44.341z
	 M24.16,66.741c3.36-4.8,5.12-10.56,5.76-16.32c-6.4,1.28-11.68,4.48-15.36,8.96c-3.68,4.64-5.76,10.56-5.92,17.92
	C15.84,75.221,20.8,71.38,24.16,66.741z"/>
</svg>
