<?xml version="1.0" encoding="utf-8"?>
<!-- Generator: Adobe Illustrator 12.0.0, SVG Export Plug-In  -->
<!DOCTYPE svg PUBLIC "-//W3C//DTD SVG 1.1//EN" "http://www.w3.org/Graphics/SVG/1.1/DTD/svg11.dtd" [
	<!ENTITY ns_flows "http://ns.adobe.com/Flows/1.0/">
	<!ENTITY ns_svg "http://www.w3.org/2000/svg">
	<!ENTITY ns_xlink "http://www.w3.org/1999/xlink">
]>
<svg  version="1.1" xmlns="&ns_svg;" xmlns:xlink="&ns_xlink;" xmlns:a="http://ns.adobe.com/AdobeSVGViewerExtensions/3.0/"
	 width="203" height="211" viewBox="-2.75 -1.483 203 211" enable-background="new -2.75 -1.483 203 211" xml:space="preserve">
<defs>
</defs>
<circle fill="none" stroke="#7F4098" stroke-width="4" stroke-miterlimit="10" cx="105.25" cy="114.183" r="92"/>
<path fill="none" stroke="#7F4098" stroke-width="4" stroke-miterlimit="10" d="M48.533,22.833c0,0-15.301,17.12-15.349,18.453
	c-0.049,1.332,18.934-16.154,18.934-16.154"/>
<path fill="none" stroke="#7F4098" stroke-width="4" stroke-miterlimit="10" d="M47.769,28.844c2.547-2.873,4.467-5.079,4.467-5.079
	S50.316,25.971,47.769,28.844c11.411-3.847,23.043-10.108,21.259-13.019c-3.042-4.965-22.911-2.47-31.825,3.539
	c-8.914,6.008-16.917-2.758-16.917-2.758l5.91-10.465L10.797,24.285c0.897-0.57,2.751-1.598,6.461-3.443
	c5.012-2.495,7.517,8.275,11.475,10.514c2.353,1.331,7.655,0.721,13.671-0.885c3.095-4.497,6.015-8.596,6.015-8.596
	s-2.92,4.099-6.015,8.596"/>
<path fill="none" stroke="#7F4098" stroke-width="4" stroke-miterlimit="10" d="M10.211,24.977l0.587-0.691
	C9.496,25.111,10.211,24.977,10.211,24.977z"/>
<path fill="none" stroke="#7F4098" stroke-width="4" stroke-miterlimit="10" d="M51.435,15.505c0,0,13.883-13.908,16.036-13.496
	c2.153,0.412-10.157,13.245-10.157,13.245"/>
<path fill="none" stroke="#7F4098" stroke-width="4" stroke-miterlimit="10" d="M61.073,17.119c0,0-4.34-2.096-4.698,5.622
	C56.211,26.281,61.073,17.119,61.073,17.119z"/>
<path fill="none" stroke="#7F4098" stroke-width="4" stroke-miterlimit="10" d="M62.754,195.798c0,0-5.829-17.281,0-19.281
	s16.829-6.333,15.163-14c-1.667-7.667,5-1.333,4.666,6.333c-0.333,7.667-1.666,16.334,3.334,15c5-1.333,5.333-6.666,10.333-4
	c5,2.667,8.333,5.667,9,3c0.667-2.666,2.333-12.333,4.667-11.666c2.333,0.666,3.333-4.667,6-4c2.666,0.666,6.666,0.333,7,4
	c0.333,3.666,0.666,4.333,1.666,4c1-0.334,1.667-2.334,2.667-1.667s8.333-6.333,8.333,1.333c0,7.667-7,8.667,0,7.667
	s12.334-2.667,15-0.667c2.667,2,2.171-0.679,7.667,1.334l5.497,2.011"/>
<path fill="none" stroke="#7F4098" stroke-width="4" stroke-miterlimit="10" d="M50.583,41.358c0,0,7.646,12.492,10.49,8.159
	c2.843-4.334,6.51-8.334,6.843-6.667c0.334,1.667-7.666,9-5.333,11.667c2.333,2.666,8.769,4.333,7.218-1.334
	c-1.551-5.666,5.115-4.666,4.782-1c-0.333,3.667,2,0,2.667,2c0.666,2-4,10.334-3,16.667s0.464,16,3.065,18s-7.399,0.333-9.399-3
	s0-6.667,0-6.667s-9.722-1.666-9.194,1.667c0.528,3.333-2.351,1.667-2.351,1.667l-4.253,1l-4.999,0.333
	c0,0-9.734,3.667-4.468,10.333c0,0,0.004,3.334,4.468,3.334c4.464,0,8.623-4.334,13.044-3.334c4.42,1,5.856,1.184,9.638,1.592
	c3.782,0.408-1.218,0.742,4.449,1.742c5.666,1,12-1,8,11s-5.334,5.666-5.334,5.666s-3.666,8-3.666,12s-0.231,7.334-3.449,8.668
	c-3.218,1.332-3.551,2.666-3.551,5c0,2.332-1,2.332,0,7c1,4.666-8.092-6-9.879-6c-1.788,0-4.718-14.303-4.253-19.818
	c0.465-5.516-6.399-12.516-9.467-12.516s-0.932-8.667-2.5-11.667s-7.901-10.667-10.235-9.667c-2.333,1-2.666-14.333,0-14.666
	c2.667-0.334,3.267-15.523,3.267-15.523"/>
<path fill="none" stroke="#7F4098" stroke-width="4" stroke-miterlimit="10" d="M86.916,35.522c0,0-5,16.327,0,16.661
	c5,0.333,4.333-10.994,8.333-8.331c4,2.664,5.334-1.669,4.334-5.003c-1-3.333-6.238-6.509-7.286-6.754
	C91.249,31.85,86.916,35.522,86.916,35.522z"/>
<path fill="none" stroke="#7F4098" stroke-width="4" stroke-miterlimit="10" d="M125.916,85.517c0,0-9,4.333-9,5.667
	c0,1.333,0.668,3.666,0,7.666c-0.666,4,0.668,14,10.668,11.334c10-2.667,3,7.333,4.332,9.666c1.334,2.334-0.332,11.334,5.668,16.334
	s0,4.333,0,4.333l2.666,2.333c0,0-3.334,3.334,0,3.667s8.334-0.333,12.666-7.667c4.334-7.333,1.334-9,7-9c5.668,0,0-13.134,0-13.134
	s5.334-7.532,7.334-12.199s-8.334-9-11-17.667c-2.666-8.666,8.334,4,9,6.334c0.666,2.333,7.334,11,16,9s2.666-7.644,1.334-7.489
	c-1.334,0.155-8.334,1.155-8.668-2.511c-0.332-3.667-7.666-8-6.666-6.667s4.334-2.333,12,1.667s11.242,7.268,13,5
	c1.759-2.268,2.927,2.511,2.927,2.511"/>
<path fill="none" stroke="#7F4098" stroke-width="4" stroke-miterlimit="10" d="M163.916,135.851c-1.576,1.752,3,5.666,3.334,3.666
	s2.334-9.666,4-9.666s0-6,0-6s-4,4.666-4,6.332C167.25,131.851,166.916,132.517,163.916,135.851z"/>
<path fill="none" stroke="#7F4098" stroke-width="4" stroke-miterlimit="10" d="M26.25,35.408c0,0-0.568,0.708-1.529,1.973"/>
<path fill="none" stroke="#7F4098" stroke-width="4" stroke-miterlimit="10" stroke-dasharray="4.703 4.703" d="M21.925,41.157
	C12.05,54.84-9.817,88.75,10.096,96.102"/>
<path fill="none" stroke="#7F4098" stroke-width="4" stroke-miterlimit="10" d="M12.353,96.777c0.77,0.182,1.59,0.333,2.461,0.45"/>
<path fill="none" stroke="#7F4098" stroke-width="4" stroke-miterlimit="10" stroke-dasharray="5 5" d="M74.25,16.859
	c0,0,71.938-22.843,112.336,54.304"/>
<path fill="none" stroke="#7F4098" stroke-width="4" stroke-miterlimit="10" d="M125.916,85.517c0,0-3.666-6.667-5-6.667
	c-1.332,0-0.332-3.333,5-2.666c5.334,0.666,2.003-9.452,4.502-12.726c2.498-3.274,6.498,0.607,8.166,0c1.666-0.608,6,1.615,6-1.329
	c0-2.945-10.865-0.612-12.1-3.279c-1.234-2.666,0.766-6.985,3.766-6.659c3,0.326,9.334,3.659,12.666,4.326
	c3.334,0.667,5.117,0,7.059,2c1.942,2,5.609,0,5.609,0s6.092-9.877,10.406-6.326"/>
<path fill="none" stroke="#7F4098" stroke-width="4" stroke-miterlimit="10" d="M130.418,85.517l2.832-11.333c0,0,2-2.334,7,0
	c5,2.333,7.667,6.666,7.667,6.666s4.116-6.666,8.058-5.666c3.942,1,3.391,1.963,0,4.148s-2.725,5.185-2.725,6.185s-4.666-2-5,2
	c-0.333,4-6.333,4-9,2.667c-2.666-1.334-8.998-3-8.832-1.667S130.418,85.517,130.418,85.517z"/>
</svg>
