<?xml version="1.0" encoding="utf-8"?>
<!-- Generator: Adobe Illustrator 12.0.0, SVG Export Plug-In  -->
<!DOCTYPE svg PUBLIC "-//W3C//DTD SVG 1.1//EN" "http://www.w3.org/Graphics/SVG/1.1/DTD/svg11.dtd" [
	<!ENTITY ns_flows "http://ns.adobe.com/Flows/1.0/">
	<!ENTITY ns_svg "http://www.w3.org/2000/svg">
	<!ENTITY ns_xlink "http://www.w3.org/1999/xlink">
]>
<svg  version="1.1" xmlns="&ns_svg;" xmlns:xlink="&ns_xlink;" xmlns:a="http://ns.adobe.com/AdobeSVGViewerExtensions/3.0/"
	 width="238" height="150" viewBox="-1.484 -1.152 238 150" enable-background="new -1.484 -1.152 238 150" xml:space="preserve">
<defs>
</defs>
<path fill="none" stroke="#7F4098" stroke-width="3" stroke-miterlimit="10" d="M2.182,36.181c0,0,14.667-32,48.667-34.667
	c0,0,3.333-0.666,10,7.334c6.666,8,8,4.653,8,9.993c0,5.34,19.333,4.007,19.333,4.007s-6,12,2.667,21.333c0,0,18.666-2,20.666,10
	c0,0,9.008,4.939,12.667,0c0.992-1.339,0-6,0-6l6.668-1.333c0,0-2.334,6.875,0,6.666c3.984-0.354,7.332,1.334,9.332,0
	c2-1.333-6-5.333,0-6c6-0.666,28.867,3.225,34,4.667c59.334,16.667,54.502,6.834,57.668,26.334c2.703,16.647,1.666,46.333,1,48.333
	c-0.668,2-48.523,14.367-95.334,18c-24.97,1.938-69.159,1.385-108-4.667c-12.971-2.021-19.333-4.667-19.333-4.667l-2-20.666
	c0,0-2.667-4,0-7.334c2.667-3.333,0-18.666,0-18.666s-4-2.667,0-6c4-3.334-2.667-20-2.667-20s-6-1.334-3.333-3.334
	S2.182,36.181,2.182,36.181z"/>
<path fill="none" stroke="#7F4098" stroke-width="3" stroke-miterlimit="10" d="M2.182,59.515c0,0,62.5-19,70-19
	s15.908,3.181,21.327,3.544"/>
<path fill="none" stroke="#7F4098" stroke-width="3" stroke-miterlimit="10" d="M8.182,82.848c0,0,72.167-14.521,75.667-15
	s29.166-3.5,31.666-5.5s3.883-5.861,2.122-6.194"/>
<path fill="none" stroke="#7F4098" stroke-width="3" stroke-miterlimit="10" d="M20.016,73.417l7.5-1.568c0,0-0.5-12.166-4-11.333
	S20.313,67.735,20.016,73.417z"/>
<path fill="none" stroke="#7F4098" stroke-width="3" stroke-miterlimit="10" d="M46.513,67.949l9.67-2.093
	c0,0-0.132-13.996-6.167-12.633C46.141,54.098,45.782,58.192,46.513,67.949z"/>
<path fill="none" stroke="#7F4098" stroke-width="3" stroke-miterlimit="10" d="M74.641,62.223l12.125-1.75c0,0-0.125-13-7.5-12.375
	C74.78,48.479,73.162,54.379,74.641,62.223z"/>
<polygon fill="none" stroke="#7F4098" stroke-width="3" stroke-miterlimit="10" points="12.14,38.432 12.14,39.932 15.182,39.182 
	13.849,36.432 "/>
<rect x="29.931" y="28.429" transform="matrix(-0.9572 0.2893 -0.2893 -0.9572 71.0542 50.3565)" fill="none" stroke="#7F4098" stroke-width="3" stroke-miterlimit="10" width="3.751" height="4"/>
<rect x="49.598" y="22.429" transform="matrix(-0.9572 0.2893 -0.2893 -0.9572 107.8116 32.923)" fill="none" stroke="#7F4098" stroke-width="3" stroke-miterlimit="10" width="3.751" height="4"/>
<path fill="none" stroke="#7F4098" stroke-width="3" stroke-miterlimit="10" d="M20.183,101.515c0,0,8.27-0.722,8.203-0.925
	c-0.021-0.064-0.174-12.575-4.203-12.408C22.795,88.24,20.183,92.515,20.183,101.515z"/>
<path fill="none" stroke="#7F4098" stroke-width="3" stroke-miterlimit="10" d="M46.183,98.182l12.667-1
	c0,0-0.464-17.125-6.459-16.459C46.766,81.348,45.016,86.848,46.183,98.182z"/>
<path fill="none" stroke="#7F4098" stroke-width="3" stroke-miterlimit="10" d="M77.266,96.598l16.583-1.083
	c0,0-0.218-19.146-7.667-19.763c-7.449-0.614-10.026,18.174-9.588,23.438"/>
<path fill="none" stroke="#7F4098" stroke-width="3" stroke-miterlimit="10" d="M113.969,137.931l17.797-0.666
	c0,0-0.336-25.968-10.333-26.25C115.516,110.848,113.516,120.182,113.969,137.931z"/>
<path fill="none" stroke="#7F4098" stroke-width="3" stroke-miterlimit="10" d="M78.516,137.181l15.917,0.834
	c0,0,2.694-25.251-7.653-24.251C76.432,114.764,78.135,135.098,78.516,137.181z"/>
<path fill="none" stroke="#7F4098" stroke-width="3" stroke-miterlimit="10" d="M59.183,136.515c0,0,2.396-22.354-5.952-22.198
	c-8.654,0.162-7.965,20.777-7.965,20.777L59.183,136.515z"/>
<path fill="none" stroke="#7F4098" stroke-width="3" stroke-miterlimit="10" d="M20.1,131.765l9.416,1c0,0,1.417-17-4.5-16.75
	C21.329,116.17,20.182,122.265,20.1,131.765z"/>
<path fill="none" stroke="#7F4098" stroke-width="3" stroke-miterlimit="10" d="M7.995,109.098c0,0,71.771-5.75,82.271-5.75
	s49.25-1.5,52-1.5"/>
<polyline fill="none" stroke="#7F4098" stroke-width="3" stroke-miterlimit="10" points="116.745,61.116 132.85,91.515 
	117.791,92.174 114.137,63.621 "/>
<path fill="none" stroke="#7F4098" stroke-width="3" stroke-miterlimit="10" d="M187.85,137.015c0,0-2.285-24.241,7.333-25.334
	c7.333-0.833,7.333,22.334,7.333,22.334"/>
<path fill="none" stroke="#7F4098" stroke-width="3" stroke-miterlimit="10" d="M216.104,130.063c0,0,0.402-20.629,3.902-20.629
	s5.058,19.918,5.058,19.918"/>
<polyline fill="none" stroke="#7F4098" stroke-width="3" stroke-miterlimit="10" points="117.543,63.049 164.266,63.049 
	167.148,51.305 "/>
<path fill="none" stroke="#7F4098" stroke-width="3" stroke-miterlimit="10" d="M170.651,51.849c0,0,26.864,13.999,27.364,15.749
	s8.926-3,9.838,0s0.912,5.576,0.912,5.576s6-0.938,7.75,1.243c1.75,2.182,5.334,1.766,5.334,1.766s8.536-1.563,9.667,2.499"/>
<path fill="none" stroke="#7F4098" stroke-width="3" stroke-miterlimit="10" d="M163.183,95.182l-21.334,0.25
	c0,0-0.646-24.852,10.334-25.584c10-0.667,12.083,25.5,12.083,25.5l13.5-1.75l-13.5-30.548"/>
<path fill="none" stroke="#7F4098" stroke-width="3" stroke-miterlimit="10" d="M203.516,101.348c0,0,0.164-22.441-6.5-22.833
	c-8.5-0.5-8.788,18.058-8.788,22.558l45.378,0.775"/>
<path fill="none" stroke="#7F4098" stroke-width="3" stroke-miterlimit="10" d="M215.547,101.072c0,0,0.32-18.475,3.77-18.225
	c3.45,0.25,4.449,19,4.449,19"/>
<path fill="none" stroke="#7F4098" stroke-width="3" stroke-miterlimit="10" d="M161.363,95.683c0,0-0.598,12.415,1.902,12.165
	s28.5-2.449,28.5-2.449l-0.192,8.497"/>
<line fill="none" stroke="#7F4098" stroke-width="3" stroke-miterlimit="10" x1="140.516" y1="101.848" x2="162.754" y2="141.523"/>
<path fill="none" stroke="#7F4098" stroke-width="3" stroke-miterlimit="10" d="M151.083,119.063c0,0,0.224-3.215,6.767-3.215
	c6.667,0,10.667,11.667,12.804,23.75"/>
</svg>
