<?xml version="1.0" encoding="utf-8"?>
<!-- Generator: Adobe Illustrator 12.0.0, SVG Export Plug-In  -->
<!DOCTYPE svg PUBLIC "-//W3C//DTD SVG 1.1//EN" "http://www.w3.org/Graphics/SVG/1.1/DTD/svg11.dtd" [
	<!ENTITY ns_flows "http://ns.adobe.com/Flows/1.0/">
	<!ENTITY ns_svg "http://www.w3.org/2000/svg">
	<!ENTITY ns_xlink "http://www.w3.org/1999/xlink">
]>
<svg  version="1.1" xmlns="&ns_svg;" xmlns:xlink="&ns_xlink;" xmlns:a="http://ns.adobe.com/AdobeSVGViewerExtensions/3.0/"
	 width="157" height="205" viewBox="-1.149 -1.277 157 205" enable-background="new -1.149 -1.277 157 205" xml:space="preserve">
<defs>
</defs>
<path fill="none" stroke="#7F4098" stroke-width="4" stroke-miterlimit="10" d="M24.013,11.777c0,0-11.963,7.997-9.5,35
	c0.956,10.475,0.394,4.795-0.343,13c-0.369,4.116,14.843,8,14.843,8s1.5-21,0-28s0-23,3-23S24.013,11.777,24.013,11.777z"/>
<path fill="none" stroke="#7F4098" stroke-width="4" stroke-miterlimit="10" d="M22.943,11.777c0,0,29.569-21.999,38,0
	c6.222,16.236,6.325,25.195,6.242,29.112"/>
<path fill="none" stroke="#7F4098" stroke-width="4" stroke-miterlimit="10" d="M29.85,20.098c0,0,2.7,0.902,2.683,3.791
	c-0.02,2.889,2.48-1.896,2.48-1.896v2.823c0,0,2.5-0.316,5-0.927c2.5-0.611,3-0.253,4.5-1.432c1.5-1.179,0.359-4.179,1.93-6.179
	c1.571-2,4.57,4.038,6.07,4.269s3.5-0.636,5-0.203h6.286"/>
<path fill="none" stroke="#7F4098" stroke-width="4" stroke-miterlimit="10" d="M43.513,33.277c0,0-6,2-8.332,0"/>
<path fill="none" stroke="#7F4098" stroke-width="4" stroke-miterlimit="10" d="M53.18,32.019c0,0,3.792,1.343,7.583-0.741"/>
<path fill="none" stroke="#7F4098" stroke-width="4" stroke-miterlimit="10" d="M50.847,36.61c0,0,3,3.999,2.333,6.666"/>
<path fill="none" stroke="#7F4098" stroke-width="4" stroke-miterlimit="10" d="M50.607,52.555l-5.256,1.668
	c0,0-1.583-0.092,1.173,0.365c2.156,0.357,4.909,1.524,4.823-0.476C51.228,51.365,50.274,54.638,50.607,52.555z"/>
<path fill="none" stroke="#7F4098" stroke-width="3" stroke-miterlimit="10" d="M71.43,46.527c0,0-3.5-9.333-9.333-4.5
	c-5.834,4.833-6.5,7.333-6,12.583s9.166,6.807,11.5,3.445C67.597,58.056,65.93,50.527,71.43,46.527z"/>
<path fill="none" stroke="#7F4098" stroke-width="4" stroke-miterlimit="10" d="M29.593,55.806c0,0,6.424,7.583,9.258,8.25
	c2.833,0.666,7.667,4.333,11.861,4.389c1.841,0.024,7.316-8.197,7.383-10.863"/>
<path fill="none" stroke="#7F4098" stroke-width="3" stroke-miterlimit="10" d="M71.43,46.527l21.667,13.304
	c0,0-3.5,0.363-2.5,7.696l-23-9.472"/>
<path fill="none" stroke="#7F4098" stroke-width="3" stroke-miterlimit="10" d="M90.597,67.527l12.833,4.333
	c0,0,2.334-0.833,1.334-2.166c-1-1.334-10.667-9.863-10.667-9.863"/>
<path fill="none" stroke="#7F4098" stroke-width="4" stroke-miterlimit="10" d="M68.68,59.25c0,0-1.333,4.164-5.667,4.346
	c-4.333,0.181-6.938-1.47-6.938-1.47"/>
<path fill="none" stroke="#7F4098" stroke-width="4" stroke-miterlimit="10" d="M32.283,58.187l0.249,9.591
	c0,0,11.649,2.833,12.649,4s2.897,3.667,2.897,3.667s3.341-2.667,4.556-3.667c1.213-1,5.813-6.5,5.813-6.5l-1.283-2.624"/>
<path fill="none" stroke="#7F4098" stroke-width="4" stroke-miterlimit="10" d="M48.079,75.027l-0.231,1.583
	c0,0,2.167,14.834,1.833,16.667"/>
<path fill="none" stroke="#7F4098" stroke-width="4" stroke-miterlimit="10" d="M29.013,67.777c0,0-0.832,7.833,11.334,15.333
	l3.673-10.666"/>
<path fill="none" stroke="#7F4098" stroke-width="4" stroke-miterlimit="10" d="M32.532,67.777c0,0-14.22,6.007-19.976,8.553
	c-1.447,0.64-2.359,1.062-2.376,1.114c-1,3.166-5.666,4.666-6.833,17.5c-1.167,12.833-2.333,12.833,0,13.333s4.333-1.5,8-1.167
	c3.667,0.334,6.5,0.834,8-2c1.5-2.833-1.833-5.166-0.167-9.333c1.667-4.167-0.995-11.833-1.914-12.667
	c-0.919-0.833-3.888-5.083-5.252-5.5"/>
<path fill="none" stroke="#7F4098" stroke-width="4" stroke-miterlimit="10" d="M52.633,71.777l8.047,7.333
	c0,0,5.154-9.419,1.667-12.666l-3.9-1.167"/>
<path fill="none" stroke="#7F4098" stroke-width="4" stroke-miterlimit="10" d="M62.347,66.444c0,0,9.5-3.167,15.5,4.167
	c0,0,0,6.666,3.333,8.5c0,0,2.334,9.333,1.334,11.166c-1,1.834-5.667,8.667-6.667,9.667s-0.75,0-0.75,0s1.917,23,0,25.5
	c0,0-8.417,3.5-15.25,2.166c0,0-11.172,4-23.336,1.666c-12.164-2.332-15.497-1.666-15.497-0.832c0,0.832,0.205-9.841-1.137-12.723
	c-0.649-1.394-1.387-9.47-1.387-9.47"/>
<path fill="none" stroke="#7F4098" stroke-width="3" stroke-miterlimit="10" d="M90.365,62.521v13.174c0,0,3.986-0.722,2.986-0.722"
	/>
<polyline fill="none" stroke="#7F4098" stroke-width="3" stroke-miterlimit="10" points="89.442,76.708 148.165,192.721 
	150.559,191.175 93.192,74.026 "/>
<polyline fill="none" stroke="#7F4098" stroke-width="3" stroke-miterlimit="10" points="130.496,150.438 130.496,124.027 
	136.763,124.027 136.263,159.994 "/>
<line fill="none" stroke="#7F4098" stroke-width="3" stroke-miterlimit="10" x1="129.496" y1="158.777" x2="129.496" y2="196.527"/>
<line fill="none" stroke="#7F4098" stroke-width="3" stroke-miterlimit="10" x1="135.763" y1="167.182" x2="135.763" y2="193.276"/>
<path fill="none" stroke="#7F4098" stroke-width="4" stroke-miterlimit="10" d="M73.53,126.02c0,0,11.15,48.758,11.816,57.758
	c0,0-13.333,6.75-15.333,7s-21.25,0.5-26.25,0s-14.5-1-18.5-1.75s-9-0.75-9-0.75s3.75-57.166,4.75-59.832"/>
<path fill="none" stroke="#7F4098" stroke-width="4" stroke-miterlimit="10" d="M28.766,189.506c0,0-1.998,10.891,0,11.391"/>
<path fill="none" stroke="#7F4098" stroke-width="4" stroke-miterlimit="10" d="M48.079,190.99c0,0,1.102,9.155,0,9.905"/>
<path fill="none" stroke="#7F4098" stroke-width="4" stroke-miterlimit="10" d="M57.764,191.061c0,0-0.451,7.17,0.049,9.92"/>
<path fill="none" stroke="#7F4098" stroke-width="4" stroke-miterlimit="10" d="M78.162,187.313c0,0,1.323,11.135-0.574,12.021"/>
<path fill="none" stroke="#7F4098" stroke-width="4" stroke-miterlimit="10" d="M7.263,108.358c0,0,1.75,10.918,3,13.418
	s7.228,16.649,9.613,16.825"/>
</svg>
