<?xml version="1.0" encoding="utf-8"?>
<!-- Generator: Adobe Illustrator 12.0.0, SVG Export Plug-In  -->
<!DOCTYPE svg PUBLIC "-//W3C//DTD SVG 1.1//EN" "http://www.w3.org/Graphics/SVG/1.1/DTD/svg11.dtd" [
	<!ENTITY ns_flows "http://ns.adobe.com/Flows/1.0/">
	<!ENTITY ns_svg "http://www.w3.org/2000/svg">
	<!ENTITY ns_xlink "http://www.w3.org/1999/xlink">
]>
<svg  version="1.1" xmlns="&ns_svg;" xmlns:xlink="&ns_xlink;" xmlns:a="http://ns.adobe.com/AdobeSVGViewerExtensions/3.0/"
	 width="139" height="85" viewBox="-0.093 -0.568 139 85" enable-background="new -0.093 -0.568 139 85" xml:space="preserve">
<defs>
</defs>
<path fill="none" stroke="#7F4098" stroke-width="3" stroke-miterlimit="10" d="M89.183,54.526l4,24.334c0,0-46.667,3.666-52,3.334
	c-5.333-0.334-35.667-0.625-39.333,0.021l14-79.355l63.333-1.333l8.332,43.333"/>
<path fill="none" stroke="#7F4098" stroke-width="3" stroke-miterlimit="10" d="M80.183,51.86c0,0,10-10.312,11.332-9.989
	c1.334,0.322-1.332-0.323-1.332-0.323s34-27.021,35.666-27.688s4.666,2,4,3s-29.666,30.333-32.334,30.667
	c0,0-11.332,11.333-12.332,10.833L80.183,51.86z"/>
<path fill="none" stroke="#7F4098" stroke-miterlimit="10" d="M24.849,10.526c0,0,8.667-1.333,10.333,0c1.667,1.333,5.334-1,8.667-2
	s3.667,2.136,8,2.401c4.333,0.266,8.333-1.932,11.333,0c3,1.932,4-0.22,5,0.023"/>
<path fill="none" stroke="#7F4098" stroke-miterlimit="10" d="M21.182,21.86c0,0,17.333,0.667,23,0s18.333,1,22,0
	s5.53-0.667,7.431-1.667"/>
<path fill="none" stroke="#7F4098" stroke-miterlimit="10" d="M34.516,32.86c0,0,18.333-7.667,23.333-3s10.334,2.16,10.334,0.747
	c0-1.414,7,0,7,0"/>
<path fill="none" stroke="#7F4098" stroke-miterlimit="10" d="M28.849,46.526c-0.333,2,29.333-6.979,34.667-4.655"/>
<line fill="none" stroke="#7F4098" stroke-miterlimit="10" x1="9.849" y1="58.36" x2="31.849" y2="56.86"/>
<path fill="none" stroke="#7F4098" stroke-miterlimit="10" d="M20.849,41.871c0,0,6-3.677,2.333-3.344
	c-3.666,0.333-12.666,2.917-8.333,5.625c4.333,2.709,18.667-1.688,15.333-2.822c-3.333-1.135-5.333,0.155-5.333,0.155"/>
<path fill="none" stroke="#7F4098" stroke-miterlimit="10" d="M28.846,17.86c0,0-12.997,3.667-7.664,6.667
	s15.667-4.667,13.333-4.334c-2.333,0.334-6.617-1.839-7.14,0"/>
<path fill="none" stroke="#7F4098" stroke-miterlimit="10" d="M51.182,56.86c0,0,0.761-0.381,1.704-0.938
	c0.698-0.412,1.496-0.92,2.158-1.44c2.369-1.865,3.005-3.897-8.863-2.289c-19.666,2.667,1.334,2.042,1.334,2.042h5.334"/>
<polyline fill="none" stroke="#7F4098" stroke-width="3" stroke-miterlimit="10" points="80.183,51.86 72.183,61.193 75.183,63.86 
	85.183,58.36 "/>
<path fill="none" stroke="#7F4098" stroke-width="3" stroke-miterlimit="10" d="M125.849,13.86c0,0,9.334-8.333,11-5.333
	c1.668,3-7,8.333-7,8.333"/>
<path fill="none" stroke="#7F4098" stroke-width="3" stroke-miterlimit="10" d="M128.233,18.601c0,0,3.384,2.321,0,6.623
	c-3.385,4.302-8.385,9.302-8.385,9.302l3.944-11.388"/>
<path fill="none" stroke="#7F4098" stroke-miterlimit="10" d="M72.183,61.193l-3,5.306c0,0,0,2.361-3.333,3.981
	c-3.334,1.62-10-8.954-27-0.954s-29-1.333-29-1.333"/>
<polyline fill="none" stroke="#7F4098" stroke-width="3" stroke-miterlimit="10" points="73.614,63.86 69.183,66.5 72.183,63.86 "/>
<path fill="none" stroke="#7F4098" stroke-width="3" stroke-miterlimit="10" d="M94.019,38.505c0,0,0.224,11.339,3.497,9.021"/>
</svg>
