<?xml version="1.0" encoding="utf-8"?>
<!-- Generator: Adobe Illustrator 12.0.0, SVG Export Plug-In  -->
<!DOCTYPE svg PUBLIC "-//W3C//DTD SVG 1.1//EN" "http://www.w3.org/Graphics/SVG/1.1/DTD/svg11.dtd" [
	<!ENTITY ns_flows "http://ns.adobe.com/Flows/1.0/">
	<!ENTITY ns_svg "http://www.w3.org/2000/svg">
	<!ENTITY ns_xlink "http://www.w3.org/1999/xlink">
]>
<svg  version="1.1" xmlns="&ns_svg;" xmlns:xlink="&ns_xlink;" xmlns:a="http://ns.adobe.com/AdobeSVGViewerExtensions/3.0/"
	 width="168" height="139" viewBox="-1.599 -1.251 168 139" enable-background="new -1.599 -1.251 168 139" xml:space="preserve">
<defs>
</defs>
<path fill="none" stroke="#7F4098" stroke-width="3" stroke-miterlimit="10" d="M25.835,5.41v42.727
	c0,0-28.118,67.284-23.905,75.107c4.212,7.823,60.289,21.205,81.275-0.687c9.152-9.545-31.494-75.767-31.494-75.767L47.592,5.41
	C47.592,5.41,34.261,14.437,25.835,5.41z"/>
<path fill="none" stroke="#7F4098" stroke-width="3" stroke-miterlimit="10" d="M25.384,3.605c0,0,10.29-5.115,22.567,0.602"/>
<path fill="none" stroke="#7F4098" stroke-width="3" stroke-miterlimit="10" d="M13.991,79.999c0,0,29.341,13.445,56.633,0.57
	C74.838,78.581,29.515,70.093,13.991,79.999z"/>
<path fill="none" stroke="#7F4098" stroke-width="3" stroke-miterlimit="10" d="M25.835,48.137c0,0,1.204,2.713,8.426,2.257"/>
<line fill="none" stroke="#7F4098" stroke-width="3" stroke-miterlimit="10" x1="30.048" y1="57.967" x2="34.261" y2="57.967"/>
<line fill="none" stroke="#7F4098" stroke-width="3" stroke-miterlimit="10" x1="30.048" y1="65.188" x2="34.261" y2="65.188"/>
<line fill="none" stroke="#7F4098" stroke-width="3" stroke-miterlimit="10" x1="30.048" y1="72.41" x2="34.261" y2="72.41"/>
<line fill="none" stroke="#7F4098" stroke-width="3" stroke-miterlimit="10" x1="30.048" y1="80.923" x2="34.261" y2="80.923"/>
<line fill="none" stroke="#7F4098" stroke-width="3" stroke-miterlimit="10" x1="30.048" y1="88.858" x2="34.261" y2="88.858"/>
<line fill="none" stroke="#7F4098" stroke-width="3" stroke-miterlimit="10" x1="30.048" y1="96.081" x2="34.261" y2="96.081"/>
<line fill="none" stroke="#7F4098" stroke-width="3" stroke-miterlimit="10" x1="30.048" y1="104.505" x2="34.261" y2="104.505"/>
<line fill="none" stroke="#7F4098" stroke-width="3" stroke-miterlimit="10" x1="30.048" y1="113.733" x2="34.261" y2="113.733"/>
<line fill="none" stroke="#7F4098" stroke-width="3" stroke-miterlimit="10" x1="30.048" y1="122.56" x2="34.261" y2="122.56"/>
<path fill="none" stroke="#7F4098" stroke-width="3" stroke-miterlimit="10" d="M72.375,84.164c0,0,4.877-13.286,11.722-17.662
	c3.624-2.316,1.196-18.364,1.196-18.364s5.938,4.614,12.356-1.806c0,0,1.604,16.97,4.013,18.916
	c2.406,1.947,31.293,18.916,4.813,47.056c-4.074,4.329-22.409,1.43-22.409,1.43"/>
<path fill="none" stroke="#7F4098" stroke-width="3" stroke-miterlimit="10" d="M84.811,46.332c0,0,5.189-6.921,13.016-1.504"/>
<path fill="none" stroke="#7F4098" stroke-width="3" stroke-miterlimit="10" d="M76.881,74.831c0,0,20.567,10.018,33.637-1.273
	c3.425-2.959-32.704-4.813-33.154,0.48"/>
<path fill="none" stroke="#7F4098" stroke-width="3" stroke-miterlimit="10" d="M113.172,77.022l-1.432-22.417
	c0,0-5.467-1.053-0.998-4.811c2.719-2.285,25.672-4.977,40.266-3.207"/>
<path fill="none" stroke="#7F4098" stroke-width="3" stroke-miterlimit="10" d="M154.558,46.792c0,0,13.901,5.257,6.53,8.717
	c-7.371,3.461-42.232,4.23-49.756-1.036"/>
<path fill="none" stroke="#7F4098" stroke-width="3" stroke-miterlimit="10" d="M115.122,99.458l1.284,17.436
	c0,0,27.231,14.293,46.188,0L161.09,55.51"/>
<path fill="none" stroke="#7F4098" stroke-width="3" stroke-miterlimit="10" d="M133.105,102.825
	c2.544-8.293,21.245-69.216,23.62-68.378c2.559,0.903-19.014,69.657-19.014,69.657s4.94,9.793-4.155,7.976
	C124.53,110.272,132.97,103.267,133.105,102.825z"/>
<path fill="none" stroke="#7F4098" stroke-width="3" stroke-miterlimit="10" d="M117.688,87.706c0,0,27.904,9.93,43.434-1.885
	c5.793-4.408-15.705-6.895-15.705-6.895"/>
<path fill="none" stroke="#7F4098" stroke-width="3" stroke-miterlimit="10" d="M116.375,83.149c0,0,4.787-4.273,23.771-4.222"/>
<path fill="none" stroke="#7F4098" stroke-width="3" stroke-miterlimit="10" d="M51.713,46.792c0,0-1.505,2.253-4.363,2.702"/>
</svg>
