<?xml version="1.0" encoding="utf-8"?>
<!-- Generator: Adobe Illustrator 12.0.0, SVG Export Plug-In . SVG Version: 6.00 Build 51448)  -->
<!DOCTYPE svg PUBLIC "-//W3C//DTD SVG 1.1//EN" "http://www.w3.org/Graphics/SVG/1.1/DTD/svg11.dtd" [
	<!ENTITY ns_svg "http://www.w3.org/2000/svg">
	<!ENTITY ns_xlink "http://www.w3.org/1999/xlink">
]>
<svg  version="1.1" id="Layer_1" xmlns="&ns_svg;" xmlns:xlink="&ns_xlink;" width="321" height="314"
	 viewBox="-0.756 -0.75 321 314" overflow="visible" enable-background="new -0.756 -0.75 321 314" xml:space="preserve">
<path fill="none" stroke="#5E2B7C" stroke-width="5" stroke-miterlimit="10" d="M127.696,144.641h22.666
	c4.197,0,1.259-12.172,1.259-12.172s-15.25-2.379-9.654-7.136c14.885-12.652,7.555-15.11,7.555-15.11s8.195-2.056,8.721-5.64
	c0.494-3.363-9.333-4.667-8.331-17.225c0.382-4.783,2.596-6.484-0.693-15.117c-0.201-0.526,1.594-0.848,1.702-1.442
	c1.679-9.234-6.436-10.665-34.138-6.996c-32.499,4.305-29.382,25.432-29.801,36.345c-0.42,10.913,7.135,29.381,2.938,28.542
	c-4.198-0.839-5.877,10.074-5.877,10.074s-38.615,1.679-46.59,11.333c-7.975,9.654-20.32,30.542-29.135,45.652
	c-8.814,15.11-5.334,29.476-4.075,32.834c1.259,3.356,59.061,24.67,64.517,24.25c5.457-0.42,40.588,4.701,48.983,0.916"/>
<path fill="none" stroke="#5E2B7C" stroke-width="5" stroke-miterlimit="10" d="M152.508,141.851c0,0,75.061-32.147,80.518-32.147
	s48.27-57.677,49.108-62.713c0.839-5.037,9.654,12.592,18.47,13.431c8.813,0.84-19.48,48.344-40.469,71.01
	c-20.986,22.665-26.457,11.044-54.96,27.8c-23.086,13.571-28.245,18.963-28.245,18.963s-5.877,29.382-5.877,31.48v25.184"/>
<path fill="none" stroke="#5E2B7C" stroke-width="5" stroke-miterlimit="10" d="M56.687,184.676c0,0-7.555,21.407-15.111,29.383
	c-7.555,7.976,46.103,16.449,46.103,16.449c5.194,1.154,40.564,4.242,39.478,7.378c-0.804,2.32-10.14,15.677-9.414,15.364
	c5.25-2.25,14,13.5,17,12.5c3.131-1.044-7.5-8.5-4.167-11.833c2.357-2.356,12.236,12.194,15.667,10.833
	c3.511-1.393-12.01-19.413-7.167-16.667c11.705,6.635,15.904,13.953,17.417,12.667c3.333-2.833-7.914-11.914-10.871-16.531
	c-2.958-4.617,19.45,12.219,19.871,9.281c0.42-2.938-15.25-20.25-27.817-18.795c-6.357,0.736-10.519,3.181-10.519,3.181"/>
<line fill="none" stroke="#5E2B7C" stroke-width="5" stroke-miterlimit="10" x1="50.553" y1="248.814" x2="50.553" y2="292.289"/>
<path fill="none" stroke="#5E2B7C" stroke-width="5" stroke-miterlimit="10" d="M53.648,198.078c0,0-3.149,23.234,0,24.094"/>
<path fill="none" stroke="#5E2B7C" stroke-width="5" stroke-miterlimit="10" d="M95.796,133.728c0,0,6.133,4.617,11.041,5.457"/>
<polyline fill="none" stroke="#5E2B7C" stroke-width="5" stroke-miterlimit="10" points="156.244,239.583 220.839,224.736 
	251.48,241.525 251.48,306.585 "/>
<line fill="none" stroke="#5E2B7C" stroke-width="5" stroke-miterlimit="10" x1="220.839" y1="224.736" x2="225.457" y2="312.461"/>
<polyline fill="none" stroke="#5E2B7C" stroke-width="5" stroke-miterlimit="10" points="88.244,254.25 60.463,258.4 
	61.577,306.917 "/>
<path fill="none" stroke="#5E2B7C" stroke-width="5" stroke-miterlimit="10" d="M284.578,45.583c0,0,5.999-13.833,4.999-28.167
	c2-4,6.248,7.931,6.667,10.667c0.42,2.736,11.291-26.798,13.5-25.583c5,2.75-6.5,26.5-5.75,29c-1.661,1.26,7.75-8.25,6.917-0.583
	c-1.211,11.142,0.083-0.417,0.083-0.417"/>
<path fill="none" stroke="#5E2B7C" stroke-width="5" stroke-miterlimit="10" d="M311.578,37.324c0,0,4.863-3.388,0.666,5.426
	c-4.197,8.815-7.917,8.583-7.25,3.5"/>
<path fill="none" stroke="#5E2B7C" stroke-width="5" stroke-miterlimit="10" d="M305.744,25.5c0,0,2.447-1.564-1.75,7.25
	c-4.197,8.815-9.841,5.234-7.333,0.667"/>
<path fill="none" stroke="#5E2B7C" stroke-width="5" stroke-miterlimit="10" d="M306.828,33.824c0,0,3.863-2.388-0.334,6.426
	c-4.197,8.815-9.841,5.234-7.333,0.667"/>
<path fill="none" stroke="#5E2B7C" stroke-width="5" stroke-miterlimit="10" d="M312.578,46.75c0,0,5,1.5-1.334,6.834
	c-5.379,4.529-7.283,2.222-10.643,6.839"/>
</svg>
