<?xml version="1.0" encoding="utf-8"?>
<!-- Generator: Adobe Illustrator 12.0.0, SVG Export Plug-In  -->
<!DOCTYPE svg PUBLIC "-//W3C//DTD SVG 1.1//EN" "http://www.w3.org/Graphics/SVG/1.1/DTD/svg11.dtd" [
	<!ENTITY ns_flows "http://ns.adobe.com/Flows/1.0/">
	<!ENTITY ns_svg "http://www.w3.org/2000/svg">
	<!ENTITY ns_xlink "http://www.w3.org/1999/xlink">
]>
<svg  version="1.1" xmlns="&ns_svg;" xmlns:xlink="&ns_xlink;" xmlns:a="http://ns.adobe.com/AdobeSVGViewerExtensions/3.0/"
	 width="282" height="236" viewBox="-0.483 -0.612 282 236" enable-background="new -0.483 -0.612 282 236" xml:space="preserve">
<defs>
</defs>
<ellipse fill="none" stroke="#7F4098" stroke-width="3" stroke-miterlimit="10" cx="131.813" cy="85.388" rx="6.5" ry="6.828"/>
<ellipse fill="none" stroke="#7F4098" stroke-width="3" stroke-miterlimit="10" cx="134.376" cy="121.565" rx="6.5" ry="6.828"/>
<ellipse fill="none" stroke="#7F4098" stroke-width="3" stroke-miterlimit="10" cx="197.597" cy="78.297" rx="6.92" ry="7.091"/>
<ellipse fill="none" stroke="#7F4098" stroke-width="3" stroke-miterlimit="10" cx="230.468" cy="89.664" rx="6.92" ry="7.091"/>
<ellipse fill="none" stroke="#7F4098" stroke-width="3" stroke-miterlimit="10" cx="256.493" cy="107.646" rx="6.921" ry="7.092"/>
<ellipse fill="none" stroke="#7F4098" stroke-width="3" stroke-miterlimit="10" cx="188.303" cy="178.52" rx="6.921" ry="7.091"/>
<ellipse fill="none" stroke="#7F4098" stroke-width="3" stroke-miterlimit="10" cx="160.19" cy="156.794" rx="6.92" ry="7.091"/>
<path fill="none" stroke="#7F4098" stroke-width="3" stroke-miterlimit="10" d="M140.876,17.943c0,0,0.082,0.844,0.237,2.419
	c2.095,21.352,17.3,177.041,15.903,184.025h-3.747L140.876,17.943z"/>
<path fill="none" stroke="#7F4098" stroke-width="5" stroke-miterlimit="10" d="M142.896,48.336
	c-35.146,6.229-47.769,74.544,8.846,133.067L142.896,48.336z"/>
<path fill="none" stroke="#7F4098" stroke-width="5" stroke-miterlimit="10" d="M278.017,106.888c-4-22.5-91-60.5-131-59
	c-1.086,0.041-2.15,0.148-3.199,0.3c3.751,38.911,10.029,105.316,12.371,137.645c1.408,1.357,2.842,2.712,4.328,4.056
	c55.409,50.1,76-24.5,76-24.5c2-24,5-16.5,4-27s4.458-11.337,12.958-5.337S282.017,129.388,278.017,106.888z"/>
<path fill="none" stroke="#7F4098" stroke-width="5" stroke-miterlimit="10" d="M153.27,204.388c0,0-7.247,6,0,16l7.247,10
	c0,0,7-15-3.5-26"/>
<path fill="none" stroke="#7F4098" stroke-width="3" stroke-miterlimit="10" d="M119.613,210.82c0,0,0.215-0.82,0.617-2.351
	c5.445-20.752,45.221-172.04,48.955-178.106l3.514,1.3L119.613,210.82z"/>
<path fill="none" stroke="#7F4098" stroke-width="3" stroke-miterlimit="10" d="M155.732,75.753
	c1.264-4.582,2.479-8.956,3.627-13.058c-0.727-0.296-1.516-0.465-2.342-0.465c-3.59,0-6.5,3.058-6.5,6.828
	C150.517,72.368,152.757,75.126,155.732,75.753z"/>
<path fill="none" stroke="#7F4098" stroke-width="3" stroke-miterlimit="10" d="M159.791,75.228c2.201-1.094,3.727-3.44,3.727-6.169
	c0-1.25-0.324-2.418-0.884-3.426L159.791,75.228z"/>
<path fill="none" stroke="#7F4098" stroke-width="5" stroke-miterlimit="10" d="M172.699,31.663c0,0,8.879-3.111,5.553-15.005
	l-3.326-11.894c0,0-11.771,11.638-5.74,25.599"/>
<path fill="none" stroke="#7F4098" stroke-width="3" stroke-miterlimit="10" d="M35.017,146.885c-2-3.503-2,19.003,8,26.503
	s3.109,12.365,11.055,20.433c7.945,8.067,38.945,35.067,60.445,22.067s31.092-13.883,27.796-25.691s-10.553-28.809-25.424-24.309
	c-14.872,4.5-49.598,3.263-50.485-4.368c-0.887-7.632-15.167-2.529-18.873-6.022C45.239,153.336,45.802,153.152,35.017,146.885z"/>
<path fill="none" stroke="#7F4098" stroke-width="5" stroke-miterlimit="10" d="M35.017,146.885c2.873,1.67,4.936,2.904,6.466,3.863
	c1.338-0.946,2.439-2.442,2.66-5.306c0.506-6.555-7.626-9.055-7.626-9.055s-11-0.006-11.5,9.497
	c-0.392,7.448,5.666,9.107,9.267,8.495C33.616,149.077,34.108,145.293,35.017,146.885z"/>
<polyline fill="none" stroke="#7F4098" stroke-width="5" stroke-miterlimit="10" points="25.922,150.685 11.517,134.638 
	6.517,131.888 11.746,130.388 25.922,125.388 25.922,128.888 39.908,138.036 "/>
<path fill="none" stroke="#7F4098" stroke-width="5" stroke-miterlimit="10" d="M34.017,146.885c0,0,0.91-4.997-1.045-3.247
	S34.017,146.885,34.017,146.885"/>
<line fill="none" stroke="#7F4098" stroke-width="5" stroke-miterlimit="10" x1="24.999" y1="134.638" x2="31.972" y2="133.349"/>
<path fill="none" stroke="#7F4098" stroke-width="5" stroke-miterlimit="10" d="M70.267,196.82c0,0,5.25,6.067,9,6.567
	s12-6.317,14.5-3.283"/>
</svg>
