<?xml version="1.0" encoding="utf-8"?>
<!-- Generator: Adobe Illustrator 12.0.0, SVG Export Plug-In  -->
<!DOCTYPE svg PUBLIC "-//W3C//DTD SVG 1.1//EN" "http://www.w3.org/Graphics/SVG/1.1/DTD/svg11.dtd" [
	<!ENTITY ns_flows "http://ns.adobe.com/Flows/1.0/">
	<!ENTITY ns_svg "http://www.w3.org/2000/svg">
	<!ENTITY ns_xlink "http://www.w3.org/1999/xlink">
]>
<svg  version="1.1" xmlns="&ns_svg;" xmlns:xlink="&ns_xlink;" xmlns:a="http://ns.adobe.com/AdobeSVGViewerExtensions/3.0/"
	 width="159" height="182" viewBox="-1.534 -1.424 159 182" enable-background="new -1.534 -1.424 159 182" xml:space="preserve">
<defs>
</defs>
<path fill="none" stroke="#804298" stroke-width="3" stroke-miterlimit="10" d="M138.374,9.104L31.832,6.546
	c0,0-18.366-31.971-2.366,65.029c9,52-11.634,77.639-11.634,77.639s-19.673,10.85-4.666,21.332
	c5.519,3.855,114.666,6.668,114.666,6.668s-11.583-7.668,0-23.334c16.634-39.305,14.634-60.305,10.634-85.305
	C133.466,40.576,123.041,15.104,138.374,9.104z"/>
<path fill="none" stroke="#804298" stroke-width="2" stroke-miterlimit="10" d="M36.499,25.213h7.5c0,0,31.686,2,36.842,4.5
	l8.158-0.5h25.5"/>
<path fill="none" stroke="#804298" stroke-width="2" stroke-miterlimit="10" d="M39.999,47.713c0,0,4.5,1,10.5,0
	s12-1.111,14.5,0.444c2.5,1.555,14.186-1.056,19.842,0"/>
<path fill="none" stroke="#804298" stroke-width="2" stroke-miterlimit="10" d="M94.499,50.713c0,0,9.396-0.5,12.697,0
	c3.303,0.5,5.803-2,8.303,0"/>
<path fill="none" stroke="#804298" stroke-width="3" stroke-miterlimit="10" d="M127.999,161.214c0,0,0.251,1.832,11,0
	c5.143-0.878,6,7,0,6s-7.288-3.933-11.003,0.066"/>
<path fill="none" stroke="#804298" stroke-width="3" stroke-miterlimit="10" d="M138.999,161.214c0,0-2.512,0.967-2.839,5.317"/>
<path fill="none" stroke="#804298" stroke-width="3" stroke-miterlimit="10" d="M148.16,21.646
	c-6.341,15.1-15.267,2.934-15.267,2.934"/>
<path fill="none" stroke="#804298" stroke-width="3" stroke-miterlimit="10" d="M146.783,17.207c0.377-9.66-6.951-7.994-6.951-7.994
	"/>
<path fill="none" stroke="#804298" stroke-width="3" stroke-miterlimit="10" d="M139.832,17.207c0,0,1.293,1.215,9.543,0
	c5.088-0.75,8.25,7.373-1.44,4.961c-5.357-1.332-8.103-0.521-8.103-0.521"/>
<path fill="none" stroke="#804298" stroke-width="3" stroke-miterlimit="10" d="M149.999,17.207c0,0-3.559,2.449-1.152,5.166"/>
<path fill="none" stroke="#804298" stroke-width="3" stroke-miterlimit="10" d="M29.599,9.96c0,0-3.975,0.908-5.475-0.857
	c-1.5-1.764-4.578-0.764-4.601,1.611c-0.024,2.375,1.726,4.258,3.726,2.44c2-1.815,4.595,0.726,4.595,0.726"/>
<path fill="none" stroke="#804298" stroke-width="3" stroke-miterlimit="10" d="M24.124,9.104c0,0,1.748,2.803,0.437,3.427"/>
<path fill="none" stroke="#804298" stroke-width="2" stroke-miterlimit="10" d="M46.374,67.838c0,0,28.875,2.875,31.875,2.625
	s13.25,0.125,15.625,0.75s21,0.125,21.25-0.75s4.875-0.25,5.375,0.5"/>
<path fill="none" stroke="#804298" stroke-width="2" stroke-miterlimit="10" d="M47.499,91.714c0,0,35.875,1.25,43.875,2.125
	s8.625-3.625,17.75-2.125s15,2.625,15.25,0.5"/>
<path fill="none" stroke="#804298" stroke-width="3" stroke-miterlimit="10" d="M17.832,149.214c0,0,20.917,2.25,25.917,1
	s47.396,1.625,50.447,2.75c3.054,1.125,32.094,0.582,33.636,0.916"/>
<path fill="none" stroke="#804298" stroke-width="2" stroke-miterlimit="10" d="M44.499,113.589c0,0,9.25-0.875,13.625,0
	s5.25,0,5.25,0"/>
<path fill="none" stroke="#804298" stroke-width="2" stroke-miterlimit="10" d="M72.624,113.976c0,0,9.5-0.983,12.5,0
	c3,0.986,3.5,0,3.5,0l2.25,1.024c0,0,1.5-1.51,4.875-1.024c3.381,0.487,24.559,0.873,28.717,2.601"/>
<path fill="none" stroke="#804298" stroke-width="2" stroke-miterlimit="10" d="M39.249,131.964c0,0,8.125,3.125,30.375,2.375
	s28,1.625,33.25,3.5s13,0,13,0"/>
<path fill="none" stroke="#804298" stroke-width="3" stroke-miterlimit="10" d="M143.999,17.157c0,0-1.203-4.21-3.109-4.308
	c-1.219-0.063-4.341,3.07-4.266,8.797c0.125,9.568,8.813,0.018,8.705,0"/>
<path fill="none" stroke="#804298" stroke-width="3" stroke-miterlimit="10" d="M128.582,177.236c0,0,5.084,1.479,5.668-10.704"/>
<path fill="none" stroke="#804298" stroke-width="3" stroke-miterlimit="10" d="M134.249,161.214c0,0-2.25-7.965-5.999-7.965"/>
<path fill="none" stroke="#804298" stroke-width="3" stroke-miterlimit="10" d="M131.833,162.021c0,0-0.668-3.891-3.251-3.391
	c-2.584,0.5-4.666,11.332-0.333,12c4.333,0.666,3.918-5.347,3.918-5.347"/>
<path fill="none" stroke="#804298" stroke-width="3" stroke-miterlimit="10" d="M8.786,157.603c0,0-1.621-0.557-2.788-1.223
	c-1.166-0.666-3-1.556-4.166,1.223c-1.167,2.777,1,3.943,2.5,3.943h3.19"/>
<path fill="none" stroke="#804298" stroke-width="3" stroke-miterlimit="10" d="M5.999,156.38c0,0,0.167,4-1.667,5.168"/>
</svg>
