<?xml version="1.0" encoding="utf-8"?>
<!-- Generator: Adobe Illustrator 12.0.0, SVG Export Plug-In  -->
<!DOCTYPE svg PUBLIC "-//W3C//DTD SVG 1.1//EN" "http://www.w3.org/Graphics/SVG/1.1/DTD/svg11.dtd" [
	<!ENTITY ns_flows "http://ns.adobe.com/Flows/1.0/">
	<!ENTITY ns_svg "http://www.w3.org/2000/svg">
	<!ENTITY ns_xlink "http://www.w3.org/1999/xlink">
]>
<svg  version="1.1" xmlns="&ns_svg;" xmlns:xlink="&ns_xlink;" xmlns:a="http://ns.adobe.com/AdobeSVGViewerExtensions/3.0/"
	 width="326" height="172" viewBox="-9.577 -2.582 326 172" enable-background="new -9.577 -2.582 326 172" xml:space="preserve">
<defs>
</defs>
<path fill="none" stroke="#927060" stroke-width="4" d="M4.322,12.69l106.54-2.851l6.158,13.25l4.903,139.329
	c0,0-84,1.5-113.175,0.309l-4.426-7.371V12.69z"/>
<polyline fill="none" stroke="#927060" stroke-width="4" points="110.862,9.839 115.048,155.355 4.322,155.355 "/>
<path fill="none" stroke="#927060" stroke-width="4" d="M134.173,28.821l5.404-20.982l5.818,21.533l4.365,105.2
	c0,0,0.541,11.277,0.357,15.017c0,0,2.381,11.392-4.915,11.009c-7.42-0.392-6.401-5.435-6.872-6.707
	c-0.472-1.273-0.433-13.888-0.341-18.218C138.331,119.611,134.558,71.635,134.173,28.821z"/>
<path fill="none" stroke="#927060" stroke-width="2" d="M134.173,28.821c0,0,4.661,4.603,11.222,0.551"/>
<path fill="#927060" d="M137.353,16.479c0,0-0.455,2.165,4.621,0.227l-2.396-8.867L137.353,16.479z"/>
<path fill="none" stroke="#927060" stroke-width="2" d="M138.028,136.186c0,0,8.365,5.06,11.773-0.709"/>
<path fill="none" stroke="#927060" stroke-width="2" d="M138.331,142.143c0,0,1.65,5.084,12.338,0.605"/>
<path fill="none" stroke="#927060" stroke-width="4" d="M138.203,149.1c0,0,4.796,5.452,11.914,0.489"/>
<path fill="none" stroke="#927060" stroke-width="4" d="M164.713,19.766c0,0-1.048,17.431-0.308,18.928c0,0,0.86,63.208,1.58,69.017
	c0,0-2.853,32.786,1.733,34.249c0,0-2.248,7.845,4.255,8.222c6.503,0.375,6.218-6.471,6.339-8.949
	c0.122-2.479,3.01,2.633,1.659-33.457c0,0,0-50.729-3.703-68.188c0,0,0.568-19.471-1.291-19.563
	C173.121,19.933,164.762,18.37,164.713,19.766z"/>
<path fill="none" stroke="#927060" stroke-width="4" d="M168.129,19.767c0,0-1.674-10.639,1.888-11.267
	c3.446-0.607,2.344,11.435,2.344,11.435"/>
<path fill="none" stroke="#927060" stroke-width="2" d="M165.986,107.71c0,0,7.757-0.875,13.987,0.065"/>
<path fill="none" stroke="#927060" stroke-width="2" d="M167.721,141.959c0,0,3.007,2.006,10.594-0.727"/>
<polyline fill="none" stroke="#927060" stroke-width="2" points="168.661,148.832 172.091,160.482 175.828,149.184 "/>
<path fill="none" stroke="#927060" stroke-width="4" d="M175.9,25.952c0,0,11.111,1.429,8.206,25.819
	c-2.906,24.389,2.485,25.347-1.1,26.341"/>
<polygon fill="none" stroke="#927060" stroke-width="4" points="201.162,7.582 227.947,7.917 229.226,162.292 202.959,162.457 "/>
<line fill="none" stroke="#927060" stroke-width="2" stroke-linecap="round" x1="201.247" y1="14.897" x2="206.301" y2="15.146"/>
<line fill="none" stroke="#927060" stroke-width="2" stroke-linecap="round" x1="201.407" y1="28.665" x2="207.093" y2="28.943"/>
<line fill="none" stroke="#927060" stroke-width="2" stroke-linecap="round" x1="201.467" y1="35.926" x2="206.836" y2="36.19"/>
<line fill="none" stroke="#927060" stroke-width="2" stroke-linecap="round" x1="202.211" y1="48.857" x2="207.266" y2="49.106"/>
<line fill="none" stroke="#927060" stroke-width="2" stroke-linecap="round" x1="201.925" y1="55.679" x2="206.981" y2="55.927"/>
<line fill="none" stroke="#927060" stroke-width="2" stroke-linecap="round" x1="202.463" y1="68.669" x2="207.518" y2="68.917"/>
<line fill="none" stroke="#927060" stroke-width="2" stroke-linecap="round" x1="202.177" y1="76.505" x2="207.232" y2="76.753"/>
<line fill="none" stroke="#927060" stroke-width="2" stroke-linecap="round" x1="202.667" y1="90.18" x2="207.722" y2="90.427"/>
<line fill="none" stroke="#927060" stroke-width="2" stroke-linecap="round" x1="202.453" y1="97.55" x2="207.507" y2="97.798"/>
<line fill="none" stroke="#927060" stroke-width="2" stroke-linecap="round" x1="203.051" y1="110.297" x2="208.107" y2="110.545"/>
<line fill="none" stroke="#927060" stroke-width="2" stroke-linecap="round" x1="202.824" y1="116.936" x2="207.878" y2="117.184"/>
<line fill="none" stroke="#927060" stroke-width="2" stroke-linecap="round" x1="203.186" y1="131.217" x2="208.241" y2="131.465"/>
<line fill="none" stroke="#927060" stroke-width="2" stroke-linecap="round" x1="202.9" y1="139.038" x2="207.956" y2="139.286"/>
<line fill="none" stroke="#927060" stroke-width="2" stroke-linecap="round" x1="202.849" y1="152.893" x2="207.129" y2="153.102"/>
<line fill="none" stroke="#927060" stroke-width="2" stroke-linecap="round" x1="201.325" y1="21.597" x2="213.551" y2="22.279"/>
<line fill="none" stroke="#927060" stroke-width="2" stroke-linecap="round" x1="202.417" y1="42.685" x2="212.525" y2="43.181"/>
<line fill="none" stroke="#927060" stroke-width="2" stroke-linecap="round" x1="202.95" y1="61.754" x2="215.177" y2="62.438"/>
<line fill="none" stroke="#927060" stroke-width="2" stroke-linecap="round" x1="201.886" y1="83.419" x2="214.114" y2="84.104"/>
<line fill="none" stroke="#927060" stroke-width="2" stroke-linecap="round" x1="202.281" y1="103.938" x2="213.114" y2="104.47"/>
<line fill="none" stroke="#927060" stroke-width="2" stroke-linecap="round" x1="202.43" y1="123.957" x2="214.657" y2="124.641"/>
<line fill="none" stroke="#927060" stroke-width="2" stroke-linecap="round" x1="202.77" y1="146.066" x2="213.577" y2="146.639"/>
<path fill="none" stroke="#927060" stroke-width="4" stroke-linecap="round" d="M247.331,7.43l1.813,156.342
	c0,0,67.504,11.787,64.258-77.68C310.212-1.803,247.331,7.43,247.331,7.43z"/>
<path fill="none" stroke="#927060" stroke-width="4" stroke-linecap="round" d="M248.137,76.918c0,0,15.87,0.591,15.924,13.036
	c0.064,14.923-15.596,15.206-15.596,15.206"/>
<path fill="none" stroke="#927060" stroke-width="4" stroke-linecap="round" d="M248.493,86.833c0,0,8.941,2.796,0.639,7.672"/>
<path fill="none" stroke="#927060" stroke-width="2" stroke-linecap="round" d="M164.406,38.693c0,0,3.674,2.82,10.902-0.707"/>
<line fill="none" stroke="#927060" stroke-width="3" stroke-linecap="round" x1="115.048" y1="155.355" x2="120.423" y2="159.918"/>
<line fill="none" stroke="#927060" stroke-width="2" x1="251.159" y1="76.878" x2="259.042" y2="21.175"/>
<line fill="none" stroke="#927060" stroke-width="2" x1="253.746" y1="77.93" x2="271.147" y2="25.968"/>
<line fill="none" stroke="#927060" stroke-width="2" x1="257.18" y1="79.289" x2="281.566" y2="34.093"/>
<line fill="none" stroke="#927060" stroke-width="2" stroke-linecap="round" x1="260.037" y1="81.158" x2="294.152" y2="44.385"/>
<line fill="none" stroke="#927060" stroke-width="2" stroke-linecap="round" x1="262.22" y1="83.579" x2="299.309" y2="56.69"/>
<line fill="none" stroke="#927060" stroke-width="2" stroke-linecap="round" x1="263.824" y1="86.174" x2="302.329" y2="72.196"/>
<line fill="none" stroke="#927060" stroke-width="2" stroke-linecap="round" x1="264.061" y1="89.954" x2="302.328" y2="88.012"/>
<line fill="none" stroke="#927060" stroke-width="2" stroke-linecap="round" x1="263.496" y1="94.548" x2="302.328" y2="100.912"/>
<line fill="none" stroke="#927060" stroke-width="2" stroke-linecap="round" x1="261.47" y1="98.869" x2="299.309" y2="113.369"/>
<line fill="none" stroke="#927060" stroke-width="2" stroke-linecap="round" x1="259.042" y1="101.409" x2="294.152" y2="125.329"/>
<line fill="none" stroke="#927060" stroke-width="2" stroke-linecap="round" x1="255.121" y1="103.674" x2="287.07" y2="139.904"/>
<line fill="none" stroke="#927060" stroke-width="2" x1="252.439" y1="104.552" x2="274.218" y2="149.468"/>
<line fill="none" stroke="#927060" stroke-width="2" x1="249.775" y1="105.051" x2="259.042" y2="156.283"/>
<ellipse fill="none" stroke="#927060" stroke-width="4" cx="12.923" cy="27.184" rx="2.809" ry="2.797"/>
<ellipse fill="none" stroke="#927060" stroke-width="4" cx="12.923" cy="41.874" rx="2.809" ry="2.797"/>
<ellipse fill="none" stroke="#927060" stroke-width="4" cx="12.923" cy="56.564" rx="2.809" ry="2.797"/>
<ellipse fill="none" stroke="#927060" stroke-width="4" cx="12.923" cy="71.254" rx="2.809" ry="2.797"/>
<ellipse fill="none" stroke="#927060" stroke-width="4" cx="12.923" cy="85.945" rx="2.809" ry="2.797"/>
<ellipse fill="none" stroke="#927060" stroke-width="4" cx="12.923" cy="100.635" rx="2.809" ry="2.797"/>
<ellipse fill="none" stroke="#927060" stroke-width="4" cx="12.923" cy="115.326" rx="2.809" ry="2.797"/>
<ellipse fill="none" stroke="#927060" stroke-width="4" cx="12.923" cy="130.016" rx="2.809" ry="2.797"/>
<ellipse fill="none" stroke="#927060" stroke-width="4" cx="12.923" cy="144.707" rx="2.809" ry="2.797"/>
<path fill="none" stroke="#927060" stroke-width="2" d="M13.527,29.916c0,0-7.922-8.327-11.733,0.065
	c-1.615,3.555,2.528,6.266,2.528,6.266"/>
<path fill="none" stroke="#927060" stroke-width="2" d="M13.527,44.531c0,0-7.922-8.327-11.733,0.064
	c-1.615,3.555,2.528,6.266,2.528,6.266"/>
<path fill="none" stroke="#927060" stroke-width="2" d="M13.527,58.739c0,0-7.922-8.327-11.733,0.065
	c-1.615,3.555,2.528,6.265,2.528,6.265"/>
<path fill="none" stroke="#927060" stroke-width="2" d="M13.527,73.66c0,0-7.922-9.26-11.733-0.868
	c-1.615,3.555,2.528,6.265,2.528,6.265"/>
<path fill="none" stroke="#927060" stroke-width="2" d="M13.527,88.236c0,0-7.922-9.26-11.733-0.868
	c-1.615,3.555,2.528,6.265,2.528,6.265"/>
<path fill="none" stroke="#927060" stroke-width="2" d="M13.527,102.926c0,0-7.922-9.26-11.733-0.867
	c-1.615,3.555,2.528,6.265,2.528,6.265"/>
<path fill="none" stroke="#927060" stroke-width="2" d="M13.527,117.617c0,0-7.922-9.26-11.733-0.868
	c-1.615,3.555,2.528,6.265,2.528,6.265"/>
<path fill="none" stroke="#927060" stroke-width="2" d="M13.869,132.307c0,0-7.922-9.26-11.733-0.867
	c-1.615,3.555,2.528,6.265,2.528,6.265"/>
<path fill="none" stroke="#927060" stroke-width="2" d="M13.106,146.998c0,0-7.922-9.26-11.733-0.868
	c-1.615,3.556,2.528,6.265,2.528,6.265"/>
</svg>
