<?xml version="1.0" encoding="utf-8"?>
<!-- Generator: Adobe Illustrator 12.0.0, SVG Export Plug-In  -->
<!DOCTYPE svg PUBLIC "-//W3C//DTD SVG 1.1//EN" "http://www.w3.org/Graphics/SVG/1.1/DTD/svg11.dtd" [
	<!ENTITY ns_flows "http://ns.adobe.com/Flows/1.0/">
	<!ENTITY ns_svg "http://www.w3.org/2000/svg">
	<!ENTITY ns_xlink "http://www.w3.org/1999/xlink">
]>
<svg  version="1.1" xmlns="&ns_svg;" xmlns:xlink="&ns_xlink;" xmlns:a="http://ns.adobe.com/AdobeSVGViewerExtensions/3.0/"
	 width="332" height="166" viewBox="-1.964 -1.479 332 166" enable-background="new -1.964 -1.479 332 166" xml:space="preserve">
<defs>
</defs>
<path fill="none" stroke="#927060" stroke-width="4" d="M134.989,39.157l-0.55-1.338c-0.083-1.26,1.691-1.435,1.538-2.61
	C130.66-5.838,81.986,2.747,79.729,2.747c-35.752,0-52.369,30.763-49.439,72.247c1.661,23.513,23.151,41.945,56.807,56.656
	c0.702,0.309,5.815,1.855,6.569,1.305c16.11-11.828,12.18,1.314,18.649,0.977c5.208-0.271,9.991-1.16,12.928-3.104
	c3.791-2.512,6.463-6.031,7.432-11.064c3.302-17.174,7.266-21.406,7.266-42.2c0-8.448-3.075-13.634-5.285-21.211
	C132.997,50.647,137.71,44.151,134.989,39.157z"/>
<path fill="none" stroke="#927060" stroke-width="3" d="M135.979,35.208l-9.248-2.642l1.321,2.642c0,0-46.898-12.881-55.485-8.257
	L48.101,14.312"/>
<path fill="none" stroke="#927060" stroke-width="3" d="M71.423,26.953c0,0-19.816,18.826-17.504,39.302
	c0,0-22.129-10.568-3.303,15.854c0,0-5.893,11.768-1.243,26.959"/>
<path fill="none" stroke="#927060" stroke-width="3" d="M80.374,132.482c0.744-1.267-8.67-8.993-12.745-7.233
	c-3.638,1.574-6.355,12.039-4.625,13.816c4.951,5.088,17.467,2.557,17.37,2.51C80.275,141.527,77.411,137.524,80.374,132.482z"/>
<path fill="none" stroke="#927060" stroke-width="3" d="M93.269,133.618c0,0,9.848-7.727,12.451-4.738
	c3.44,3.951,3.963,12.939,1.541,13.978c-6.527,2.791-14.442-0.694-14.339-0.728C93.023,142.1,97.575,137.1,93.269,133.618z"/>
<path fill="none" stroke="#927060" stroke-width="3" d="M90.628,142.482h-8.103c-2.131,0-3.875-1.743-3.875-3.875v-2.487
	c0-2.131,1.744-3.875,3.875-3.875h8.103c2.131,0,3.875,1.744,3.875,3.875v2.487C94.503,140.739,92.759,142.482,90.628,142.482z"/>
<path fill="#FFFFFF" stroke="#927060" stroke-width="4" d="M108.755,133.634l0.645,6.271c0,0,13.354-0.904,15.728-0.451
	c2.373,0.451-3.131-6.604-3.131-6.604S114.396,135.688,108.755,133.634"/>
<path fill="none" stroke="#927060" stroke-width="3" d="M108.755,133.634l0.645,6.271c0,0,13.354-0.904,15.728-0.451
	c2.373,0.451-3.131-6.604-3.131-6.604S114.396,135.688,108.755,133.634z"/>
<path fill="none" stroke="#927060" stroke-width="3" d="M87.967,147.823c1.114,0,3.016,1.871,3.016,2.946s-1.902,2.946-3.016,2.946
	c-1.113,0-3.016-1.871-3.016-2.946S86.854,147.823,87.967,147.823z"/>
<path fill="none" stroke="#927060" stroke-width="4" d="M185.421,147.3c3.938-1.805,33.693-13.492,44.563-7.811
	c8.207,4.288,32.882,6.281,47.104,2.424c5.599-1.519,17.872,1.989,28.796,4.332c8.613,1.84,14.609,2.92,18.072,4.979
	c7.684,4.575,5.054,9.671,5.054,11.146c0,2.137-150.387-1.666-150.387-1.666S181.487,149.104,185.421,147.3z"/>
<path fill="none" stroke="#927060" stroke-width="4" d="M185.421,147.3c3.938-1.805,33.693-13.492,44.563-7.811
	c8.207,4.288,32.882,6.281,47.104,2.424c5.599-1.519,17.872,1.989,28.796,4.332c8.613,1.84,14.609,2.92,18.072,4.979
	c7.684,4.575,5.054,9.671,5.054,11.146c0,2.137-150.387-1.666-150.387-1.666S181.487,149.104,185.421,147.3z"/>
<path fill="#FFFFFF" d="M296.658,51.327l-8.157-2.331l1.162,2.331c0,0-41.383-11.365-48.96-7.286l-21.591-11.156"/>
<path fill="none" stroke="#927060" stroke-width="3" d="M296.658,51.327l-8.157-2.331l1.162,2.331c0,0-41.383-11.365-48.96-7.286
	l-21.591-11.156"/>
<path fill="#FFFFFF" d="M237.936,44.042c0,0-14.568,17.413-12.529,35.485c0,0-19.688-8.381-3.077,14.938
	c0,0-6.779,19.772,2.196,25.793"/>
<path fill="none" stroke="#927060" stroke-width="3" stroke-linecap="round" d="M237.936,44.042c0,0-14.568,17.413-12.529,35.485
	c0,0-19.688-8.381-3.077,14.938c0,0-6.779,19.772,2.196,25.793"/>
<path fill="none" stroke="#927060" stroke-width="4" stroke-linecap="round" d="M191.469,107.872c0,0-0.771,15.15-5.144,15.442
	c0,0,21.147-14.571,29.315-71.989c0.211-1.51,1.99-7.287,1.99-7.287s-26.77-30.242-32.602,2.948
	c-5.828,33.192,9.617,60.298-3.784,74.578c0,0,8.729-6.31,10.043-12.505c0.125-0.598,0.178-1.188,0.157-1.773"/>
<path fill="none" stroke="#927060" stroke-width="4" d="M295.495,69.979c-1.463-5.029,2.691-10.759,0.296-15.168l-0.49-1.181
	c-0.067-1.113,1.491-1.269,1.357-2.305c-4.691-36.222-47.646-28.647-49.634-28.647c-15.229,0-26.513,6.34-33.83,17.004
	c2.692,2.385,4.438,4.357,4.438,4.357s-1.778,5.777-1.989,7.286c-2.601,18.269-6.611,32.182-10.877,42.686
	c2.954,10.134,10.34,19.115,21.229,27.107c7.584,5.563,16.859,10.647,27.529,15.311c2.277,1,25.685,4.553,33.658-0.729
	c3.348-2.216,5.705-5.322,6.563-9.764c2.907-15.154,6.407-18.895,6.407-37.242C300.157,81.245,297.446,76.667,295.495,69.979z"/>
<path fill="none" stroke="#927060" stroke-width="4" d="M276.631,138.39L276.631,138.39c-9.724,0.662-21.521-1.268-23.104-1.959
	c-10.67-4.661-19.945-9.746-27.529-15.311l3.188,18.006c12.523,9.647,49.426,2.516,49.426,2.516S275.442,141.642,276.631,138.39z"/>
<path fill="none" stroke="#927060" stroke-width="3" d="M208.326,139.79c0,0,40.554,34.582,49.104,5.57
	c0,0,18.092,24.779,37.26-1.646"/>
<path fill="none" stroke="#927060" stroke-width="4" d="M125.128,139.452c6.583-2.022,26.372,4.486,37.266,7.381
	c11.667,3.102,10.333,14.578,10.333,14.578L2.302,159.521c0,0-2.092-4.342,4.734-13.73c6.826-9.388,42.821-11.789,42.821-11.789
	l-0.484-24.935c0,0,31.819,21.374,37.724,22.581"/>
<path fill="none" stroke="#927060" stroke-width="4" d="M49.857,134.001c0,0,10.249,4.41,12.625,3.363"/>
</svg>
