<?xml version="1.0" encoding="utf-8"?>
<!-- Generator: Adobe Illustrator 12.0.0, SVG Export Plug-In  -->
<!DOCTYPE svg PUBLIC "-//W3C//DTD SVG 1.1//EN" "http://www.w3.org/Graphics/SVG/1.1/DTD/svg11.dtd" [
	<!ENTITY ns_flows "http://ns.adobe.com/Flows/1.0/">
	<!ENTITY ns_svg "http://www.w3.org/2000/svg">
	<!ENTITY ns_xlink "http://www.w3.org/1999/xlink">
]>
<svg  version="1.1" xmlns="&ns_svg;" xmlns:xlink="&ns_xlink;" xmlns:a="http://ns.adobe.com/AdobeSVGViewerExtensions/3.0/"
	 width="250" height="217" viewBox="159 108 250 217" enable-background="new 159 108 250 217" xml:space="preserve">
<defs>
</defs>
<g>
	<defs>
		<rect id="XMLID_63_" width="612" height="792"/>
	</defs>
	<clipPath id="XMLID_70_">
		<use xlink:href="#XMLID_63_" />
	</clipPath>
	<path clip-path="url(#XMLID_70_)" fill="none" stroke="#7F4098" stroke-width="3" stroke-miterlimit="10" d="M230.333,324.184
		c0,0-13.333-39.184,8-45.851V271l4.667,4v-8c0,0,11.333-0.667,14.666,6.667c0,0,71.667-28.334,79,36.833
		c0,0-17.333-28.833-24-24.167c-6.666,4.667-16-5.333-16-2c0,3.334-22-0.666-26,3.334S242,290.333,242,297
		S228.509,313.517,230.333,324.184z"/>
	<path clip-path="url(#XMLID_70_)" fill="none" stroke="#7F4098" stroke-width="3" stroke-miterlimit="10" d="M294.666,298v7.333
		c0,0,25.333-3.333,27.333,0C321.999,305.333,320.666,299.333,294.666,298z"/>
	<path clip-path="url(#XMLID_70_)" fill="none" stroke="#7F4098" stroke-width="3" stroke-miterlimit="10" d="M269.333,301.667V310
		c0,0-17.333-2-24,3.334C245.333,313.333,250,303.333,269.333,301.667z"/>
	<path clip-path="url(#XMLID_70_)" fill="none" stroke="#7F4098" stroke-width="3" stroke-miterlimit="10" d="M294.666,317.333
		c0,0,14,4.667,24-4"/>
	<path clip-path="url(#XMLID_70_)" fill="none" stroke="#7F4098" stroke-width="3" stroke-miterlimit="10" d="M273.333,317.333
		c0,0-9.333,7.185-22,1.926"/>
	
		<ellipse clip-path="url(#XMLID_70_)" fill="none" stroke="#7F4098" stroke-width="3" stroke-miterlimit="10" cx="333" cy="267" rx="7.333" ry="7.667"/>
	
		<ellipse clip-path="url(#XMLID_70_)" fill="none" stroke="#7F4098" stroke-width="3" stroke-miterlimit="10" cx="347" cy="250" rx="5.333" ry="5.667"/>
	<path clip-path="url(#XMLID_70_)" fill="none" stroke="#7F4098" stroke-width="3" stroke-miterlimit="10" d="M272.066,223.154
		c0,0,7.459,22.176,73.601,14.67C397,232,387,222.018,387,222.018s34-16.685,12.667-42.018c0,0,13.333-38-15.333-44
		c3.968,0.831-14.667-46.667-72.071-14.706c0,0-47.801-20.131-66.468,3.202c0,0-54.128-16.134-76.795,9.199
		c0,0-16.667,3.005,3.333,45.305c0,0-38.285,37.119,25.215,58C214.31,242.511,272.066,223.154,272.066,223.154z"/>
</g>
<g>
	<defs>
		<rect id="XMLID_62_" width="612" height="792"/>
	</defs>
	<clipPath id="XMLID_71_">
		<use xlink:href="#XMLID_62_" />
	</clipPath>
	<path clip-path="url(#XMLID_71_)" fill="none" stroke="#896299" stroke-miterlimit="10" d="M271.864,154.931
		c0,0,2.289-3.662,6.409,0C278.273,154.931,275.984,157.219,271.864,154.931z"/>
	<path clip-path="url(#XMLID_71_)" fill="none" stroke="#896299" stroke-miterlimit="10" d="M264.997,155.49
		c0,0-1.831,2.76-4.578,0.07C260.419,155.56,263.167,152.387,264.997,155.49z"/>
	<path clip-path="url(#XMLID_71_)" fill="none" stroke="#896299" stroke-width="2" stroke-miterlimit="10" d="M264.997,158.288
		c0,0-2.289,7.629-1.602,8.545c0.686,0.916,2.856,1.009,3.966,1.144c0,0,4.503-0.228,4.503-2.06c0-1.787-1.005-1.696-1.005-1.696"/>
	<path clip-path="url(#XMLID_71_)" fill="none" stroke="#896299" stroke-width="2" stroke-miterlimit="10" d="M267.234,166.832
		c0,0,2.271-0.944,3.103-0.172"/>
	<path clip-path="url(#XMLID_71_)" fill="none" stroke="#896299" stroke-width="2" stroke-miterlimit="10" d="M258.359,151.268
		c0,0,2.06,8.24,1.144,9.613c-0.915,1.373,3.901,10.069,5.494,17.395c1.144,5.265,21.057,0.458,25.406-5.798"/>
	<path clip-path="url(#XMLID_71_)" fill="none" stroke="#896299" stroke-width="2" stroke-miterlimit="10" d="M266.488,179.819
		l-1.289,6.538c0,0-9.8,6.044-14.191,7.935c-3.205,1.38-6.867,2.524-7.782,2.524c-0.916,0,8.926,18.54,36.392,14.878
		c27.467-3.662,34.791-11.445,33.646-14.191c0,0-6.747-2.011-8.697-3.211c-0.585-0.36-10.3-7.318-10.758-8.92
		s-0.915-20.142-0.915-20.142c2.06,0.458,2.746-1.755,2.746-1.755c1.602-0.839,3.891-2.823,4.578-7.457
		c0.687-4.635-6.409-2.461-6.409-2.461c-0.229,1.373-7.324,5.722-5.264,4.73c2.06-0.992,0-7.477-1.145-9.308
		c-1.144-1.831,1.374-1.602,0.458-3.433c-0.915-1.831-11.673-4.12-13.112-3.838c-1.44,0.282-4.741-2.422-4.741-2.422
		c-0.229,1.751-5.722,4.483-5.722,4.483c2.289,0.589-0.458-3.257-0.458-3.257c-1.373-0.914-2.289,4.805-2.289,4.805
		c-1.373-0.458-2.059-0.229-2.059-0.229c-0.687,0-0.916,6.18-0.916,6.18c-4.807-7.782,3.433-15.608,3.433-15.608
		c10.3-16.752,30.442-3.138,30.442-3.138c6.856,3.401,9.842,12.795,10.986,15.084c1.145,2.289-6.637,24.491-6.408,26.093
		c0.228,1.602-3.614,6.417-3.614,6.417"/>
	<path clip-path="url(#XMLID_71_)" fill="none" stroke="#896299" stroke-width="2" stroke-miterlimit="10" d="M294.981,156.018
		c0,0,4.12-2.924,5.035,0"/>
	<path clip-path="url(#XMLID_71_)" fill="none" stroke="#896299" stroke-width="2" stroke-miterlimit="10" d="M293.837,159.279
		c0,0,1.144,1.144,0,1.602c-1.144,0.458,3.891,0.229,3.662-0.801"/>
	<path clip-path="url(#XMLID_71_)" fill="none" stroke="#896299" stroke-width="2" stroke-miterlimit="10" d="M266.287,171.41
		c0,0,0.719-0.229,1.775,0s6.549,0.687,6.32,0"/>
	<path clip-path="url(#XMLID_71_)" fill="none" stroke="#896299" stroke-width="2" stroke-miterlimit="10" d="M264.997,172.478
		c0,0,0.813,1.45,2.237,1.221c1.425-0.229,4.63,0.024,4.63,0.024"/>
	<path clip-path="url(#XMLID_71_)" fill="none" stroke="#896299" stroke-miterlimit="10" d="M271.864,183.312
		c0.687,1.602,3.204,5.493,4.463,5.035"/>
	<path clip-path="url(#XMLID_71_)" fill="none" stroke="#896299" stroke-miterlimit="10" d="M278.272,164.772
		c0,0,3.662-4.128,5.722-3.666"/>
	<path clip-path="url(#XMLID_71_)" fill="none" stroke="#896299" stroke-miterlimit="10" d="M262.708,147.606
		c0,0,8.011-1.373,9.155-1.602"/>
	<path clip-path="url(#XMLID_71_)" fill="none" stroke="#896299" stroke-width="2" stroke-miterlimit="10" d="M261.638,188.385
		c0,0,27.316,22.851,35.765,19.647"/>
	<path clip-path="url(#XMLID_71_)" fill="none" stroke="#896299" stroke-width="2" stroke-miterlimit="10" d="M266.287,196.816
		c0,0,15.649,13.511,21.6,13.508"/>
	<path clip-path="url(#XMLID_71_)" fill="none" stroke="#896299" stroke-width="2" stroke-miterlimit="10" d="M329.478,162.692
		l5.724-11.439c0,0,3.031-20.557,19.864-25.944c16.834-5.387,27.924,21.978,23.884,28.383c0,0-5.703,13.385-5.367,14.395
		c0.337,1.01,1.01,13.467-1.01,14.813c-2.021,1.347-3.703,7.744-4.713,7.744h-1.011v8.754l19.527,6.733
		c0,0-18.805,27.657-38.693,20.924c-19.888-6.734-29.651-19.577-29.314-22.271l16.833-5.05c0,0-5.04-18.695-2.346-20.853
		C332.855,178.881,326.18,169.283,329.478,162.692z"/>
	<path clip-path="url(#XMLID_71_)" fill="none" stroke="#896299" stroke-width="2" stroke-miterlimit="10" d="M328.598,168.499
		c0,0,1.217-6.136,12.328-9.839c0,0,17.17,6.734,21.547,6.397c0,0,8.753,2.357,11.109,3.03"/>
	<path clip-path="url(#XMLID_71_)" fill="none" stroke="#896299" stroke-width="2" stroke-miterlimit="10" d="M339.241,143.51
		c0,0,5.724-3.367,5.724-1.683c0,1.683-2.693,8.753-2.021,9.427c0.674,0.673,3.393-3.872,3.393-3.872s-0.987,3.628,2.669-6.027
		c1.346-3.556,9.426,4.175,9.426,4.175"/>
	<path clip-path="url(#XMLID_71_)" fill="none" stroke="#896299" stroke-width="2" stroke-miterlimit="10" d="M378.949,153.692
		c0,0-7.723-8.154-10.754-7.822"/>
	<path clip-path="url(#XMLID_71_)" fill="none" stroke="#896299" stroke-width="2" stroke-miterlimit="10" d="M347.683,172.464
		c0,0,5.026-2.357,7.719,0C355.401,172.464,351.747,174.821,347.683,172.464z"/>
	<path clip-path="url(#XMLID_71_)" fill="none" stroke="#896299" stroke-width="2" stroke-miterlimit="10" d="M344.292,171.417
		c0,0,8.754-6.098,14.14,0"/>
	<path clip-path="url(#XMLID_71_)" fill="none" stroke="#896299" stroke-width="2" stroke-miterlimit="10" d="M339.241,172.464
		c0,0-2.519-2.334-5.387,0C333.854,172.464,337.895,173.811,339.241,172.464z"/>
	<path clip-path="url(#XMLID_71_)" fill="none" stroke="#896299" stroke-width="2" stroke-miterlimit="10" d="M340.588,170.062
		c0,0-6.466-3.376-8.417,0"/>
	<path clip-path="url(#XMLID_71_)" fill="none" stroke="#896299" stroke-width="2" stroke-miterlimit="10" d="M346.985,180.039
		c0.673,0,1.515,2.02,0.697,2.741c0,0-1.708,0.794-3.391,0.121c-1.684-0.674-2.021,1.683-3.704,1.851
		c-1.683,0.169-1.347-1.851-1.347-1.851s-0.505-0.809-1.01-0.5"/>
	<path clip-path="url(#XMLID_71_)" fill="none" stroke="#896299" stroke-width="2" stroke-miterlimit="10" d="M338.231,188.624
		c0,0,1.01-0.253,4.04,0c1.515,0.126,2.946-0.902,4.209-0.926c1.262-0.023,2.356,0.959,2.356,0.959"/>
	<path clip-path="url(#XMLID_71_)" fill="none" stroke="#896299" stroke-width="2" stroke-miterlimit="10" d="M339.241,190.644
		c0,0,4.763,2.357,8.441,0"/>
	<path clip-path="url(#XMLID_71_)" fill="none" stroke="#896299" stroke-width="2" stroke-miterlimit="10" d="M360.897,164.972
		c-0.782,2.442,0.565,4.707,1.911,5.089c0,0,0,3.151,1.347,3.45c0,0-3.367,3.727,0,4.37c0,0-1.254,11.416-3.489,11.416
		c-2.234,0-0.922,0.327-1.932,1c0,0-2.028-3.357-3.034-1.51c-1.006,1.847-2.697,4.204,0,4.877c2.698,0.673-4.179,7.002-6.367,7.002
		s-14.469-2.795-14.132-0.932c0.337,1.864,9.14,7.744,12.481,6.734c3.343-1.01,13.105-5.387,14.453-8.754
		c1.347-3.367,4.713-7.07,4.713-7.07"/>
	<path clip-path="url(#XMLID_71_)" fill="none" stroke="#896299" stroke-width="2" stroke-miterlimit="10" d="M332.172,163.375
		c0,0-2.543,8.172-1.342,10.135"/>
	<path clip-path="url(#XMLID_71_)" fill="none" stroke="#896299" stroke-miterlimit="10" d="M344.292,173.063
		c0,0-1.011,5.042,0,5.588"/>
	<path clip-path="url(#XMLID_71_)" fill="none" stroke="#896299" stroke-miterlimit="10" d="M369.542,173.511
		c0,0,2.693,0.32-1.347,2.345"/>
	<path clip-path="url(#XMLID_71_)" fill="none" stroke="#896299" stroke-width="2" stroke-miterlimit="10" d="M366.849,180.039
		c0,0,0.05,3.851,3.573,0c3.521-3.851,3.56-3.801,3.544-5.355"/>
	<path clip-path="url(#XMLID_71_)" fill="none" stroke="#896299" stroke-miterlimit="10" d="M340.588,174.684
		c0,0,0.337,0.81-1.347,5.355"/>
</g>
<g>
	<defs>
		<rect id="XMLID_61_" width="612" height="792"/>
	</defs>
	<clipPath id="XMLID_72_">
		<use xlink:href="#XMLID_61_" />
	</clipPath>
	<path clip-path="url(#XMLID_72_)" fill="none" stroke="#896299" stroke-width="2" stroke-miterlimit="10" d="M197.947,179.704
		l-19.677,6.737c0,0,0.79,27.565,27.662,27.021s38.728-24.65,38.728-24.65l-23.316-12.053l-0.79-4.544c0,0,3.952-0.395,5.137,0
		c1.186,0.395,4.347-2.766,4.347-3.952c0-1.187,1.976-4.742,1.976-4.742s3.161-5.878,1.185-8.076
		c-1.975-2.199-5.927-12.473-6.717-14.844c-0.791-2.371-9.488-9.675-16.205-9.58c-6.716,0.095-18.571,5.628-18.571,7.604
		s-3.952,9.089-3.557,11.065c0.396,1.976,3.952,12.645,3.952,15.412C192.102,167.867,197.947,179.704,197.947,179.704z"/>
	<path clip-path="url(#XMLID_72_)" fill="none" stroke="#896299" stroke-width="2" stroke-miterlimit="10" d="M197.947,179.704
		c0,0,3.243,3.576,4.824,3.971s9.089-3.553,12.25-5.531c3.162-1.978,5.533-5.929,5.533-5.929c1.976-1.976,1.976-5.138,1.976-5.138
		s1.976,2.767,3.161,0c1.186-2.766,3.162-11.41,1.581-11.632c-1.581-0.223-3.952,2.939-3.952,2.939"/>
	<path clip-path="url(#XMLID_72_)" fill="none" stroke="#896299" stroke-width="2" stroke-miterlimit="10" d="M196.565,180.177
		c0,0-1.563,16.242,0,16.835l-1.563-0.593c0,0,6.979-8.892,8.757-10.077C203.759,186.342,197.373,181.422,196.565,180.177z"/>
	<path clip-path="url(#XMLID_72_)" fill="none" stroke="#896299" stroke-width="2" stroke-miterlimit="10" d="M221.345,176.759
		c0,0-6.113,16.282-8.441,17.971l-5.884-8.985C207.02,185.745,219.076,181.478,221.345,176.759z"/>
	<path clip-path="url(#XMLID_72_)" fill="none" stroke="#896299" stroke-width="2" stroke-miterlimit="10" d="M203.759,186.342
		c0,0-3.557,8.631,0,10.836s6.195-6.951,5.181-8.501C207.925,187.127,203.759,186.342,203.759,186.342z"/>
	<path clip-path="url(#XMLID_72_)" fill="none" stroke="#896299" stroke-width="2" stroke-miterlimit="10" d="M205.954,197.177
		c0,0,3.326,15.491,3.205,15.799"/>
	<path clip-path="url(#XMLID_72_)" fill="none" stroke="#896299" stroke-width="2" stroke-miterlimit="10" d="M203.759,197.177
		c0,0-4.905,14.279-4.379,15.799"/>
	<path clip-path="url(#XMLID_72_)" fill="none" stroke="#896299" stroke-width="2" stroke-miterlimit="10" d="M201.55,155.433
		c0,0,0.431,6.507-1.347,9.668c-1.779,3.162,0,0.988,1.975,2.766c1.976,1.779,1.581-1.383,2.569-1.185
		c0.988,0.197,1.778,0.988,2.272,0"/>
	<path clip-path="url(#XMLID_72_)" fill="none" stroke="#896299" stroke-width="2" stroke-miterlimit="10" d="M207.559,165.101
		c0,0,4.611,3.359,5.346,6.125"/>
	<path clip-path="url(#XMLID_72_)" fill="none" stroke="#896299" stroke-width="2" stroke-miterlimit="10" d="M199.38,173.795
		c0,0,2.56,1.383,3.865,1.185c1.304-0.197,2.49,0.02,3.774-0.583"/>
	<path clip-path="url(#XMLID_72_)" fill="none" stroke="#896299" stroke-miterlimit="10" d="M202.179,169.567
		c0,0-0.664,0.89-0.628,1.659"/>
	<path clip-path="url(#XMLID_72_)" fill="none" stroke="#896299" stroke-miterlimit="10" d="M207.02,169.567c0,0,0.712,2.23,0,2.647
		"/>
	<path clip-path="url(#XMLID_72_)" fill="none" stroke="#896299" stroke-width="2" stroke-miterlimit="10" d="M211.465,173.795
		L211.465,173.795c-0.988-1.186-5.928-0.988-7.706-1.55c-1.778-0.563-5.812,0-5.812,0c-1.433-1.551,1.394-2.677,1.394-2.677"/>
	<path clip-path="url(#XMLID_72_)" fill="none" stroke="#896299" stroke-miterlimit="10" d="M209.16,170.396
		c0,0,1.418,1.749,1.072,2.771"/>
	<path clip-path="url(#XMLID_72_)" fill="none" stroke="#896299" stroke-miterlimit="10" d="M211.465,159.964
		c-1.778,0.395-4.129-2.371-4.129-2.371s4.24-1.976,5.568,0c1.327,1.976,2.71,0.988,3.303,0.79"/>
	<path clip-path="url(#XMLID_72_)" fill="none" stroke="#896299" stroke-miterlimit="10" d="M200.4,156.714c0,0-2.894-2.459-5.399,0
		"/>
	<path clip-path="url(#XMLID_72_)" fill="none" stroke="#896299" stroke-miterlimit="10" d="M196.844,156.122
		c0,0-1.383,1.346,0,2.459c0.924,0.743,1.778,0.527,3.13,0"/>
	<path clip-path="url(#XMLID_72_)" fill="none" stroke="#896299" stroke-miterlimit="10" d="M205.954,139.415
		c0,0-4.303-5.779-0.285-7.731"/>
	<path clip-path="url(#XMLID_72_)" fill="none" stroke="#896299" stroke-miterlimit="10" d="M197.542,134.533
		c-1.193,0.527-1.313,8.15-1.313,8.15"/>
	<path clip-path="url(#XMLID_72_)" fill="none" stroke="#896299" stroke-miterlimit="10" d="M199.38,139.415
		c0,0,2.6-4.152,2.798-6.719"/>
	<path clip-path="url(#XMLID_72_)" fill="none" stroke="#896299" stroke-miterlimit="10" d="M190.609,156.168
		c0,0-1.073-9.26,1.492-9.048c0,0-3.298-0.532-2.96-1.381"/>
	<path clip-path="url(#XMLID_72_)" fill="none" stroke="#896299" stroke-miterlimit="10" d="M214.39,139.415
		c0,0-0.392-7.559,1.818-6.719"/>
	<path clip-path="url(#XMLID_72_)" fill="none" stroke="#896299" stroke-miterlimit="10" d="M220.317,144.406
		c0,0,5.945,0.022,6.441-3.446"/>
	<path clip-path="url(#XMLID_72_)" fill="none" stroke="#896299" stroke-miterlimit="10" d="M223.538,148.224
		c0,0,5.683,4.144,6.805,1.948"/>
	<path clip-path="url(#XMLID_72_)" fill="none" stroke="#896299" stroke-miterlimit="10" d="M226.758,162.889
		c0,0,4.783,3.747,5.45,1.486"/>
	<path clip-path="url(#XMLID_72_)" fill="none" stroke="#896299" stroke-miterlimit="10" d="M205.954,156.122
		c0,0,6.446-2.064,9.239,0.593"/>
	<path clip-path="url(#XMLID_72_)" fill="none" stroke="#896299" stroke-miterlimit="10" d="M199.974,155.358
		c0,0-2.517-2.815-3.744-0.729"/>
	<path clip-path="url(#XMLID_72_)" fill="none" stroke="#896299" stroke-miterlimit="10" d="M198.101,150.129
		c0,0,4.689,0.242,6.853,0c2.164-0.242,6.82-2.021,7.95-1.033"/>
	<path clip-path="url(#XMLID_72_)" fill="none" stroke="#896299" stroke-miterlimit="10" d="M192.102,147.121
		c2.232-1.12,4.216-5.188,7.279-7.706s11.217,2.081,12.085,0c0.868-2.081,5.55,1.546,7.201,3.269c1.651,1.722,6.743,7.61,4.871,8.13
		c-1.871,0.52-2.193,3.905-2.193,3.905s4.846-2.1,6.893-0.118c2.048,1.982,5.151,0.781,5.151,0.781"/>
</g>
</svg>
