<?xml version="1.0" encoding="utf-8"?>
<!-- Generator: Adobe Illustrator 12.0.0, SVG Export Plug-In  -->
<!DOCTYPE svg PUBLIC "-//W3C//DTD SVG 1.1//EN" "http://www.w3.org/Graphics/SVG/1.1/DTD/svg11.dtd" [
	<!ENTITY ns_flows "http://ns.adobe.com/Flows/1.0/">
	<!ENTITY ns_svg "http://www.w3.org/2000/svg">
	<!ENTITY ns_xlink "http://www.w3.org/1999/xlink">
]>
<svg  version="1.1" xmlns="&ns_svg;" xmlns:xlink="&ns_xlink;" xmlns:a="http://ns.adobe.com/AdobeSVGViewerExtensions/3.0/"
	 width="119" height="149" viewBox="-0.269 -0.605 119 149" enable-background="new -0.269 -0.605 119 149" xml:space="preserve">
<defs>
</defs>
<path fill="none" stroke="#7F4098" stroke-width="2" stroke-miterlimit="10" d="M74.963,27c0,0-3-26-16-26s-19.5,9-19,13
	s11.5,3,14.5,0s4.5,5.5,6,5.5s2.5,9,6.5,7.5S74.963,27,74.963,27z"/>
<path fill="none" stroke="#7F4098" stroke-width="2" stroke-miterlimit="10" d="M47.463,141c-0.226-8.628-12.481-14.605-7.527-25.5
	c1.517-3.337,20.027-3,23.527,0.5s29,7,32.5,9.5s6.5-3.5,11.5,1"/>
<path fill="none" stroke="#7F4098" stroke-width="2" stroke-miterlimit="10" d="M74.963,27l5.5,8.5c0,0,19.5-0.5,25,3.5
	s9.5,9,9.5,18s2,15.5,0,17s3.025,1.425-2,16.5c-2.5,7.5,5.278,8.5,2.889,20c-2.389,11.5,2.981,23.645,0.63,30.145"/>
<path fill="none" stroke="#7F4098" stroke-width="2" stroke-miterlimit="10" d="M91.63,42.833c0,0-6.833,14.333,0,23.5
	c0,0-9.167,10-9.5,22.167c0,0-12-5-41.667,13.333c-29.666,18.333-13.833,5.333-18.333,13s-1.5,7.667-1.167,9.167
	c0.334,1.5,2.5,5,3.667,5.333s-0.667-4.833-1-7s4-8.5,4.5-8.5s-2.833,7-2.833,7.667c0,0.666,2.166,7.197,3.5,7.848
	C30.13,130,28.963,122,28.63,121.5s2.333-4.834,3-5c0.667-0.167-1.5,3.166-1.5,5c0,1.833,0.667,6.666,2,6.666
	s0.977-5.438,0.977-6.771s0.25-3.25,1.75-3.75c0,0-0.227,4.688,0.273,6.021c0.5,1.334,0.352,3.741,1.352,3.354
	c1-0.386-0.75-5.25-0.25-5.25s0.398-3.77,1.898-6.604c1.5-2.833,8-4.833,10.667-4.333c2.666,0.5,31.5-0.5,37.166-2.833
	c5.667-2.334,8.5-4,10.167-7s4.833-8.167,4.667-12.667c-0.167-4.5,6.333-7.833,6.833-17c0,0,7.634-13.708,7.248-16.506"/>
<path fill="none" stroke="#7F4098" stroke-width="2" stroke-miterlimit="10" d="M101.796,67.5c0,0,5.41-0.244,5.705,5.211"/>
<path fill="none" stroke="#7F4098" stroke-width="2" stroke-miterlimit="10" d="M64.63,105.5c0,0,20.329-2.2,25.167-2.333"/>
<path fill="none" stroke="#7F4098" stroke-width="2" stroke-miterlimit="10" d="M71.963,53.167c0,0-0.333,11.167,1.333,12.167"/>
<path fill="none" stroke="#7F4098" stroke-width="2" stroke-miterlimit="10" d="M40.802,15.439c0,0-0.339,3.561,1.328,7.561
	s1.167,8.833,1.5,10.333s2.167,4,2.167,5.333c0,1.334-2.69,4.334-2.513,7c0.179,2.667,1.131,6.667,2.631,8.5
	c1.5,1.834,0,19.167,1.048,23.334c0.677,2.69,4.051,18.375,4.093,18.353"/>
<path fill="none" stroke="#7F4098" stroke-width="2" stroke-miterlimit="10" d="M45.796,38.667c0,0,2.019-3,5.259,1.5
	c0,0,3.074-2.5,4.241,0c0,0,3.333-1.5,3.833,0.833c0,0,3.334-2,3,0.834C61.796,44.667,59.463,46,58.796,48s-3,4.667-3,6
	c0,1.334,13.101,26.438,13.55,34.885"/>
<path fill="none" stroke="#7F4098" stroke-width="2" stroke-miterlimit="10" d="M48.796,54c0,0,4-0.333,4,0.833"/>
<path fill="none" stroke="#7F4098" stroke-width="2" stroke-miterlimit="10" d="M62.13,41.833c0,0,4.333-3.126,4.333-4.146"/>
<path fill="none" stroke="#7F4098" stroke-width="2" stroke-miterlimit="10" d="M44.655,51.865c0,0-8.859,4.635-8.859,7.385
	S40.13,71.5,43.963,79"/>
<path fill="none" stroke="#7F4098" stroke-width="2" stroke-miterlimit="10" d="M42.558,76.204c0,0,0.239,7.296,6.239,10.796"/>
<path fill="none" stroke="#7F4098" stroke-width="2" stroke-miterlimit="10" d="M19.675,120.333c0,0-7.712,0.333-11.712,4.667
	c-4,4.333-11.667,2.666-3,22.333"/>
</svg>
