<?xml version="1.0" encoding="utf-8"?>
<!-- Generator: Adobe Illustrator 12.0.0, SVG Export Plug-In  -->
<!DOCTYPE svg PUBLIC "-//W3C//DTD SVG 1.1//EN" "http://www.w3.org/Graphics/SVG/1.1/DTD/svg11.dtd" [
	<!ENTITY ns_flows "http://ns.adobe.com/Flows/1.0/">
	<!ENTITY ns_svg "http://www.w3.org/2000/svg">
	<!ENTITY ns_xlink "http://www.w3.org/1999/xlink">
]>
<svg  version="1.1" xmlns="&ns_svg;" xmlns:xlink="&ns_xlink;" xmlns:a="http://ns.adobe.com/AdobeSVGViewerExtensions/3.0/"
	 width="171" height="171" viewBox="-0.626 -0.059 171 171" enable-background="new -0.626 -0.059 171 171" xml:space="preserve">
<defs>
</defs>
<path fill="#981B1E" d="M103.029,68.457c-0.517-1.72-0.345-2.924-0.688-2.924s-0.859,1.204-0.859,2.924
	c0,6.313,5.712,11.398,11.47,16.684c7.312-6.215,16.867-11.421,20.522-13.072c5.848-2.58,17.716-13.932,25.972-13.932
	c6.88,0,10.837,7.052,10.837,14.104c0,5.504-3.613,9.804-8.257,9.804c-1.72,0-4.987-1.893-4.987-3.096
	c0-2.064,1.547-2.752,2.752-2.752c0.516,0,2.752,2.752,3.439,2.752c1.031,0,1.031-0.688,1.031-1.032
	c0-4.644-2.579-7.052-5.504-7.052c-3.096,0-4.815-2.064-4.815-5.676c0-1.548,0-2.58-1.204-2.58c-1.893,0-5.16,1.72-7.912,3.784
	c-1.203,0.86-1.72,1.376-1.72,1.892c0,0.344,0.344,0.688,1.376,1.204c2.236,1.032,3.611,3.612,3.611,5.504
	c0,1.72-1.375,2.924-3.268,2.924c-1.72,0-3.611-0.516-3.611-1.892c0-0.86,1.375-1.548,2.408-1.548c0.688,0,1.031-1.204,1.031-2.064
	c0-1.032-1.72-2.236-3.096-2.064c-4.129,0.516-14.448,6.88-18.576,10.664c-0.516,0.516-0.688,1.376,0.688,0.688
	c1.721-0.688,4.473-1.376,11.524-1.376c16.685,0,25.8,13.587,27.864,13.587s2.924-0.516,2.924-2.58c0-3.439-3.611-2.924-3.611-4.127
	c0-0.688,1.031-1.549,3.439-1.549c1.376,0,4.473,2.236,4.473,5.504c0,3.957-1.205,6.364-3.269,6.364c-1.204,0-2.753,0-4.472-1.376
	c-0.688-0.516-0.345,0.344,0,0.688c5.848,5.505,7.74,8.945,7.74,22.361c0,18.824-7.832,35.398-18.186,44.26
	c3.002,1.918,5.984,3.039,8.553,3.039c5.16,0,6.191-2.752,6.191-5.16c0-0.172,0-1.891-1.031-1.891c-2.064,0-1.721,2.58-3.096,2.58
	c-1.205,0-1.893-0.518-1.893-1.893c0-3.439,4.301-5.16,5.848-5.16c2.064,0,3.613,0.688,3.613,4.816
	c0,7.912-6.193,10.492-12.213,10.492c-2.91,0-6.993-1.141-11.252-3.109c-3.589,2.01-7.353,3.109-11.107,3.109
	c-10.32,0-23.221-4.129-25.973-4.129c-0.86,0-1.376,0.344-1.376,0.688c0,0.174,1.032,0.861,1.032,1.033
	c0,0.688-1.377,1.031-2.924,1.031c-1.721,0-5.677-1.203-5.677-2.234c0-0.172,0.345-0.174,0.86-0.174
	c0.859,0,2.924,0.344,3.956,0.344c0.86,0,1.204-0.172,1.204-0.516c0-1.375-4.473-4.299-8.084-4.299
	c-5.848,0-7.225,1.719-7.225,3.955c0,1.033,0.516,1.721,1.549,1.721c1.203,0,1.203-2.58,2.752-2.58c1.375,0,1.547,0.859,1.547,2.408
	c0,1.375-1.547,2.752-4.644,2.752c-2.58,0-4.815-1.721-4.815-4.645c0-3.096,2.58-5.676,7.912-5.676
	c10.319,0,15.479,5.16,22.875,5.16c3.269,0,4.816-0.688,4.816-1.721c0-0.688-0.688-0.516-0.688-1.375
	c0-1.549,2.236-2.408,2.236-3.441c0-2.234-4.129-3.783-4.129-4.471c0-0.689,0.344-0.861,0.86-0.861c2.752,0,7.739,4.473,7.739,7.912
	c0,2.924-2.063,3.957-4.299,3.957c-0.345,0-0.86-0.516-1.033-0.516c-0.172,0-0.344,0.344-0.344,0.516
	c0,1.547,1.205,2.236,3.44,2.236c5.702,0,10.677-0.916,14.993-2.574c-7.485-4.424-14.422-11.072-15.394-18.256
	c-1.135,0.234-2.321,0.361-3.556,0.361c-4.816,0-10.836-4.3-12.212-6.363c-0.517-0.688-1.204-0.86-0.86,0.172
	c0.344,1.031,0.688,1.892,0.688,2.924c0,2.408-1.548,3.611-2.753,3.611c-1.547,0-3.955-2.752-3.955-5.676v-0.172
	c0.516,0,1.72,2.408,2.58,2.408c1.031,0,1.203-2.752,1.203-3.956c0-0.688-0.344-1.204-0.859-1.892
	c-3.646-4.709-7.827-11.43-8.756-17.793c-0.377,1.416-0.532,2.888-0.532,4.205c0,0.516-0.688,0.859-1.032,0.516
	c-0.344-0.516-0.688-1.549-0.688-2.58c0-2.118,0.644-5.282,2.152-7.511c0.333-5.573,1.592-11.382,3.352-15.193
	c1.031-2.236,0.172-3.269-0.516-3.269c-0.345,0-2.408,2.064-2.58,2.064c-0.517,0-0.86-0.516-0.86-1.032
	c0-2.407,1.204-4.644,2.58-4.644c2.063,0,3.096,0.344,3.612,1.72c0.344,1.032,0.516,0.86,1.203-0.345
	c1.154-2.152,2.943-4.322,5.086-6.422c-4.043-4.914-11.277-9.958-11.277-19.377c0-3.612,2.064-7.568,4.988-7.568
	c2.58,0,4.472,1.548,4.472,2.752c0,0.688-0.345,1.72-1.892,1.72c-1.033,0-1.549-1.72-1.893-1.72c-0.516,0-0.688,1.548-0.688,1.892
	c0,3.784,7.567,5.676,11.18,5.676c0.336,0,0.729-0.075,1.163-0.219c-1.086-1.445-1.679-3.027-1.679-4.081
	c0-3.096,2.752-6.536,2.752-9.288c0-1.376-0.517-3.096-2.58-3.096c-3.612,0-4.129,3.096-5.676,3.096
	c-0.517,0-1.205-0.516-1.205-1.892c0-3.612,2.58-5.676,7.053-5.676c4.128,0,6.191,1.204,6.191,5.16
	c0,3.784-1.892,9.632-2.924,11.696c-0.344,0.688-1.031,0.344-1.031,1.376c0,0.781,0.393,1.356,1.004,1.78
	c3.524-2.175,7.939-7.222,7.939-13.132c0-7.74-5.16-13.588-13.072-13.588c-4.3,0-10.148,2.408-10.148,5.848
	c0,1.376,0.861,2.408,1.721,2.408c1.032,0,1.548-1.72,2.236-1.72c0.516,0,0.688,0.516,0.688,1.376c0,1.892-1.548,3.096-3.783,3.096
	c-3.269,0-4.816-3.612-4.816-15.48c0-1.892,0.516-5.16,1.031-6.536c0.345-0.688-0.172-2.408-0.516-3.096
	c-0.67-1.479-1.496-2.85-2.424-4.128h-2.048v101.997c0,14.275,0.86,25.627,23.048,28.723c1.032,0.172,1.376,1.721,0,1.721H52.46
	c-0.86,0-1.032-1.549,0-1.721c16.856-2.408,22.017-14.447,22.017-28.723V24.596h-2.064c-0.654,0.743-1.234,1.488-1.721,2.236
	c-0.344,0.688-0.516,3.096-0.344,3.612c0.86,2.064,1.549,6.02,1.549,8.084c0,7.396-2.064,12.04-4.301,12.04
	c-1.203,0-3.268-1.72-3.268-3.096c0-0.344,0.344-0.516,0.859-0.516c0.86,0,0.86,1.204,1.893,1.204c1.204,0,1.376-1.72,1.376-2.58
	c0-2.408-2.924-3.784-6.021-3.784c-8.428,0-14.964,5.332-14.964,16.512c0,3.268,2.064,8.428,3.612,10.664
	c0.516,0.86,0.688,0.688,1.031,0.688c0.345,0,0.173-0.344,0.173-1.72c0-0.86,1.032-1.376,0.86-3.096
	c-0.172-2.58-2.58-6.708-2.58-8.084c0-3.612,4.988-7.568,7.74-7.568c2.235,0,3.611,2.58,3.611,5.848
	c0,2.064-0.859,4.644-2.236,4.644c-0.344,0-0.516-0.516-0.516-1.72c0-1.892-1.548-4.816-3.611-4.816
	c-0.688,0-1.205,0.516-1.205,1.548c0,4.816,3.096,7.396,3.096,8.772c0,2.408-1.719,4.472-2.752,5.504
	c-0.344,0.344-1.547,1.032-1.547,1.548c0,1.548,2.752,3.268,4.815,3.268c0.86,0,6.536-3.096,6.536-7.052
	c0-2.408,0.344-6.364,1.721-6.364c2.924,0,4.987,8.256,4.987,12.212c0,5.16-1.892,10.32-6.192,13.932
	c-1.067,0.971-1.985,2.421-2.752,4.052c0.86,1.234,1.668,2.52,2.408,3.86c0.86,1.72,1.376,1.72,1.376,0
	c-0.172-2.236,2.925-3.097,3.956-3.097c1.032,0,1.721,1.549,1.721,3.269c0,0.86-0.345,1.72-0.688,1.72
	c-0.688,0-1.72-1.892-2.063-1.892c-0.517,0-1.721,0.86-1.721,1.72c0,1.032,0.859,2.408,1.721,4.301
	c1.547,3.268,3.096,6.363,3.096,14.275c-0.025,1.171-0.1,2.425-0.232,3.731c0.922,1.214,1.436,2.267,1.436,2.805
	c0,2.063-0.344,4.472-0.859,4.472c0,0-0.688-0.172-0.688-0.344c-0.043-0.773-0.248-1.644-0.543-2.52
	c-1.267,6.471-4.032,13.377-9.262,17.656c-0.859,0.688-1.376,1.892-1.376,3.268s0.345,2.58,1.376,2.58
	c0.859,0,1.721-0.516,2.236-1.032c0.172-0.172,0.172-0.172,0.344-0.172s0.516,0.172,0.516,0.688c0,1.203-2.063,4.127-3.439,4.127
	c-1.721,0-4.988-1.892-4.988-3.439c0-0.688,0.344-1.893,0.688-2.58c0.345-0.688-0.344-1.031-1.031-0.688
	c-2.408,1.031-5.676,4.127-9.977,4.127c-1.063,0-2.092-0.065-3.086-0.191c-1.491,6.568-5.346,12.502-10.592,16.705
	c4.501,1.953,9.523,3.096,15.055,3.096c2.063,0,1.375-0.861-1.033-2.408c-2.063-1.377-3.955-3.441-3.955-7.225
	c0-2.924,1.375-4.988,4.644-4.988c1.892,0,2.752,1.721,2.752,3.957c0,1.203-0.344,1.719-1.032,1.719
	c-0.859,0-0.344-3.096-2.924-3.096c-0.859,0-1.376,0.688-1.376,2.064c0,2.408,7.052,7.568,9.116,7.568
	c5.848,0,16.34-5.504,23.221-5.504c5.16,0,9.115,2.752,9.115,7.223c0,3.268-3.955,3.957-6.191,3.957
	c-2.408,0-3.957-1.377-3.957-3.096c0-1.549,1.205-2.752,3.269-2.752c1.032,0,1.376,0.516,1.376,1.719
	c0,1.033,0.172,1.549,0.688,1.549c0.345,0,3.44-0.172,3.44-2.064c0-2.236-2.407-4.473-6.536-4.473c-3.439,0-9.804,2.064-9.804,3.957
	c0,2.408,2.924,1.547,2.924,2.236c0,0.516-0.172,2.063-1.72,2.063c-1.721,0-3.096-1.031-3.096-2.406
	c0-2.064-0.688-2.064-1.893-2.064c-2.236,0-4.645,3.611-10.148,3.611c-2.408,0-2.235-0.516-4.815-0.516s-7.396,2.236-9.46,2.236
	c-3.684,0-7.704-1.334-11.73-3.611c-4.07,2.285-8.696,3.611-13.554,3.611C6.02,170.281,0,167.357,0,159.617
	c0-2.58,3.268-5.16,5.332-5.16c3.784,0,4.988,3.439,4.988,5.16c0,0.688-0.516,1.719-1.72,1.719c-1.032,0-1.204-1.375-1.72-1.375
	c-0.688,0-1.892,0.172-1.892,1.203c0,2.752,2.752,5.332,4.816,5.332c3.541,0,7.709-1.863,11.637-4.771
	C9.918,152.152,0,136.408,0,124.357c0-16.857,3.268-22.189,9.804-29.068c0.688-0.688,0.516-1.032,0.172-0.86
	c-0.86,0.688-1.72,1.548-4.3,1.376c-2.408-0.172-5.332-5.16-5.332-8.944c0-2.407,0.86-4.644,1.892-4.644
	c0.688,0,0.172,0.859,0.688,2.924c0.688,2.752,4.816,2.408,5.848,5.16c0.86,2.236,1.204,2.924,2.924,2.924
	c1.032,0,13.072-12.557,28.724-12.557c4.645,0,11.523,2.752,13.76,4.988c0.172,0.172,1.032,0.172,0.688-0.172
	c-1.353-1.977-11.015-10.059-20.949-16.137c-0.833,0.619-1.239,1.457-1.239,2.377c0,2.58,3.44,2.58,3.44,4.128
	s-1.204,2.408-3.268,2.408c-3.268,0-5.676-3.096-5.676-6.536c0-1.762,1.044-3.45,2.647-4.75c-5.082-2.77-9.943-4.709-13.483-4.709
	c-4.128,0-6.192,2.064-6.192,3.44c0,0.344,0.86,0.516,1.72,0.516c2.752,0,3.44,2.064,3.44,4.3c0,1.892-2.58,5.676-4.472,6.88
	c-0.688,0.516-1.204,0.688-1.204,1.032c0,0.688,0.344,3.096,3.096,3.096c3.784,0,2.58-2.752,5.332-2.752
	c0.688,0,0.86,0.516,0.86,1.032c0,1.893-3.096,4.473-5.504,4.473c-8.256,0-12.728-5.333-12.728-13.245s10.492-11.18,14.448-11.18
	c2.58,0,6.708,0.86,8.772,1.72c1.032,0.516,1.376,0.344,0.344-0.516c-1.032-0.86-3.612-2.58-6.02-5.676
	c-3.096-3.956-6.536-11.008-9.116-11.008c-2.408,0-3.784,1.548-3.784,4.3c0,1.032,0.688,1.72,0.688,2.064
	c0,0.516-0.344,0.86-1.032,0.86C2.236,51.601,0,49.708,0,46.096c0-4.128,2.58-10.148,6.88-10.148c6.364,0,8.944,4.816,11.352,12.384
	c1.72,5.332,7.396,12.212,10.836,16.512c0.86,1.032,1.204,0.344-0.516-1.72c-0.516-0.688-3.44-4.3-3.44-8.428
	c0-8.6,3.956-15.824,11.524-15.824c1.032,0,2.064,2.236,2.064,3.612c0,1.548-1.376,4.3-2.58,4.3c-0.688,0-0.344-4.988-2.236-4.988
	c-0.86,0-2.236,1.032-2.236,2.752c0,2.924,4.128,8.084,4.128,10.836c0,2.064-0.86,4.128-2.752,4.128
	c-1.032,0-1.204-1.376-2.236-1.376c-1.204,0-1.892,0-1.892,0.688c0,2.057,1.615,4.103,4.201,6.333
	c1.178-0.419,2.444-0.657,3.71-0.657c3.956,0,9.46,7.052,12.556,7.052c0.173,0,0.345-0.172,0.345-0.344
	c0-0.344-2.58-1.204-4.128-2.58c-4.645-4.128-6.02-8.084-6.02-17.2c0-8.772,7.74-19.092,15.652-19.092
	c6.536,0,12.384,2.924,13.761,8.772c0,0.172,0.516,2.064,0.516,2.064s0.172-1.892,0.172-2.924c0-2.456-1.67-9.205-4.9-15.652H42.313
	c-3.033,0-5.66,0.567-7.983,1.807c0.969,3.356,3.56,5.761,8.155,5.761c1.547,0,2.58-0.688,2.58-2.236
	c0-1.72,0.859-2.752,2.235-2.752c1.548,0,3.269,1.204,3.269,2.408c0,2.924-6.364,4.816-9.633,4.816c-4.852,0-8.157-2.362-9.747-5.74
	c-2.15,1.998-4.023,4.788-5.733,8.492c-2.58,5.504-3.268,7.224-4.128,7.224c-1.548,0-1.72-1.548-1.72-4.128
	c0-6.192,2.666-19.178,3.44-21.672c0.255-0.821,0.602-1.376,1.892-1.376h7.415c3.38-4.471,9.936-7.224,15.29-7.224
	c2.407,0,4.299,1.032,5.848,2.064c0.688,0.344,0.516-0.344,0.344-0.516C51.084,7.74,42.14,4.128,35.26,3.956
	c-2.924,0-6.02,0.688-6.02,2.58c0,0.688,1.032,1.892,2.924,2.236c1.892,0.172,3.612,0.516,3.612,1.548
	c0,1.548-2.752,3.268-5.504,3.268c-2.924,0-5.16-1.72-5.16-4.472c0-2.408,2.408-4.472,0.344-4.816
	c-4.644-0.344-9.976,1.032-9.976,5.848c0,1.892,0.344,3.44,1.376,3.44c1.204,0,3.784-2.064,4.128-2.064
	c0.172,0,0.344,0.688,0.344,0.86c0,3.096-2.752,5.332-4.128,5.332c-2.58,0-5.504-1.204-5.504-6.364c0-1.376,1.376-3.44,0-3.44
	c-1.72,0.172-2.752,3.612-2.752,3.612c0,1.204,0.344,6.88,2.58,7.568c1.376,0.344,2.752,0.172,2.752,0.86
	c0,0.86-1.204,2.236-3.612,2.236c-1.204,0-3.612-2.064-3.612-4.988c0-2.236-0.344-1.892-0.516-1.892s-1.032,1.204-1.032,3.268
	c0,4.128,0.516,9.288,4.816,9.288c2.064,0,2.752-3.784,4.128-3.784c1.204,0,2.236,1.204,2.236,3.096c0,2.408-3.44,4.472-6.536,4.472
	c-3.956,0-9.288-2.064-9.288-11.18c0-2.58,0.516-4.816,1.204-6.192c0.516-0.86-0.516-2.924-1.032-2.924S0,9.116,0,6.02
	C0,5.16,1.892,0,4.988,0c1.72,0,2.408,0.688,2.408,1.548c0,4.472-3.44,3.44-3.612,5.332C3.784,8.084,4.3,8.6,4.3,8.6
	C5.848,8.6,11.696,0,24.94,0c15.652,0,21.671,0.86,29.24,8.772C54.18,2.064,55.729,0,62.264,0c2.58,0,4.473,2.064,4.473,3.268
	c0,2.924-1.032,4.128-2.236,4.128c-1.721,0-2.924-2.236-3.784-2.236c-1.032,0-1.72,1.892-1.72,3.612
	c0,1.199,2.226,4.574,4.555,8.428h13.664c2.1-1.95,4.235-3.825,5.894-5.429c-1.391-1.439-2.269-2.805-2.269-4.203
	c0-1.66,0.604-2.956,1.555-3.968c-0.906-0.336-1.791-0.504-2.414-0.504c-4.816,0-4.473,8.084-6.709,8.084
	c-1.375,0-3.268-0.86-3.268-4.816C70.004,2.58,72.756,0,76.712,0c2.728,0,5.694,0.625,7.887,1.976C88.358,0,93.645,0,94.084,0
	c1.549,0,5.504,1.892,5.504,7.052c0,2.408-1.031,4.128-3.096,4.128c-2.236,0-2.236-7.74-6.02-7.74c-1.271,0-2.523,0.213-3.639,0.57
	c0.668,0.947,1.059,2.071,1.059,3.386c0,1.373-0.701,2.793-1.833,4.252c1.886,1.624,4.327,3.514,6.654,5.552h12.841
	c0.965-2.465,1.813-4.55,2.117-5.16c0.688-1.376,1.893-3.096,2.752-3.784c0.688-0.516,1.205-1.376,1.205-1.72
	c0-0.516,0.172-2.064-1.549-2.064c-2.064,0-1.031,2.58-3.956,2.58c-2.407,0-3.44-1.204-3.44-2.58c0-1.892,3.269-4.472,7.225-4.472
	c1.548,0,6.708,1.548,6.708,3.956c0,1.376-1.892,1.204-1.892,2.408c0,0.86,0.344,1.548,1.548,1.548S128.829,0,144.137,0
	c11.18,0,13.76,5.848,18.404,5.848c0.859,0-0.517-1.892-0.517-2.752c0-1.376,1.204-3.096,3.44-3.096c2.408,0,4.816,1.892,4.816,4.3
	c0,1.72-0.517,2.064-1.721,2.064c-0.344,0-2.064-2.408-2.58-2.408c-1.031,0-0.688,2.58-0.688,3.096
	c0,0.344,4.988,9.116,4.988,20.124c0,7.052-3.441,9.288-9.289,9.288c-3.096,0-5.848-1.376-5.848-3.612c0-0.86,0.688-0.86,1.548-0.86
	c1.72,0,5.16,0.688,6.88,0.688c2.58,0,4.645-1.376,4.645-3.612c0-0.86-0.172-1.548-1.204-1.548c-0.86,0-0.86,1.548-3.784,1.548
	c-1.032,0-2.236-0.344-2.236-1.032c0-1.376,4.129-0.86,4.129-5.332c0-1.032-0.861-2.408-1.721-2.408s-1.548,1.204-2.236,1.204
	c-1.203,0-2.58-0.172-2.58-2.064c0-1.204,2.58-2.408,2.58-6.88c0-3.268-14.104-8.256-16.855-8.256c-0.344,0,2.58,1.892,2.58,4.816
	c0,3.096-0.86,4.816-2.924,4.816c-1.893,0-4.473-1.204-4.473-2.408c0-0.688,1.721-0.86,2.58-0.86c0.516,0,1.204-0.86,1.204-1.548
	c0-2.064-1.376-4.988-4.3-4.988c-3.44,0-11.18,0-11.18,3.096c0,0.516,0.688,0.86,2.235,1.548c2.298,1.021,5.446,2.8,6.919,8.428
	h15.441c1.376,0,1.548,0.172,1.548,1.376c0,1.032-6.364,21.672-6.536,23.736c-0.344,3.096-1.031,4.644-1.376,4.644
	c-1.376,0-2.752-3.612-2.752-7.224c0-6.977-1.843-12.725-5.526-14.339c-0.391,6.618-5.65,9.007-9.953,9.007
	c-5.16,0-7.912-2.58-7.912-4.644c0-2.236,2.752-4.3,4.644-4.3c2.58,0,3.097,1.204,3.097,2.924c0,0.344-0.173,1.72-1.033,1.72
	c-0.688,0-1.203-1.376-1.72-1.376c-0.516,0-0.86,0.516-0.86,1.204s2.58,2.408,4.301,2.408c2.752,0,7.224-2.924,7.224-6.708
	c0-0.229-0.003-0.459-0.008-0.688h-29.886c-0.885,3.371-1.503,6.066-1.754,6.192c-1.377,0.688-2.236,2.408-2.236,5.848
	c0,1.72,0,3.44,0.344,5.504c2.064-3.44,6.364-8.084,13.244-8.084c8.6,0,15.137,7.74,15.137,19.092c0,6.32-3.729,13.261-8.078,17.5
	c0.498,0.033,0.967,0.044,1.369,0.044c1.204,0,10.32-3.44,14.104-9.804c0.172-0.172,0.517-2.236,0-2.236
	c-0.688,0-1.548,1.032-2.236,1.032c-1.72,0-3.268-1.032-3.268-2.924c0-6.02,5.848-8.428,5.848-11.352c0-1.376-0.86-3.44-2.063-3.44
	c-2.064,0-0.86,1.548-2.924,1.548c-1.033,0-1.549-1.204-1.549-2.236c0-1.72,1.032-2.408,2.752-2.408
	c4.301,0,9.289,4.816,9.289,14.276c0,2.58-1.549,4.816-2.58,4.988c-0.517,0-0.861,0.344-0.861,1.032c0,0.344,0.345,1.376,0.345,1.72
	c0,0.688-2.235,1.548-3.097,2.924c-0.344,0.344-0.344,1.204,0.345,1.204c3.096,0,7.912-6.536,9.976-11.18
	c3.44-7.912,5.504-14.104,14.276-14.104c4.3,0,8.257,1.548,8.257,6.88c0,3.096-2.408,5.676-4.988,5.676
	c-1.205,0-4.129-0.172-4.129-1.204c0-0.86,1.377-1.032,1.893-1.032c0.688,0,1.376-1.376,1.376-2.752
	c0-1.548-1.376-2.752-2.925-2.752c-6.363,0-14.104,20.296-25.799,23.564c-5.849,1.548-8.601,5.848-13.072,5.848
	c-1.26,0-2.398-0.329-3.396-0.859c-1.561,0.984-3.109,1.547-4.516,1.547C110.252,74.993,103.889,71.208,103.029,68.457z
	 M6.708,76.884c0-5.848,1.548-9.116,1.204-9.288c-0.688-0.172-0.516-1.376-0.86-1.376c-0.86,0-3.096,2.58-3.096,5.848
	c0,4.472,1.72,6.02,2.064,6.192C6.192,78.261,6.708,77.573,6.708,76.884z M47.989,85.828c-4.129,0-7.912,2.408-7.912,5.332
	c0,1.893,1.203,4.645,3.096,4.645c1.721,0,2.064-3.439,3.096-3.439c0.688,0,1.032,0.516,1.032,1.719c0,1.721-3.44,4.645-5.16,4.645
	c-3.784,0-6.536-4.128-6.536-7.568c0-1.375,1.204-3.096,2.408-3.955c0.344-0.172,1.032-0.517,1.032-0.688
	c0-0.345-0.344-0.517-1.032-0.517C29.24,86,12.9,96.664,12.9,109.393c0,6.191,1.376,14.62,4.816,14.62c1.032,0,2.924,0,2.924-1.204
	c0-1.203-1.204-1.031-1.204-1.72c0-1.032,0.86-1.376,1.548-1.376c1.032,0,2.236,1.031,2.236,2.58c0,2.752-1.548,4.472-2.752,4.472
	c-1.032,0-2.064-0.344-3.44-0.688c-0.516-0.172-0.86,0-0.688,0.345c4.128,4.815,10.148,9.976,10.148,16.856
	c0,2.924-2.752,4.299-5.332,4.299c-3.268,0-6.88-1.891-6.88-4.987c0-1.204,0.344-2.063,0.86-2.063c0.344,0,3.612,2.407,4.988,2.407
	c1.548,0,1.72-1.376,1.72-2.063c0-1.377-3.44-9.977-7.912-14.104c-0.86-0.688-1.204-0.688-1.032-0.344
	c0.344,1.376,0.688,2.063,0.688,3.612c0,0.688-0.516,2.58-2.064,2.58c-2.064,0-4.128-2.236-4.128-3.612c0-0.688,0-0.86,0.688-0.86
	s1.892,1.032,2.58,1.032c1.032,0,0.86-3.269,0.86-3.612c-0.344-3.611-2.408-4.3-2.408-10.148c0-13.071,9.632-30.271,29.584-31.647
	c1.548-0.172,1.72-0.86,1.032-0.86c-20.124,0-35.604,16.684-35.604,38.701c0,10.188,6.937,27.551,20.375,37.596
	c4.655-4.24,8.578-9.766,10.091-14.996c-5.458-3.424-8.621-9.159-8.621-15.032c0-5.677,5.848-11.009,7.224-11.696
	c0.86-0.344,1.032-0.688,0.344-1.203c-0.516-0.345-0.86-1.377-1.376-2.753c0-0.172-0.86-0.86-1.032-0.516
	c-0.344,0.516-1.032,1.032-2.752,1.032c-6.708,0-9.976-2.408-9.976-8.601c0-3.956,4.472-9.116,9.288-9.116
	c3.096,0,4.644,1.893,4.644,3.44c0,0.86-1.376,2.235-2.924,2.235c-1.204,0-1.032-1.719-2.064-1.719c-0.86,0-2.064,1.031-1.376,1.719
	c2.58,2.58,2.752,4.473,7.912,4.816c3.44,0.172,4.128,1.204,4.128,3.784c0,0.345-0.516,1.72-0.688,1.72s-1.548-2.064-2.58-2.064
	c-1.032,0-1.204,0.861-1.204,1.549c0,2.064,1.892,3.611,2.236,3.956c0.86,0.688-0.172,0.688,4.128,0.688
	c6.879,0,9.287,3.611,9.287,6.191c0,2.064-2.063,6.708-4.127,6.708c-1.033,0-1.549-1.204-1.549-2.407
	c0-1.377,0.344-2.064,1.377-2.58c0.516-0.345,1.203-1.033,1.203-1.377c0-0.859-1.203-2.064-2.752-2.064
	c-1.204,0-4.988,3.269-4.988,5.332c0,1.549,5.503,10.148,5.503,14.965c0,1.164-0.076,2.318-0.225,3.459
	c0.844,0.16,1.723,0.271,2.633,0.325c1.549,0.172,6.192-1.376,7.568-2.753c0.859-0.859,0.172-0.859-0.688-1.031
	c-1.377-0.172-2.408-1.204-2.408-1.721c0-3.268,3.955-4.471,6.191-4.471c1.377,0,2.236,0.688,2.236,1.203
	c0,0.86-4.816,1.032-4.816,2.752c0,1.377,3.269,2.408,3.784,2.408c3.093,0,9.662-11.262,10.956-22.785
	c-0.473-0.71-0.896-1.192-1.152-1.295c-2.408-0.688-11.008-6.708-11.008-13.588c0-2.752,0.688-8.256,2.064-10.148
	c0.172-0.172-0.172-0.344-0.344-0.172c-2.924,2.064-4.473,7.396-4.473,11.352c0,9.289,8.084,12.385,8.084,20.984
	c0,3.44-4.3,7.568-6.88,7.568c-2.063,0-4.644-2.752-4.644-4.3c0-0.517,0.344-0.86,1.031-0.86c1.549,0,0.688,2.752,3.269,2.752
	c2.063,0,3.44-1.892,3.44-4.472c0-8.772-13.416-13.589-13.416-22.876c0-5.642,6.188-9.928,12.268-14.571
	C54.709,86.955,51.731,85.828,47.989,85.828z M22.36,164.777c0,0.344,0.344,0.172,1.204,0.172c0.546,0,1.118-0.109,1.706-0.316
	c-0.6-0.414-1.197-0.844-1.792-1.293c-0.088,0.023-0.174,0.045-0.258,0.061C22.532,163.572,22.36,164.434,22.36,164.777z
	 M29.928,110.08c1.032,0,1.548-1.892,1.032-1.892c-4.128,0-6.364-1.72-6.364-5.848c0-0.517,0.344-2.063,1.032-2.752
	c0.516-0.517-0.172-0.688-0.688-0.345c-1.72,1.033-2.408,2.58-2.408,4.816C22.532,107.5,24.768,110.08,29.928,110.08z
	 M27.025,160.949c0.674,0.432,1.363,0.844,2.067,1.238c3.988-3.576,7.912-10.066,9.448-16.074c-0.848-0.303-1.659-0.654-2.432-1.049
	C34.396,151.413,30.466,157.621,27.025,160.949z M29.756,47.645c0-0.86,0-1.72-0.688-1.72c-0.172,0-2.408,4.472-1.032,9.288
	c0.344,1.032,1.892-0.344,2.58,0C31.132,55.384,29.756,48.333,29.756,47.645z M35.26,139.837c0-3.784-1.548-6.708-1.548-9.288
	c0-5.16,1.892-8.771,4.472-9.288c1.72-0.345,2.58-0.86,2.58-1.548c0-1.032-1.032-2.064-2.408-2.064c-2.408,0-9.976,4.473-9.976,12.9
	c0,2.217,2.332,6.896,6.838,10.338C35.246,140.533,35.26,140.184,35.26,139.837z M59.168,16.168
	C55.384,12.04,48.848,12.9,45.237,12.9c-4.265,0-7.604,1.651-9.526,4.3h24.35C59.77,16.847,59.472,16.502,59.168,16.168z
	 M39.091,143.221c0.083-0.686,0.125-1.357,0.125-2.008c0-2.236-1.204-8.944-2.236-10.664c-0.688-1.032-1.032-1.376-1.032-0.344
	c0,1.203,1.032,5.332,1.032,8.771c0,0.979-0.078,1.975-0.224,2.98C37.488,142.417,38.267,142.842,39.091,143.221z M68.973,73.272
	c0-1.892-1.033-5.332-1.377-6.364c-0.172-0.516-0.516-1.032-0.688,0.688c-0.86,7.74-7.912,8.6-11.524,8.6
	c-4.644,0-14.62-7.912-17.372-7.912c-0.302,0-0.591,0.011-0.867,0.032c6.508,4.757,15.607,10.554,22.516,18.844
	C64.555,83.24,68.828,78.929,68.973,73.272z M56.245,34.744c-7.225,0-14.793,8.944-14.793,16.512c0,8.084,2.236,13.588,4.473,16.34
	c0.688,0.86,2.236,1.376,1.204,0c-2.408-3.784-3.44-8.6-3.44-14.792c0-5.848,5.16-15.48,12.213-15.48
	c2.235,0,7.224,1.376,8.256,2.236c1.031,0.86,1.375,0.172,0.344-0.86C62.78,36.98,60.544,34.744,56.245,34.744z M59.34,101.652
	c0,3.784,1.893,8.772,7.396,12.213c0.937,0.57,1.797,1.219,2.563,1.892c0.012-0.345,0.018-0.689,0.018-1.032
	c0-7.225-2.408-14.104-4.473-14.104c-0.344,0-1.031,0-1.031,0.859c0,0.86,0.172,2.58-0.345,2.58c-0.688,0-1.376-1.548-1.376-2.58
	c0-1.203,0.516-2.924,1.204-2.924c0.345,0,1.032,0,1.376,0.344c0.688,0.688,0.688-0.172,0.344-0.688
	c-1.243-1.955-2.464-3.725-3.724-5.276C59.991,96.545,59.34,100.342,59.34,101.652z M68.457,27.176
	c0.688,2.752,0.344,1.204,0.86-0.344c0.214-0.702,0.597-1.452,1.106-2.236h-2.89C67.92,25.497,68.237,26.365,68.457,27.176z
	 M80.425,17.2h8.974c-1.705-1.428-3.347-2.725-4.729-3.949C83.447,14.543,81.972,15.861,80.425,17.2z M82.733,7.568
	c0,0.707,0.705,1.632,1.832,2.726c0.994-1.081,1.607-1.962,1.607-2.554c0-1.145-0.588-2.078-1.424-2.799
	C83.518,5.687,82.733,6.627,82.733,7.568z M100.277,27.692c0.172,1.376,1.032,2.064,1.204,2.064c0.516,0,0.172-1.204,0.172-1.892
	c0-0.188,0.387-1.33,0.965-2.924h-3.191C99.88,25.859,100.18,26.779,100.277,27.692z M149.048,161.24
	c12.741-8.713,17.62-25.557,17.62-42.731c0-21.5-18.92-35.089-28.896-35.089c-1.376,0-2.236,0.345-2.752,0.517
	c-1.032,0.517-1.032,0.517-0.345,0.517c16.168,0,25.629,16.684,25.629,27.004c0,4.816-2.752,12.039-2.752,13.76
	c0,2.752,1.031,4.645,2.752,5.332c1.72,0.688,3.439-2.064,3.439-0.344c0,1.72-1.892,5.16-3.783,5.16
	c-1.377,0-3.097-2.236-3.44-4.645c-0.172-1.031-0.345-1.204-0.688-0.859c-1.375,1.547-6.02,7.74-6.02,10.492
	c0,3.439,1.72,4.987,3.096,4.987c2.752,0,3.096-4.472,5.16-4.472c0.688,0,0.859,2.064,0.859,4.816s-3.268,5.504-5.332,5.504
	c-1.031,0-0.859-2.58-1.891-2.58c-0.688,0-1.721,2.063-2.408,2.063c-2.408,0-4.645-4.815-4.645-8.256
	c0-3.956,8.771-11.181,8.771-14.964c0-0.344,0-1.721-0.344-0.86c-0.688,1.376-2.063,2.752-3.439,2.752
	c-1.549,0-2.58-2.58-2.58-4.815c0-1.549,1.031-3.44,2.236-3.44c0.172,0,0.172,0.172,0.172,0.344c0,0.345-0.344,1.204-0.344,1.72
	c0,0.86,0.688,2.064,1.547,2.064c3.613,0,5.332-5.676,5.332-8.428c0-19.608-10.319-30.101-23.047-31.648
	c-0.861-0.172-2.236-0.172-0.345,0.688c2.063,1.032,4.128,4.816,4.128,7.225c0,3.439-2.408,7.225-5.332,7.225
	c-2.408,0-4.472-1.721-4.472-4.129c0-0.859,0.516-1.376,1.548-1.376c0.859,0,1.548,0.688,1.548,1.548
	c0,1.032,0.345,1.377,1.032,1.377c1.204,0,3.611-1.377,3.611-3.613c0-6.191-7.739-8.6-12.899-8.6c-2.604,0-4.84,0.546-6.815,1.519
	c5.118,4.813,9.739,9.925,9.739,16.37c0,8.428-12.384,13.932-12.384,20.123c0,3.441,3.096,5.16,5.332,5.16s3.611-0.344,3.611-1.547
	c0-1.033-1.203-1.549-1.203-2.408c0-1.032,0.344-1.549,1.031-1.549c1.205,0,1.893,3.269,1.893,4.988c0,2.236-2.752,3.956-7.74,3.956
	s-7.912-3.784-7.912-7.567c0-7.912,9.116-11.869,9.116-23.564c0-6.02-1.032-8.084-2.408-9.633c-0.688-0.859,0.345,2.064,0.345,4.129
	c0,9.287-5.16,13.932-13.072,19.779c-0.105,0.084-0.207,0.172-0.307,0.262c-0.025,0.84-0.037,1.727-0.037,2.662
	c0,4.816,8.943,20.641,11.352,20.641c0.688,0,0.688-1.72,0.688-2.924s0.688-1.721,1.549-1.721c1.203,0,2.58,0.861,2.924,2.58v0.517
	c0,1.204-0.688,2.063-2.064,2.58c-1.031,0.344-1.548,0.517-1.548,0.86s0.688,0.688,1.892,1.203c2.064,0.86,6.192,1.721,9.116,1.721
	c0.61,0,1.252-0.068,1.911-0.197c0.444-15.499,8.237-16.334,8.237-22.852c0-0.344-2.063-1.72-2.063-3.096
	c0-1.203,0.859-2.58,0.344-2.58c-3.097,0-4.816,1.204-4.816,2.752c0,0.86,1.204,2.236,1.204,3.268c0,1.033-0.688,1.549-1.376,1.549
	c-1.376,0-3.268-1.721-3.268-3.784c0-1.72,1.375-5.16,4.815-5.16s4.3-1.548,4.3-3.096c0-1.032-1.031-4.815-1.031-5.849
	c0-0.859,0.172-1.547,0.859-1.547c3.612,0,3.439,3.096,6.88,3.096c2.58,0,5.16-1.205,5.16-3.612c0-3.44-4.815-3.956-4.815-4.988
	s1.547-1.548,2.58-1.548c5.504,0,8.428,5.504,8.428,12.557c0,2.924-2.924,5.676-5.504,5.676c-3.096,0-6.192-3.268-7.396-3.268
	c-0.516,0,0,2.063-0.859,2.752c-0.86,0.688-2.925,0-2.925,0.344c0,2.58,8.257,2.236,8.257,15.308c0,2.19-2.785,8.184-7.855,12.556
	C138.008,149.35,143.319,156.57,149.048,161.24z M112.833,93.568c0-1.48-0.533-2.85-1.391-4.191
	c-2.245,1.959-4.16,4.537-6.006,7.459c-0.688,0.861-0.688,1.377,0,0.688c0.517-0.344,1.377-0.688,2.925-0.688
	c1.376,0,1.376,1.893,1.376,2.58c0,0.517-1.376,4.301-2.408,4.301c-1.031,0,0.172-3.784-0.859-3.784c-1.033,0-1.377,0-2.064,0.688
	c-0.855,0.998-2.658,3.652-3.248,11.789C108.773,109.25,112.833,100.732,112.833,93.568z M129.172,53.148
	c0-11.18-9.632-16.34-14.447-16.34c-4.988,0-9.116,3.096-10.148,5.848c-1.548,3.612,0.172,1.032,1.721-0.344
	c1.891-1.892,3.611-2.752,6.02-2.752c8.6,0,15.824,7.052,15.824,15.308C128.141,56.76,129.172,56.072,129.172,53.148z
	 M121.088,9.288c-2.58,0-3.096,3.612-5.332,3.612c-1.548,0-1.72-1.72-3.611-1.72c-1.518,0-2.943,2.651-4.172,6.02h26.056
	C132.11,12.625,128.161,9.288,121.088,9.288z M133.602,140.348c-0.197-1.202-0.301-2.407-0.301-3.607c0-2.58,0-3.096,0.344-4.127
	c0.172-0.86-0.344-0.86-0.688-0.172c-0.517,1.031-1.377,2.235-1.377,7.396c0,0.568,0.033,1.141,0.098,1.714
	C132.329,141.189,132.973,140.785,133.602,140.348z M147.667,162.135c-5.971-4.537-11.313-11.527-13.416-18.909
	c-0.637,0.455-1.302,0.882-1.996,1.271c2.237,8.078,9.521,15.891,13.908,18.504C146.675,162.723,147.176,162.434,147.667,162.135z
	 M141.385,128.313c0-0.688-0.172-3.955-0.344-4.472c-0.517-1.72-0.861-2.063-1.721-2.063c-3.611,0-4.3,9.631-4.3,13.76
	c0,1.158,0.099,2.328,0.287,3.5C138.753,136.132,141.385,132.199,141.385,128.313z M137.945,54.353c0,1.376,0.688,1.892,1.72,1.892
	c1.549,0,2.064-1.72,2.236-3.096c0.344-2.408-0.859-6.192-1.204-6.192c-0.344,0-0.344,2.408-1.204,3.44
	C138.461,51.601,137.945,53.148,137.945,54.353z M149.469,107.156c0-2.58,0-3.439-1.377-5.504c0.688,2.752-1.892,6.021-5.332,6.192
	c-0.516,0,1.549,1.72,3.097,1.72C147.92,109.564,149.469,108.017,149.469,107.156z M160.649,64.329c0,1.032,2.236,3.096,4.128,4.644
	c1.376,1.204,2.063,4.128,2.408,4.128c0.344,0,0.688-2.064,0.688-2.408c0-4.816-5.504-9.46-8.256-9.46
	C159.273,61.232,160.649,62.265,160.649,64.329z"/>
</svg>
